<svg width="102" height="102" viewBox="0 0 102 102" fill="none" xmlns="http://www.w3.org/2000/svg">
<path d="M51 1.59375C23.7564 1.59375 1.59375 23.7564 1.59375 51C1.59375 78.2436 23.7564 100.406 51 100.406C78.2436 100.406 100.406 78.2436 100.406 51C100.406 23.7564 78.2436 1.59375 51 1.59375ZM95.2313 37.6013L77.9535 48.2332C77.324 42.0511 74.5923 36.4905 70.5059 32.2432L75.8816 12.0822C85.0441 17.96 92.0056 26.9726 95.2313 37.6013ZM51 74.9062C37.8181 74.9062 27.0938 64.1819 27.0938 51C27.0938 37.8181 37.8181 27.0938 51 27.0938C64.1819 27.0938 74.9062 37.8181 74.9062 51C74.9062 64.1819 64.1819 74.9062 51 74.9062ZM73.0384 10.3833L67.8539 29.8238C63.4488 26.3096 57.9312 24.1565 51.9196 23.9525L40.8239 5.92397C44.1007 5.18447 47.5033 4.78125 51 4.78125C58.9751 4.78125 66.4833 6.81169 73.0384 10.3833ZM37.6013 6.76866L48.2332 24.0465C42.0511 24.676 36.4905 27.4077 32.2432 31.4941L12.0822 26.1184C17.96 16.9559 26.9726 9.99441 37.6013 6.76866ZM10.3833 28.9616L29.8238 34.1461C26.3096 38.5512 24.1565 44.0688 23.9525 50.0804L5.92397 61.1761C5.18447 57.8993 4.78125 54.4967 4.78125 51C4.78125 43.0249 6.81169 35.5167 10.3833 28.9616ZM6.76866 64.3987L24.0465 53.7668C24.676 59.9489 27.4077 65.5095 31.4941 69.7568L26.1184 89.9178C16.9559 84.04 9.99441 75.0274 6.76866 64.3987ZM28.9616 91.6167L34.1461 72.1762C38.5512 75.6904 44.0688 77.8435 50.0804 78.0475L61.1745 96.076C57.8993 96.8155 54.4967 97.2188 51 97.2188C43.0249 97.2188 35.5167 95.1883 28.9616 91.6167ZM64.3987 95.2313L53.7668 77.9535C59.9489 77.324 65.5095 74.5923 69.7568 70.5059L89.9178 75.8816C84.04 85.0441 75.0274 92.0056 64.3987 95.2313ZM91.6167 73.0384L72.1762 67.8539C75.6904 63.4488 77.8435 57.9312 78.0475 51.9196L96.076 40.8255C96.8155 44.1007 97.2188 47.5033 97.2188 51C97.2188 58.9751 95.1883 66.4833 91.6167 73.0384Z" fill="#F8991D"/>
<path d="M51 36.6562C43.0902 36.6562 36.6562 43.0902 36.6562 51C36.6562 58.9098 43.0902 65.3438 51 65.3438C58.9098 65.3438 65.3438 58.9098 65.3438 51C65.3438 43.0902 58.9098 36.6562 51 36.6562ZM51 62.1562C44.8497 62.1562 39.8438 57.1503 39.8438 51C39.8438 44.8497 44.8497 39.8438 51 39.8438C57.1503 39.8438 62.1562 44.8497 62.1562 51C62.1562 57.1503 57.1503 62.1562 51 62.1562Z" fill="#F8991D"/>
<path d="M51 43.0312C46.606 43.0312 43.0312 46.606 43.0312 51C43.0312 55.394 46.606 58.9688 51 58.9688C55.394 58.9688 58.9688 55.394 58.9688 51C58.9688 46.606 55.394 43.0312 51 43.0312ZM51 55.7812C48.3639 55.7812 46.2188 53.6361 46.2188 51C46.2188 48.3639 48.3639 46.2188 51 46.2188C53.6361 46.2188 55.7812 48.3639 55.7812 51C55.7812 53.6361 53.6361 55.7812 51 55.7812Z" fill="#F8991D"/>
<path d="M49.4062 68.5312H52.5938V71.7188H49.4062V68.5312Z" fill="#F8991D"/>
<path d="M49.4062 30.2812H52.5938V33.4688H49.4062V30.2812Z" fill="#F8991D"/>
<path d="M30.2812 49.4062H33.4688V52.5938H30.2812V49.4062Z" fill="#F8991D"/>
<path d="M68.5312 49.4062H71.7188V52.5938H68.5312V49.4062Z" fill="#F8991D"/>
</svg>
