<svg width="90" height="90" viewBox="0 0 90 90" fill="none" xmlns="http://www.w3.org/2000/svg">
<path d="M10.9614 49.0286C11.5468 49.6141 12.4959 49.6141 13.0813 49.0286L22.0754 40.0346C22.1104 39.9996 22.1434 39.9628 22.1748 39.9246C22.189 39.9074 22.2013 39.8892 22.2145 39.8717C22.2306 39.8503 22.2472 39.8292 22.2622 39.8069C22.2765 39.7856 22.2886 39.7637 22.3017 39.7419C22.3136 39.7217 22.3263 39.7021 22.3375 39.6813C22.3495 39.659 22.3595 39.6362 22.3702 39.6133C22.3804 39.5917 22.3911 39.5704 22.4004 39.5483C22.4095 39.5261 22.417 39.5036 22.4251 39.4811C22.4336 39.4574 22.4426 39.4342 22.4501 39.4099C22.4569 39.3874 22.4619 39.3647 22.4676 39.342C22.4738 39.3172 22.4808 39.2929 22.4858 39.2675C22.491 39.2416 22.494 39.2154 22.4977 39.1893C22.501 39.167 22.5052 39.145 22.5074 39.1225C22.517 39.0243 22.517 38.9252 22.5074 38.827C22.5052 38.8043 22.501 38.7825 22.4977 38.7602C22.494 38.7341 22.491 38.7078 22.4858 38.6819C22.4808 38.6567 22.4738 38.6323 22.4676 38.6075C22.4619 38.5848 22.4569 38.5619 22.4501 38.5396C22.4427 38.5153 22.4336 38.4921 22.4251 38.4683C22.417 38.4458 22.4097 38.4233 22.4004 38.4012C22.3913 38.379 22.3804 38.3578 22.3702 38.3362C22.3595 38.3135 22.3493 38.2905 22.3375 38.2681C22.3265 38.2474 22.3138 38.2276 22.3017 38.2076C22.2886 38.1858 22.2763 38.1638 22.2622 38.1426C22.2472 38.1203 22.2306 38.0992 22.2145 38.0777C22.2013 38.0601 22.189 38.042 22.1748 38.0249C22.1122 37.9484 22.0422 37.8784 21.9657 37.8157C21.9486 37.8016 21.9304 37.7893 21.9127 37.7761C21.8912 37.76 21.8702 37.7434 21.848 37.7286C21.8268 37.7143 21.8046 37.702 21.7827 37.6889C21.7625 37.677 21.7428 37.6643 21.7221 37.6532C21.6998 37.6413 21.6769 37.6313 21.6542 37.6205C21.6326 37.6104 21.6114 37.5996 21.5892 37.5904C21.5669 37.5811 21.5442 37.5738 21.5217 37.5657C21.4982 37.5573 21.4749 37.5482 21.4508 37.5409C21.4281 37.5341 21.4053 37.5291 21.3824 37.5232C21.358 37.517 21.3337 37.5102 21.3087 37.5052C21.2822 37.5 21.2556 37.4968 21.229 37.493C21.2072 37.49 21.1858 37.4857 21.1636 37.4836C21.1145 37.4787 21.0651 37.4761 21.0158 37.4761H15.6404L22.0756 31.0409C22.661 30.4555 22.661 29.5064 22.0756 28.921C21.4901 28.3356 20.5411 28.3356 19.9556 28.921L10.9616 37.915C10.9266 37.95 10.8935 37.9868 10.8621 38.0251C10.848 38.0422 10.8357 38.0604 10.8225 38.0779C10.8064 38.0994 10.7898 38.1204 10.7748 38.1428C10.7605 38.164 10.7484 38.186 10.7353 38.2078C10.7233 38.2279 10.7107 38.2476 10.6994 38.2683C10.6874 38.2906 10.6774 38.3135 10.6667 38.3364C10.6566 38.358 10.6458 38.3792 10.6366 38.4014C10.6274 38.4235 10.6199 38.446 10.6119 38.4685C10.6033 38.4923 10.5944 38.5155 10.5869 38.5398C10.5801 38.5623 10.5751 38.585 10.5694 38.6076C10.5631 38.6325 10.5562 38.6567 10.5512 38.6821C10.546 38.708 10.543 38.7343 10.5392 38.7603C10.536 38.7827 10.5317 38.8046 10.5296 38.8271C10.5199 38.9254 10.5199 39.0245 10.5296 39.1227C10.5317 39.1454 10.536 39.1672 10.5392 39.1895C10.543 39.2156 10.546 39.2418 10.5512 39.2677C10.5562 39.2929 10.5631 39.3174 10.5694 39.3422C10.5751 39.3649 10.5801 39.3877 10.5869 39.4101C10.5942 39.4344 10.6033 39.4576 10.6119 39.4813C10.6199 39.5038 10.6273 39.5263 10.6366 39.5485C10.6457 39.5706 10.6566 39.5919 10.6667 39.6135C10.6774 39.6362 10.6876 39.6592 10.6994 39.6815C10.7105 39.7022 10.7232 39.7221 10.7353 39.7421C10.7484 39.7639 10.7607 39.7858 10.7748 39.8071C10.7898 39.8294 10.8064 39.8505 10.8225 39.8719C10.8357 39.8896 10.848 39.9076 10.8621 39.9248C10.9248 40.0012 10.9948 40.0712 11.0713 40.1339C11.0884 40.148 11.1066 40.1603 11.1243 40.1736C11.1457 40.1896 11.1668 40.2062 11.1889 40.2211C11.2102 40.2353 11.2323 40.2477 11.2543 40.2607C11.2745 40.2727 11.2941 40.2854 11.3149 40.2964C11.337 40.3082 11.3599 40.3184 11.3825 40.3289C11.4043 40.3391 11.4256 40.35 11.4479 40.3593C11.4701 40.3684 11.4926 40.3759 11.5151 40.3839C11.5388 40.3925 11.562 40.4014 11.5863 40.4089C11.609 40.4157 11.6319 40.4207 11.6547 40.4266C11.6792 40.4329 11.7035 40.4397 11.7285 40.4447C11.7549 40.4498 11.7815 40.4531 11.8081 40.4568C11.8299 40.4598 11.8514 40.4641 11.8735 40.4663C11.9226 40.4711 11.9721 40.4738 12.0214 40.4738H17.3965L10.9614 46.9089C10.376 47.4942 10.376 48.4432 10.9614 49.0286Z" fill="#F8991D"/>
<path d="M55.4932 47.9879C54.6652 47.9879 53.9942 48.659 53.9942 49.4868C53.9942 52.5296 53.3554 54.3705 52.0261 56.2261C51.848 56.4747 50.9254 57.6763 50.6827 58.028C50.2196 58.6989 49.8953 59.3331 49.7033 60H49.3634C49.272 58.4853 49.4054 57.2618 49.734 55.6778C49.7283 55.7057 49.888 54.9467 49.9303 54.735C50.0042 54.3659 50.0583 54.0578 50.0998 53.7547C50.325 52.1102 50.1398 50.6623 49.3738 48.8916C49.045 48.1317 48.1626 47.7823 47.4028 48.1109C46.6429 48.4397 46.2936 49.3222 46.6222 50.0819C47.1671 51.3415 47.2817 52.237 47.1296 53.3477C47.0974 53.5817 47.0535 53.8326 46.9906 54.1466C46.9517 54.3409 46.7956 55.0829 46.7986 55.0685C46.4314 56.8378 46.2718 58.2773 46.3605 59.9998H45.7798C45.2038 59.1215 44.9909 58.3028 44.9691 57.2332C44.9621 56.8914 44.9696 56.6144 44.9988 55.9329C45.1298 52.8569 44.8378 51.1433 43.2657 48.6803C42.8203 47.9825 41.8933 47.7779 41.1956 48.2233C40.4978 48.6687 40.2931 49.5956 40.7386 50.2934C41.9144 52.1356 42.1107 53.2873 42.0035 55.8053C41.9718 56.5508 41.9632 56.868 41.9718 57.2945C42.0073 59.0381 42.4332 60.4885 43.5011 61.976V72.0116C43.5011 76.9699 39.4652 81.0058 34.5068 81.0058H30.0098C25.0515 81.0058 21.0156 76.9699 21.0156 72.0116V68.9551C22.6712 68.9551 24.0137 67.6137 24.0137 65.957V59.9609H30.0098C31.6654 59.9609 33.0079 58.6195 33.0079 56.9628V20.9863C33.0079 19.3297 31.6654 17.9882 30.0098 17.9882H28.5109V4.49702C28.5109 2.01419 26.4967 0 24.0139 0H9.02333C6.54051 0 4.52631 2.01419 4.52631 4.49702V17.9882H3.02737C1.37179 17.9882 0.0292969 19.3297 0.0292969 20.9863V56.963C0.0292969 58.6196 1.37179 59.9611 3.02737 59.9611H9.02351V65.9572C9.02351 67.6139 10.366 68.9553 12.0216 68.9553V72.0117C12.0216 81.9313 20.0905 90 30.0098 90H34.5068C44.4264 90 52.4951 81.9311 52.4951 72.0117V61.4991C52.4951 61.4957 52.4946 61.4925 52.4946 61.4891C52.4946 61.4857 52.4951 61.4825 52.4951 61.4791C52.4951 60.8914 52.6789 60.4138 53.15 59.731C53.3393 59.4567 54.24 58.2835 54.463 57.9722C56.144 55.6259 56.9919 53.182 56.9919 49.487C56.9921 48.659 56.3211 47.9879 55.4932 47.9879ZM7.52438 4.49702C7.52438 3.66994 8.19644 2.99807 9.02333 2.99807H24.0135C24.8406 2.99807 25.5125 3.67012 25.5125 4.49702V17.9882H7.52438V4.49702ZM3.02737 20.9863H6.02544H27.0118H30.0098V56.963H22.5147H10.5225H3.02737V20.9863ZM21.0156 59.9611V65.9572H19.5167H13.5205H12.0216V59.9611H21.0156ZM49.497 72.0117C49.497 80.2755 42.7704 87.0019 34.5068 87.0019H30.0098C21.7461 87.0019 15.0197 80.2753 15.0197 72.0117V68.9553H18.0177V72.0117C18.0177 78.6258 23.3957 84.004 30.01 84.004H34.507C41.1211 84.004 46.4993 78.626 46.4993 72.0117V62.9981H49.4974V72.0117H49.497Z" fill="#F8991D"/>
<path d="M71.9825 0.0395508H62.9883C53.0687 0.0395508 45 8.10847 45 18.0278V29.999V29.9994C45 30.5871 44.8162 31.0647 44.3451 31.7475C44.1558 32.0216 43.2551 33.195 43.0321 33.5063C41.3511 35.8526 40.503 38.2965 40.503 41.9915C40.503 42.8194 41.1741 43.4904 42.0019 43.4904C42.8297 43.4904 43.5009 42.8193 43.5009 41.9915C43.5009 38.9488 44.1397 37.1078 45.469 35.2522C45.6471 35.0036 46.5697 33.802 46.8124 33.4504C47.271 32.786 47.593 32.1577 47.7857 31.4978H48.1327C48.222 33.004 48.0883 34.224 47.7611 35.801C47.7668 35.7737 47.6071 36.5324 47.5648 36.7438C47.4909 37.1132 47.4368 37.4211 47.3953 37.7241C47.1701 39.3683 47.3555 40.816 48.1213 42.5866C48.4501 43.3465 49.3324 43.6958 50.0923 43.3672C50.8522 43.0386 51.2015 42.156 50.8729 41.3962C50.328 40.1368 50.2134 39.2415 50.3655 38.131C50.3977 37.897 50.4416 37.6461 50.5045 37.3321C50.5434 37.138 50.6995 36.3963 50.6966 36.4102C51.0624 34.6477 51.2224 33.2121 51.1358 31.4976H51.7277C52.2945 32.3683 52.5044 33.1825 52.5262 34.2437C52.5331 34.586 52.5256 34.8632 52.4965 35.5458C52.3654 38.6217 52.6574 40.3354 54.2298 42.7978C54.6754 43.4956 55.6021 43.7001 56.2999 43.2545C56.9977 42.8089 57.2021 41.8822 56.7565 41.1844C55.5807 39.3429 55.3846 38.1913 55.4917 35.6733C55.5235 34.9266 55.5323 34.6091 55.5234 34.1819C55.4875 32.4393 55.0615 30.9897 53.994 29.5031V18.0273C53.994 13.0689 58.0299 9.03305 62.9883 9.03305H71.9825C76.9408 9.03305 80.9767 13.0689 80.9767 18.0273V88.4815C80.9767 89.3095 81.6478 89.9804 82.4756 89.9804H88.4718C89.2997 89.9804 89.9707 89.3093 89.9707 88.4815V18.0278C89.9707 8.10829 81.902 0.0395508 71.9825 0.0395508ZM86.9726 86.9829H83.9746V18.0278C83.9746 11.4137 78.5965 6.03551 71.9823 6.03551H62.9881C56.374 6.03551 50.9958 11.4135 50.9958 18.0278V28.5001H47.9977V18.0278C47.9977 9.76404 54.7243 3.03762 62.9879 3.03762H71.9821C80.2459 3.03762 86.9723 9.76422 86.9723 18.0278V86.9829H86.9726Z" fill="#F8991D"/>
</svg>
