<svg width="15" height="15" viewBox="0 0 15 15" xmlns="http://www.w3.org/2000/svg">
	<path d="M14.0687 5.80683C13.99 5.57723 13.7402 5.45478 13.5106 5.5335C13.281 5.61213 13.1586 5.862 13.2372 6.09163C13.4543 6.72552 13.5644 7.38666 13.5644 8.05667C13.5644 11.4006 10.8439 14.1211 7.49999 14.1211C4.15606 14.1211 1.43554 11.4006 1.43554 8.05667C1.43554 4.95105 3.78224 2.38363 6.79546 2.03339L6.20168 2.36509C5.9898 2.48344 5.91398 2.75119 6.03234 2.96306C6.11282 3.10711 6.26232 3.18829 6.41639 3.18826C6.48893 3.18826 6.56249 3.17028 6.63032 3.1324L8.69711 1.97778C8.83612 1.90015 8.92226 1.75334 8.92226 1.59414C8.92226 1.43494 8.83612 1.28814 8.69711 1.2105L6.63032 0.0558903C6.41841 -0.0624977 6.15073 0.0133515 6.03234 0.225225C5.91398 0.437099 5.98977 0.704842 6.20168 0.8232L6.786 1.14962C5.20116 1.31046 3.73193 2.00535 2.5903 3.14701C1.27886 4.45842 0.556641 6.20205 0.556641 8.05667C0.556641 9.9113 1.27886 11.6549 2.5903 12.9663C3.90171 14.2778 5.64533 15 7.49996 15C9.35459 15 11.0982 14.2778 12.4096 12.9663C13.7211 11.6549 14.4433 9.9113 14.4433 8.05667C14.4433 7.28954 14.3173 6.5326 14.0687 5.80683Z" />
	<path d="M6.35809 7.71962C6.53417 7.41464 6.58093 7.05935 6.48981 6.71922C6.3987 6.37908 6.18053 6.09478 5.87554 5.91871C5.57059 5.74263 5.21531 5.69588 4.87517 5.78699C4.53501 5.87813 4.25074 6.09628 4.07467 6.40123C3.89859 6.70621 3.8518 7.06149 3.94295 7.40163C4.03409 7.74176 4.25223 8.02606 4.55719 8.20214C4.76429 8.32173 4.9906 8.37853 5.21417 8.3785C5.67011 8.3785 6.1142 8.14205 6.35809 7.71962ZM5.59696 7.28013C5.47582 7.48999 5.20655 7.56212 4.99667 7.441C4.89501 7.38232 4.82229 7.28755 4.79191 7.17417C4.76153 7.06079 4.77712 6.94237 4.83583 6.84071C4.89454 6.73905 4.98928 6.66634 5.10266 6.63595C5.14052 6.62582 5.17895 6.62078 5.21713 6.62078C5.29327 6.62078 5.36845 6.64076 5.43615 6.67984C5.53781 6.73852 5.61053 6.8333 5.64091 6.94668C5.67123 7.06009 5.65564 7.1785 5.59696 7.28013Z" />
	<path d="M8.64171 9.03794C8.27822 9.6675 8.4947 10.4754 9.12426 10.8388C9.33136 10.9584 9.55768 11.0152 9.78121 11.0152C10.2372 11.0152 10.6813 10.7787 10.9252 10.3563C11.2886 9.72677 11.0722 8.91888 10.4426 8.55539C9.81309 8.19194 9.0052 8.40838 8.64171 9.03794ZM9.40287 9.47739C9.48417 9.33656 9.63221 9.25776 9.7842 9.25776C9.8587 9.25776 9.93417 9.27668 10.0032 9.31653C10.213 9.4377 10.2852 9.70699 10.1641 9.91685C10.0429 10.1267 9.77362 10.1988 9.56374 10.0777C9.35386 9.95654 9.2817 9.68725 9.40287 9.47739Z" />
	<path d="M8.29869 6.11668L5.9403 10.2015C5.81895 10.4117 5.89096 10.6805 6.10114 10.8018C6.17033 10.8418 6.24589 10.8608 6.32045 10.8608C6.47233 10.8608 6.62004 10.782 6.70143 10.641L9.05983 6.55613C9.18117 6.34595 9.10916 6.07718 8.89899 5.95584C8.68878 5.8344 8.42004 5.9065 8.29869 6.11668Z" />
</svg>
