<svg width="101" height="101" viewBox="0 0 101 101" fill="none" xmlns="http://www.w3.org/2000/svg">
<path d="M1.47949 81.3503V87.4379C1.47949 91.975 5.1585 95.6541 9.69758 95.6541H31.2725C35.8096 95.6541 39.4886 91.975 39.4886 87.4379V13.562C39.4886 9.02485 35.8096 5.34585 31.2725 5.34585H9.69758C5.1585 5.34585 1.47949 9.02485 1.47949 13.562V75.4324" stroke="#F8991D" stroke-width="3" stroke-miterlimit="10" stroke-linecap="round" stroke-linejoin="round"/>
<path d="M39.4894 64.5198C44.9669 64.5198 49.7071 61.3767 52.0144 56.7976H67.2971V44.2026H52.0144C49.7071 39.6233 44.9669 36.4802 39.4894 36.4802" stroke="#F8991D" stroke-width="3" stroke-miterlimit="10" stroke-linecap="round" stroke-linejoin="round"/>
<path d="M70.8395 39.8457C68.8832 39.8457 67.297 41.4317 67.297 43.3882V57.6118C67.297 59.5681 68.8832 61.1543 70.8395 61.1543C72.7958 61.1543 74.3818 59.5681 74.3818 57.6118V43.3882C74.3818 41.4317 72.7958 39.8457 70.8395 39.8457Z" stroke="#F8991D" stroke-width="3" stroke-miterlimit="10" stroke-linecap="round" stroke-linejoin="round"/>
<path d="M77.9241 35.9331C75.9679 35.9331 74.3818 37.5191 74.3818 39.4754V61.5246C74.3818 63.4811 75.9679 65.0669 77.9241 65.0669C79.8804 65.0669 81.4666 63.4811 81.4666 61.5246V39.4754C81.4666 37.5191 79.8804 35.9331 77.9241 35.9331Z" stroke="#F8991D" stroke-width="3" stroke-miterlimit="10" stroke-linecap="round" stroke-linejoin="round"/>
<path d="M88.5506 45.9253V66.151C88.5506 67.1294 88.1541 68.0151 87.513 68.6562C86.8719 69.2973 85.9881 69.6938 85.0097 69.6938C83.0528 69.6938 81.4668 68.1078 81.4668 66.151V34.8489C81.4668 32.892 83.0528 31.306 85.0097 31.306C86.9646 31.306 88.5506 32.892 88.5506 34.8489V40.0073" stroke="#F8991D" stroke-width="3" stroke-miterlimit="10" stroke-linecap="round" stroke-linejoin="round"/>
<path d="M88.5505 66.1509H99.5205V34.8488H88.5505" stroke="#F8991D" stroke-width="3" stroke-miterlimit="10" stroke-linecap="round" stroke-linejoin="round"/>
<path d="M11.1474 5.34583C10.0743 8.84729 7.72485 10.0802 7.72485 15.4853C7.72485 22.4882 11.6702 22.4882 11.6702 29.4911C11.6702 36.4921 7.72485 36.4921 7.72485 43.495C7.72485 50.498 11.6702 50.498 11.6702 57.5009C11.6702 64.5038 7.72485 64.5038 7.72485 71.5067C7.72485 78.5097 11.6702 78.5097 11.6702 85.5146C11.6702 90.8545 9.37399 92.123 8.28509 95.5317V95.5337" stroke="#F8991D" stroke-width="3" stroke-miterlimit="10" stroke-linecap="round" stroke-linejoin="round"/>
<path d="M32.6849 5.46619V5.46816C31.596 8.87691 29.2999 10.1453 29.2999 15.4853C29.2999 22.4882 33.2452 22.4882 33.2452 29.4912C33.2452 36.4921 29.2999 36.4921 29.2999 43.4951C29.2999 50.498 33.2452 50.498 33.2452 57.5009C33.2452 64.5038 29.2999 64.5038 29.2999 71.5068C29.2999 78.5097 33.2452 78.5097 33.2452 85.5146C33.2452 90.9197 30.8957 92.1526 29.8226 95.6541" stroke="#F8991D" stroke-width="3" stroke-miterlimit="10" stroke-linecap="round" stroke-linejoin="round"/>
<path d="M19.0342 95.6541C20.1074 92.1526 22.4568 90.9197 22.4568 85.5146C22.4568 78.5097 18.5115 78.5097 18.5115 71.5068C18.5115 64.5038 22.4568 64.5038 22.4568 57.5009C22.4568 50.498 18.5115 50.498 18.5115 43.4951C18.5115 36.4921 22.4568 36.4921 22.4568 29.4912C22.4568 22.4882 18.5115 22.4882 18.5115 15.4853C18.5115 10.0802 20.8609 8.84732 21.934 5.34586" stroke="#F8991D" stroke-width="3" stroke-miterlimit="10" stroke-linecap="round" stroke-linejoin="round"/>
</svg>
