<svg width="50" height="50" viewBox="0 0 50 50" xmlns="http://www.w3.org/2000/svg">
<path d="M43.6545 27.0881H13.8906V29.8659H43.6545C44.0229 29.8659 44.3761 29.7196 44.6366 29.4591C44.8971 29.1987 45.0434 28.8454 45.0434 28.477C45.0434 28.1087 44.8971 27.7554 44.6366 27.4949C44.3761 27.2345 44.0229 27.0881 43.6545 27.0881Z" />
<path d="M43.6545 38.1993H13.8906V40.9771H43.6545C44.0229 40.9771 44.3761 40.8308 44.6366 40.5703C44.8971 40.3099 45.0434 39.9566 45.0434 39.5882C45.0434 39.2199 44.8971 38.8666 44.6366 38.6061C44.3761 38.3457 44.0229 38.1993 43.6545 38.1993Z" />
<path d="M21.4609 18.755H43.6832C44.0515 18.755 44.4048 18.6086 44.6653 18.3482C44.9257 18.0877 45.072 17.7344 45.072 17.3661C45.072 16.9977 44.9257 16.6444 44.6653 16.384C44.4048 16.1235 44.0515 15.9772 43.6832 15.9772H24.2387L21.4609 18.755Z" />
<path d="M24.305 9.61597C24.1642 9.47362 23.9966 9.3606 23.8118 9.28347C23.6271 9.20634 23.4288 9.16663 23.2286 9.16663C23.0284 9.16663 22.8302 9.20634 22.6454 9.28347C22.4607 9.3606 22.293 9.47362 22.1522 9.61597L10.9578 20.8104L6.26335 15.7549C5.98709 15.4583 5.60434 15.2837 5.19931 15.2694C4.79429 15.2551 4.40016 15.4022 4.10363 15.6785C3.8071 15.9547 3.63247 16.3375 3.61814 16.7425C3.60382 17.1475 3.75098 17.5417 4.02724 17.8382L10.8884 25.1993L24.305 11.8104C24.452 11.668 24.5689 11.4975 24.6487 11.309C24.7286 11.1205 24.7697 10.9179 24.7697 10.7132C24.7697 10.5085 24.7286 10.3059 24.6487 10.1174C24.5689 9.92893 24.452 9.75841 24.305 9.61597Z" />
</svg>
