<svg width="118" height="118" viewBox="0 0 118 118" fill="none" xmlns="http://www.w3.org/2000/svg">
<path d="M78.597 84.613C75.8929 84.613 73.6931 86.8129 73.6931 89.5169C73.6931 92.221 75.8929 94.4209 78.597 94.4209C81.3011 94.4209 83.5009 92.221 83.5009 89.5169C83.5009 86.8129 81.3011 84.613 78.597 84.613ZM78.597 91.6555C77.418 91.6555 76.4587 90.6963 76.4587 89.5172C76.4587 88.3381 77.418 87.3789 78.597 87.3789C79.7761 87.3789 80.7353 88.3381 80.7353 89.5172C80.7353 90.6963 79.7761 91.6555 78.597 91.6555Z" fill="#F8991D"/>
<path d="M17.5631 87.7429C15.2905 87.7429 13.4417 89.5917 13.4417 91.8644C13.4417 94.137 15.2905 95.9859 17.5631 95.9859C19.8358 95.9859 21.6846 94.137 21.6846 91.8644C21.6846 89.5917 19.8358 87.7429 17.5631 87.7429ZM17.5631 93.2202C16.8155 93.2202 16.2073 92.612 16.2073 91.8644C16.2073 91.1168 16.8155 90.5085 17.5631 90.5085C18.3108 90.5085 18.919 91.1168 18.919 91.8644C18.919 92.612 18.3108 93.2202 17.5631 93.2202Z" fill="#F8991D"/>
<path d="M108.653 84.613H90.5431V24.6701C90.5431 22.8909 89.0958 21.4436 87.3165 21.4436H83.9616C82.1824 21.4436 80.735 22.8909 80.735 24.6701V43.2726L73.9888 52.0775L70.2243 38.0514C70.0263 37.3139 69.2678 36.876 68.5303 37.0742C67.7926 37.2722 67.3552 38.0306 67.5532 38.7681L76.3573 71.5717C67.3702 72.6775 60.5089 80.3154 60.5089 89.5171C60.5089 90.2327 60.5554 90.9472 60.6389 91.6554H33.2553C33.1423 83.096 26.1485 76.1667 17.5629 76.1667C11.5594 76.1667 6.32614 79.5678 3.68727 84.5424V70.9466H12.7018C15.4976 70.9466 17.7721 68.6721 17.7721 65.8763V59.2093H23.4318C24.1953 59.2093 24.8146 58.5903 24.8146 57.8265V51.8256C27.2942 52.4451 29.1363 54.6919 29.1363 57.3605V69.5638C29.1363 70.3274 29.7556 70.9466 30.5191 70.9466H36.1764C37.4473 70.9466 38.4811 71.9805 38.4811 73.2513V79.961C38.4811 82.7568 40.7556 85.0313 43.5514 85.0313H51.3208C52.9435 85.0313 54.4282 84.2836 55.3943 82.9801C56.3604 81.6766 56.6439 80.0384 56.1719 78.486L50.6365 60.2812V56.8618H60.9917C62.558 56.8618 64.0115 56.1554 64.979 54.9235C65.9466 53.6917 66.2888 52.1125 65.9177 50.5907L60.9403 30.1693C60.2319 26.3482 56.906 23.5793 53.0154 23.5793H30.1091C25.6648 23.5793 22.0492 27.1949 22.0492 31.6393V56.4435H17.7724V21.6072C17.7724 20.3364 18.8062 19.3025 20.0771 19.3025H58.2874C60.8279 19.3025 63.0155 21.114 63.4891 23.61C63.4955 23.6436 63.5034 23.6773 63.5121 23.7107L64.635 27.8944C64.8329 28.6319 65.5912 29.0695 66.3289 28.8716C67.0666 28.6736 67.5041 27.9151 67.3061 27.1776L66.1959 23.0414C65.4543 19.2691 62.1369 16.5371 58.2874 16.5371H20.0768C17.281 16.5371 15.0065 18.8116 15.0065 21.6074V56.4435H11.6944C5.75434 56.4435 0.921875 61.2759 0.921875 67.216V89.3505C0.921875 90.6153 1.38857 91.7727 2.15742 92.6619C2.19752 92.7133 2.24085 92.7619 2.28763 92.8071C3.21366 93.799 4.53148 94.4208 5.99242 94.4208H8.31278C9.43493 98.4761 13.1558 101.463 17.5633 101.463C21.9708 101.463 25.6915 98.4761 26.8139 94.4208H67.7083C69.5836 98.5683 73.7574 101.463 78.5972 101.463C83.4371 101.463 87.6108 98.5685 89.4862 94.4208H115.696C116.459 94.4208 117.078 93.8015 117.078 93.038C117.078 88.3924 113.299 84.6127 108.653 84.6127L108.653 84.613ZM24.8146 31.6393C24.8146 28.7199 27.1896 26.3449 30.1089 26.3449H53.0152C55.5805 26.3449 57.7721 28.1774 58.2261 30.7024C58.2309 30.7301 58.2369 30.7577 58.2436 30.7851L63.2307 51.2457C63.3992 51.9373 63.2439 52.6553 62.8039 53.2151C62.3639 53.7749 61.7034 54.0961 60.9915 54.0961H46.6667L48.1843 50.0092C48.4501 49.2934 48.0852 48.4974 47.3692 48.2316C46.6533 47.9661 45.8573 48.3307 45.5916 49.0468L41.9734 58.791C41.327 60.4594 43.9557 61.4502 44.5662 59.7537L45.64 56.862H47.8711V60.487C47.8711 60.6232 47.8912 60.759 47.9308 60.8894L53.5259 79.2908C53.7405 79.9964 53.6116 80.7409 53.1726 81.3334C52.7333 81.9259 52.0585 82.2656 51.321 82.2656H43.5517C42.2809 82.2656 41.247 81.2318 41.247 79.961V73.2513C41.247 70.4555 38.9725 68.181 36.1767 68.181H31.9022V57.3605C31.9022 53.1609 28.8296 49.6654 24.8148 49.0032L24.8146 31.6393ZM83.9618 24.2094H87.3168C87.571 24.2094 87.7777 24.4161 87.7777 24.6704V81.8828C86.624 80.4979 85.1628 79.3793 83.5009 78.6279V24.6701C83.5009 24.4159 83.7076 24.2094 83.9618 24.2094ZM80.7353 47.8202V77.2131L74.8929 55.4453L80.7353 47.8202ZM11.6944 59.2091H15.0065V65.8761C15.0065 67.1469 13.9726 68.1808 12.7018 68.1808H3.6875V67.216C3.6875 62.8009 7.27936 59.2091 11.6944 59.2091ZM4.64832 91.2191C4.98619 84.3908 10.658 78.9321 17.5631 78.9321C24.6237 78.9321 30.3774 84.6208 30.4899 91.6552H27.1566C27.0446 86.4588 22.7858 82.2654 17.5631 82.2654C12.3404 82.2654 8.08162 86.459 7.96961 91.6552H5.99219C5.49046 91.6552 5.02722 91.4922 4.64832 91.2191ZM17.5631 98.6976C13.7952 98.6976 10.7299 95.6321 10.7299 91.8644C10.7299 88.0967 13.7954 85.0313 17.5631 85.0313C21.3308 85.0313 24.3963 88.0967 24.3963 91.8644C24.3963 95.6321 21.3308 98.6976 17.5631 98.6976ZM63.428 91.6552C63.3296 90.9488 63.275 90.2339 63.275 89.5169C63.275 81.5913 69.2819 75.0312 77.0819 74.2691L77.9724 77.5869C71.6744 77.913 66.6509 83.1391 66.6509 89.5169C66.6509 90.247 66.7202 90.961 66.8463 91.6552H63.428ZM78.597 98.6976C74.6557 98.6976 71.2874 96.2009 69.9885 92.7063C69.6239 91.6964 69.4137 90.6418 69.4163 89.5169C69.4163 84.4546 73.5347 80.3362 78.597 80.3362C79.7221 80.3336 80.7765 80.5438 81.7864 80.9084C84.2868 81.8379 86.276 83.8268 87.2055 86.3274C87.9621 88.3155 87.9621 90.7183 87.2055 92.7063C85.9065 96.2009 82.5382 98.6976 78.597 98.6976ZM90.3479 91.6552C90.6247 90.2788 90.5113 88.7833 90.5433 87.3784H108.653C111.297 87.3784 113.523 89.2007 114.142 91.6552H90.3479Z" fill="#F8991D"/>
<path d="M67.4045 34.261C68.1682 34.261 68.7874 33.6419 68.7874 32.8782C68.7874 32.1145 68.1682 31.4954 67.4045 31.4954C66.6408 31.4954 66.0217 32.1145 66.0217 32.8782C66.0217 33.6419 66.6408 34.261 67.4045 34.261Z" fill="#F8991D"/>
</svg>
