<svg width="113" height="113" viewBox="0 0 113 113" fill="none" xmlns="http://www.w3.org/2000/svg">
<path d="M79.1956 59.3323H111.345V27.1831H79.1956V59.3323Z" stroke="#F8991D" stroke-width="3" stroke-miterlimit="10" stroke-linecap="round" stroke-linejoin="round"/>
<path d="M91.9596 27.1831V43.2578H98.5807V27.1831" stroke="#F8991D" stroke-width="3" stroke-miterlimit="10" stroke-linecap="round" stroke-linejoin="round"/>
<path d="M79.1956 98.1025H111.345V65.9534H79.1956V98.1025Z" stroke="#F8991D" stroke-width="3" stroke-miterlimit="10" stroke-linecap="round" stroke-linejoin="round"/>
<path d="M91.9596 65.9534V82.0278H98.5807V65.9534" stroke="#F8991D" stroke-width="3" stroke-miterlimit="10" stroke-linecap="round" stroke-linejoin="round"/>
<path d="M52.7113 98.1025C52.7113 105.416 46.7825 111.345 39.4691 111.345C32.1556 111.345 26.2269 105.416 26.2269 98.1025C26.2269 90.7891 32.1556 84.8604 39.4691 84.8604C46.7825 84.8604 52.7113 90.7891 52.7113 98.1025Z" stroke="#F8991D" stroke-width="3" stroke-miterlimit="10" stroke-linecap="round" stroke-linejoin="round"/>
<path d="M39.4691 104.724C35.8182 104.724 32.848 101.753 32.848 98.1025C32.848 94.4517 35.8182 91.4814 39.4691 91.4814C43.12 91.4814 46.0902 94.4517 46.0902 98.1025C46.0902 101.753 43.12 104.724 39.4691 104.724Z" stroke="#F8991D" stroke-width="3" stroke-miterlimit="10" stroke-linecap="round" stroke-linejoin="round"/>
<path d="M67.6087 14.8975C67.6087 15.8116 66.8676 16.5527 65.9535 16.5527C65.0393 16.5527 64.2982 15.8116 64.2982 14.8975C64.2982 13.9833 65.0393 13.2422 65.9535 13.2422C66.8676 13.2422 67.6087 13.9833 67.6087 14.8975Z" fill="#F8991D"/>
<path d="M111.345 104.724H59.3323V1.65528H72.5745V104.724" stroke="#F8991D" stroke-width="3" stroke-miterlimit="10" stroke-linecap="round" stroke-linejoin="round"/>
<path d="M59.3324 8.27637H72.5746" stroke="#F8991D" stroke-width="3" stroke-miterlimit="10" stroke-linecap="round" stroke-linejoin="round"/>
<path d="M52.7113 46.0901H8.27646C4.63486 46.0901 1.65536 49.0696 1.65536 52.7112V104.724H28.1397" stroke="#F8991D" stroke-width="3" stroke-miterlimit="10" stroke-linecap="round" stroke-linejoin="round"/>
<path d="M1.65527 98.1025H26.2268" stroke="#F8991D" stroke-width="3" stroke-miterlimit="10" stroke-linecap="round" stroke-linejoin="round"/>
<path d="M52.7113 98.1025V8.27637" stroke="#F8991D" stroke-width="3" stroke-miterlimit="10" stroke-linecap="round" stroke-linejoin="round"/>
<path d="M18.208 46.0901V39.469C18.208 37.6407 16.7258 36.1584 14.8975 36.1584C13.0692 36.1584 11.5869 37.6407 11.5869 39.469V46.0901" stroke="#F8991D" stroke-width="3" stroke-miterlimit="10" stroke-linecap="round" stroke-linejoin="round"/>
<path d="M8.27637 52.7112H18.208" stroke="#F8991D" stroke-width="3" stroke-miterlimit="10" stroke-linecap="round" stroke-linejoin="round"/>
<path d="M8.27637 59.3323H18.208" stroke="#F8991D" stroke-width="3" stroke-miterlimit="10" stroke-linecap="round" stroke-linejoin="round"/>
<path d="M8.27637 65.9534H18.208" stroke="#F8991D" stroke-width="3" stroke-miterlimit="10" stroke-linecap="round" stroke-linejoin="round"/>
</svg>
