<svg width="243" height="49" viewBox="0 0 243 49" xmlns="http://www.w3.org/2000/svg">
	<path d="M29.9116 21.2778C29.3519 20.2835 28.8322 19.2892 28.2725 18.2949C28.1925 18.1359 28.0726 18.0563 27.9127 18.0563C27.5929 18.0165 27.273 17.937 26.9532 17.8972C26.8333 17.8575 26.7533 17.8972 26.6734 18.0165C26.5934 18.1756 26.4735 18.3347 26.3535 18.4938C25.8338 18.1756 25.354 17.8972 24.8743 17.5791C25.1142 17.2211 25.3141 16.8632 25.5539 16.4654C25.5939 16.4257 25.6339 16.3461 25.6339 16.3064C25.6339 16.2268 25.5939 16.1075 25.5939 16.028C25.514 16.0677 25.354 16.0677 25.3141 16.1075C25.0742 16.4654 24.8743 16.8234 24.6344 17.1416C24.5545 17.2211 24.4745 17.3007 24.3546 17.3802C24.3146 17.42 24.2746 17.4597 24.2746 17.4995C24.3546 17.6984 24.2346 17.7779 24.1547 17.937C23.9548 18.2552 23.7949 18.5336 23.595 18.8518C23.515 18.9711 23.4351 19.1302 23.595 19.2097C23.7549 19.2892 23.8349 19.1699 23.9148 19.0506C24.1547 18.6529 24.3946 18.2552 24.6344 17.8575C25.1142 18.1756 25.5939 18.454 26.1136 18.7324C25.9537 18.9711 25.8338 19.1699 25.6739 19.4086C25.9937 19.7665 26.3535 20.1642 26.6734 20.5619C26.9532 20.8801 27.273 21.2381 27.5529 21.5562C27.6328 21.6358 27.6728 21.7153 27.5929 21.8744C27.2331 22.5108 26.9132 23.1471 26.5934 23.7835C26.5534 23.863 26.4735 23.9425 26.3935 23.9425C24.9942 23.9425 23.595 23.9425 22.1957 23.9425C22.1557 23.9425 22.1557 23.9425 22.1158 23.9028C22.1158 23.5448 22.1158 23.2267 22.1158 22.8687C22.1158 22.113 21.756 21.7153 20.9964 21.7153C19.3172 21.7153 17.6381 21.7153 15.959 21.7153H15.6792V10.9372H15.919C18.6776 10.9372 21.4761 10.9372 24.2346 10.9372C24.3946 10.9372 24.4745 11.0167 24.5545 11.136C25.9537 13.8007 27.353 16.4654 28.7523 19.1302C29.192 19.9654 29.6318 20.8006 30.0716 21.596C30.1115 21.6756 30.1515 21.7551 30.1515 21.8744C30.1115 21.6756 30.0316 21.4767 29.9116 21.2778ZM24.1147 26.2493C23.7549 26.2493 23.3951 26.2493 23.0753 26.2493C22.9153 26.2493 22.8354 26.1698 22.8354 26.0107C22.8354 25.2948 22.7954 25.2948 23.555 25.2948H23.8349C24.0747 25.2948 24.3546 25.2948 24.5945 25.2948C24.7544 25.2948 24.8343 25.3346 24.8343 25.5334C24.7943 26.3686 24.9143 26.2095 24.1147 26.2493ZM21.0763 26.2891C21.0763 26.5277 20.8764 26.6868 20.6365 26.6868C20.4766 26.6868 20.3567 26.6868 20.1568 26.6868C20.4766 25.8914 20.7565 25.1357 21.0363 24.38H21.0763C21.0763 25.0164 21.0763 25.6527 21.0763 26.2891ZM19.5971 26.5277C20.0369 25.3743 20.4766 24.1812 20.9564 23.0278C20.9964 22.988 20.9964 22.8687 20.9564 22.8687C20.7965 22.7892 20.6365 22.7494 20.4766 22.7096C20.3167 22.6698 20.3167 22.8289 20.2767 22.9085C19.9569 23.7835 19.5971 24.6584 19.2773 25.5334C19.1173 25.9311 18.9974 26.2891 18.8375 26.7266C19.0374 26.7266 19.1973 26.7266 19.3572 26.7266C19.4772 26.7266 19.5571 26.647 19.5971 26.5277ZM17.958 26.7266C18.1579 26.7266 18.2378 26.6868 18.3178 26.4879C18.5976 25.6925 18.9175 24.8971 19.1973 24.1016C19.3572 23.6244 19.5571 23.1869 19.717 22.6698C19.5171 22.6698 19.3972 22.6698 19.2373 22.6698C19.0774 22.6698 18.9974 22.7096 18.9175 22.8687C18.4777 24.0221 18.0779 25.1357 17.6381 26.2493C17.5981 26.3686 17.5582 26.5277 17.4782 26.6868C17.6781 26.6868 17.838 26.6868 17.958 26.7266ZM16.6786 26.7266C16.8785 26.7266 16.9185 26.647 16.9985 26.4879C17.4382 25.2948 17.918 24.1016 18.3577 22.9085C18.3977 22.8289 18.3977 22.7494 18.4377 22.6698C18.2778 22.6698 18.1579 22.6698 18.0379 22.6698C17.838 22.6301 17.7181 22.7096 17.6781 22.9085C17.3983 23.7039 17.0784 24.4993 16.7586 25.2948C16.5987 25.7323 16.3988 26.2095 16.2389 26.6868C16.3988 26.6868 16.5587 26.6868 16.6786 26.7266ZM15.8391 26.0902C16.2389 25.0562 16.6387 23.9823 17.0384 22.9482C17.0784 22.8687 17.0784 22.7892 17.1184 22.7096C16.9585 22.7096 16.7986 22.7096 16.6786 22.7096C16.4787 22.7096 16.3988 22.7892 16.3588 22.9482C16.1589 23.5051 15.959 24.0619 15.7591 24.5789C15.6792 24.8573 15.5592 25.0959 15.4793 25.3743C15.5592 25.5732 15.7191 25.8118 15.8391 26.0902ZM15.2394 24.1414C15.4393 23.6641 15.5992 23.1869 15.7991 22.6698C15.5992 22.6698 15.4393 22.6698 15.2794 22.6698C15.1594 22.6698 15.0795 22.7096 15.0395 22.8289C14.9196 23.1869 14.7596 23.5051 14.6397 23.863C14.7596 24.1414 14.9196 24.38 15.0395 24.6187C15.1195 24.4596 15.1994 24.3005 15.2394 24.1414ZM14.3199 23.1869C14.2399 23.0278 14.16 22.8289 14.04 22.6698H14.08C14.1999 22.6698 14.3599 22.6698 14.5198 22.6698C14.4398 22.8687 14.3599 23.0278 14.3199 23.1869ZM35.6286 5.64751C35.5886 5.21002 35.2288 4.89185 34.829 4.89185C34.4293 4.89185 34.0694 5.24979 34.0694 5.64751C34.0694 5.76683 34.0694 5.88614 34.0694 5.96568C34.0694 12.2496 34.0694 18.4938 34.0694 24.7778V25.0959C33.3898 25.0959 32.7102 25.0959 32.0705 25.0959C32.0305 25.0959 31.9905 25.0562 31.9506 25.0164C31.9905 24.9766 32.0305 24.9368 32.0705 24.9368C32.2304 24.9368 32.3903 24.9368 32.6302 24.9368C30.4314 20.7608 28.1925 16.5848 25.9937 12.4087C26.1936 12.4485 26.3135 12.4883 26.4735 12.4883V10.4599C25.9138 10.4997 25.5539 10.7383 25.394 11.2951C25.2341 11.0167 25.1142 10.7781 24.9942 10.5394C24.9143 10.3804 24.8343 10.3406 24.6344 10.3406C21.5161 10.3406 18.3977 10.3406 15.2794 10.3406C15.1994 10.3406 15.1195 10.3406 14.9995 10.3406V21.6756C14.4798 21.6756 14.0001 21.6756 13.5203 21.6756C13.4004 21.6756 13.3204 21.6756 13.2405 21.6756C13.2005 21.6756 13.2005 21.6756 13.1605 21.6756C11.0416 21.6756 8.88273 21.6756 6.76384 21.6756C4.64496 21.6756 2.52608 21.6756 0.407208 21.6756C0.0873775 21.6756 -0.0325591 21.7551 0.00741971 22.0733C0.0873775 22.6301 0.127356 23.1471 0.287272 23.6641C0.647082 24.9368 1.36671 25.8914 2.68601 26.2891C2.92588 26.3686 3.00583 26.4482 3.04581 26.647C3.20572 27.2436 3.4456 27.8004 3.80541 28.2777C4.48505 29.1924 5.36458 29.8685 6.52397 29.8685C9.04264 29.9083 11.5613 29.8685 14.04 29.8685C14.2799 29.8685 14.3199 29.8288 14.1999 29.5901C14.0001 29.2322 13.8002 28.8742 13.6402 28.5163C12.9206 28.5163 12.201 28.5163 11.4814 28.5163C10.0821 28.5163 8.72282 28.5163 7.32355 28.4765C5.96428 28.4765 4.88485 27.9197 4.32514 26.6868C4.20521 26.4482 4.08526 26.2095 4.56501 26.2095C7.0437 26.1698 9.52239 26.2095 12.0011 26.1698C12.121 26.1698 12.241 26.1698 12.3209 26.1698C12.121 25.8118 11.9211 25.4141 11.7213 25.0164C11.7213 24.9766 11.6813 24.9368 11.6413 24.8971C9.04265 24.8971 6.48399 24.8971 3.88538 24.9368C2.96586 24.9368 1.76648 24.1414 1.48663 23.3062C1.32672 22.7892 1.32672 22.7892 1.84644 22.7892C5.12471 22.7892 8.36301 22.7892 11.6013 22.7892C11.7612 22.7892 11.9211 22.7892 12.0811 22.7892L13.5203 25.5732V25.6527C14.08 26.8061 14.6797 27.9595 15.2394 29.0731C15.2794 29.1527 15.3194 29.2322 15.3593 29.272C15.7191 28.1584 16.8386 27.3231 18.0379 27.4027C19.5171 27.4822 20.5566 28.6356 20.5966 29.9481H24.9143C24.7544 28.1186 25.3141 26.5675 26.9132 25.5732C28.5524 24.5789 30.1515 24.7778 31.7507 25.772C31.7507 25.6925 31.7906 25.613 31.7906 25.5334H33.9095V31.4992H35.6286C35.6286 31.4196 35.6286 31.3401 35.6286 31.2606C35.6286 22.7892 35.6286 14.3575 35.6286 5.88614C35.6286 5.92591 35.6686 5.76683 35.6286 5.64751Z"/>
	<path d="M6.84375 0V14.3576H9.48235V2.62494H45.4634V24.4994C45.4634 31.2606 42.0252 37.4253 36.3082 40.965L27.4729 45.8967L18.6775 41.0047C15.5991 39.0957 13.1604 36.3912 11.6013 33.289H8.72275C10.4819 37.306 13.4403 40.8059 17.3582 43.232L27.4729 48.8796L37.6275 43.1922C44.184 39.1355 48.062 32.1356 48.062 24.4597V0H6.84375Z" fill="#F79633"/>
	<path d="M31.75 29.2721C31.71 27.9994 30.6705 26.9653 29.3912 27.0051C28.0719 27.0449 27.0724 28.079 27.1124 29.4312C27.1524 30.6641 28.1918 31.6584 29.4712 31.6584C30.7505 31.6186 31.7899 30.5448 31.75 29.2721ZM33.3091 29.4312C33.2292 31.6186 31.3901 33.2891 29.1913 33.1698C27.0324 33.0504 25.4333 31.2209 25.5532 29.0335C25.6732 27.0051 27.5522 25.3347 29.5911 25.454C31.8699 25.5733 33.3891 27.4426 33.3091 29.4312Z"/>
	<path d="M36.0273 6.95996C36.1872 6.95996 36.3071 6.95996 36.467 6.95996C36.467 15.0336 36.467 23.1073 36.467 31.2208C36.587 31.2208 36.6669 31.2208 36.7469 31.2208C38.1461 31.2208 39.5854 31.2208 40.9846 31.2208C41.5444 31.2208 42.1041 31.3401 42.6238 31.4196C42.6638 31.4196 42.7037 31.5389 42.7837 31.5787L42.7437 31.6185C40.5049 31.6185 38.2661 31.6185 36.0273 31.6185C36.0273 23.4255 36.0273 15.2325 36.0273 6.95996Z"/>
	<path d="M21.8377 21.3973C21.8377 21.4769 21.7977 21.5166 21.7977 21.5962C20.4384 21.5962 19.1191 21.5962 17.7199 21.5962C17.52 19.9258 17.3601 18.2156 17.1602 16.5054C17.3601 16.5054 17.52 16.5054 17.7199 16.5054C17.7199 16.3065 17.7599 16.1474 17.7599 15.9883C17.7998 15.7895 17.8798 15.6304 18.1197 15.5906C18.3595 15.5509 18.5195 15.6702 18.5594 15.869C18.6794 16.2667 18.7993 16.6645 18.7993 17.102C18.8393 18.0963 18.7993 19.1303 18.7593 20.1246C18.7593 20.2837 18.7593 20.403 18.7593 20.5621C19.1191 20.5223 19.479 20.4428 19.8388 20.403C20.4784 20.3632 21.1181 20.3235 21.7977 20.3235C21.8777 20.3235 21.9976 20.3632 22.0776 20.3632C22.2775 20.403 22.4774 20.4428 22.5173 20.6814C22.5573 20.9201 22.3974 21.1189 22.2375 21.278C22.1575 21.3973 21.9976 21.3575 21.8377 21.3973Z"/>
	<path d="M30.232 29.3118C30.232 29.7493 29.8722 30.1072 29.4324 30.1072C28.9926 30.1072 28.6328 29.7493 28.6328 29.3118C28.6328 28.8743 29.0326 28.5164 29.4324 28.5164C29.9122 28.5164 30.232 28.8743 30.232 29.3118Z"/>
	<path d="M19.5986 30.1868C19.5986 29.4312 18.959 28.7948 18.1994 28.7948C17.3998 28.8346 16.8001 29.4311 16.8401 30.2664C16.8401 31.022 17.5197 31.6186 18.2393 31.5788C18.9989 31.5788 19.5986 30.9425 19.5986 30.1868ZM20.5181 30.2664C20.4782 31.5788 19.3588 32.5731 18.0395 32.4936C16.7202 32.414 15.7607 31.3004 15.8406 29.988C15.9206 28.755 17.04 27.7607 18.2793 27.8403C19.6386 27.9596 20.5581 29.0732 20.5181 30.2664Z"/>
	<path d="M18.6782 30.2266C18.6782 30.505 18.4784 30.7039 18.1985 30.7039C17.9187 30.7039 17.7188 30.4652 17.7188 30.2266C17.7188 29.988 17.9586 29.7493 18.1985 29.7493C18.4784 29.7096 18.6782 29.9482 18.6782 30.2266Z"/>
	<path d="M68.384 33.3038C65.6453 33.3038 63.3833 32.3938 61.598 30.5738C59.8126 28.7538 58.92 26.5091 58.92 23.8398C58.92 21.1531 59.8126 18.9085 61.598 17.1058C63.3833 15.2858 65.6453 14.3758 68.384 14.3758C70.0306 14.3758 71.5473 14.7658 72.934 15.5458C74.338 16.3085 75.43 17.3485 76.21 18.6658L73.116 20.4598C72.6653 19.6451 72.024 19.0125 71.192 18.5618C70.36 18.0938 69.424 17.8598 68.384 17.8598C66.616 17.8598 65.186 18.4145 64.094 19.5238C63.0193 20.6331 62.482 22.0718 62.482 23.8398C62.482 25.5905 63.0193 27.0205 64.094 28.1298C65.186 29.2391 66.616 29.7938 68.384 29.7938C69.424 29.7938 70.36 29.5685 71.192 29.1178C72.0413 28.6498 72.6826 28.0171 73.116 27.2198L76.21 29.0138C75.43 30.3311 74.3466 31.3798 72.96 32.1598C71.5733 32.9225 70.048 33.3038 68.384 33.3038ZM92.0121 14.7398V32.9398H88.4241V18.1718H82.0021V32.9398H78.4141V14.7398H92.0121ZM98.9884 29.5078H106.658V32.9398H95.4004V14.7398H106.528V18.1718H98.9884V22.0458H105.878V25.4258H98.9884V29.5078ZM122.785 29.5078H124.735V36.4238H121.147V32.9398H109.187V14.7398H112.775V29.5078H119.197V14.7398H122.785V29.5078ZM144.949 14.7398V32.9398H141.387V21.1358L136.265 29.5858H135.849L130.727 21.1618V32.9398H127.139V14.7398H130.831L136.057 23.3458L141.257 14.7398H144.949ZM160.04 32.9398L158.948 29.6638H151.694L150.602 32.9398H146.728L153.098 14.7398H157.544L163.94 32.9398H160.04ZM152.838 26.3098H157.83L155.334 18.8738L152.838 26.3098ZM183.257 14.7398H186.845V32.9398H165.707V14.7398H169.295V29.5078H174.495V14.7398H178.057V29.5078H183.257V14.7398ZM200.764 32.9398V21.8378L192.964 32.9398H190.234V14.7398H193.822V25.8678L201.622 14.7398H204.352V32.9398H200.764ZM218.077 14.7398H221.639V32.9398H218.077V25.3998H211.317V32.9398H207.729V14.7398H211.317V21.9678H218.077V14.7398ZM236.72 32.9398L235.628 29.6638H228.374L227.282 32.9398H223.408L229.778 14.7398H234.224L240.62 32.9398H236.72ZM229.518 26.3098H234.51L232.014 18.8738L229.518 26.3098Z"/>
</svg>
