<svg width="101" height="101" viewBox="0 0 101 101" fill="none" xmlns="http://www.w3.org/2000/svg">
<path d="M28.1089 58.75C29.2337 58.75 30.3332 58.4092 31.2795 57.7529L56.9235 40.0011C59.3953 38.289 60.0738 34.955 58.4692 32.4122C57.6659 31.1413 56.4163 30.261 54.9487 29.9364C53.4841 29.6088 51.9748 29.8786 50.709 30.693L24.4808 47.5665C23.2079 48.3851 22.3387 49.6509 22.0313 51.1317C21.723 52.6116 22.0151 54.1198 22.8519 55.3745L23.4381 56.2548C24.278 57.5146 25.559 58.3645 27.0459 58.6485C27.4009 58.7165 27.7559 58.75 28.1089 58.75ZM26.3897 54.2912L25.8034 53.4088C25.4951 52.9483 25.3876 52.3965 25.5022 51.8549C25.6148 51.3113 25.9333 50.8477 26.3978 50.5475L52.627 33.674C52.9627 33.459 53.3441 33.3484 53.7336 33.3484C53.8817 33.3484 54.0328 33.3636 54.1819 33.3971C54.7184 33.5158 55.1769 33.8393 55.471 34.3049C56.0593 35.237 55.8108 36.4592 54.9051 37.086L29.2621 54.8379C28.8047 55.1554 28.2549 55.269 27.7113 55.1665C27.1656 55.0621 26.696 54.7517 26.3897 54.2912Z" fill="#F8991D"/>
<path d="M97.4539 65.861C97.4539 58.2823 86.6793 43.4779 83.2733 38.9867V25.2331C83.2733 21.7845 80.9811 18.8939 77.852 17.9161V11.6621C77.852 8.14354 74.9887 5.28125 71.4712 5.28125H61.085C57.5675 5.28125 54.7042 8.14354 54.7042 11.6621V17.5327H53.6849C52.1442 17.5327 50.6552 17.9871 49.3793 18.8492L16.5928 40.9605C12.8389 43.4921 10.5984 47.7074 10.5984 52.2341V89.2684C10.5984 95.7375 15.8605 101 22.3295 101H71.5422C78.0113 101 83.2744 95.7375 83.2744 89.2684V82.1573C91.2729 81.0356 97.4539 74.1648 97.4539 65.861ZM58.2501 11.6621C58.2501 10.0991 59.522 8.82615 61.085 8.82615H71.4712C73.0342 8.82615 74.3061 10.0991 74.3061 11.6621V17.5327H58.2501V11.6621ZM71.5422 97.4547H22.3285C17.814 97.4547 14.1423 93.782 14.1423 89.2684V52.2341C14.1423 48.887 15.7996 45.7712 18.5757 43.8988L51.3632 21.7866C52.0509 21.3231 52.8532 21.0766 53.6849 21.0766H75.574C77.8632 21.0766 79.7284 22.9418 79.7284 25.2321V37.7046C79.6838 37.7493 79.6219 37.7675 79.5824 37.8172C78.0387 39.794 64.5052 57.3765 64.5052 65.861C64.5052 74.5229 71.2288 81.6289 79.7284 82.273V89.2694C79.7284 93.782 76.0568 97.4547 71.5422 97.4547ZM80.9801 78.791C73.8517 78.791 68.0511 72.9903 68.0511 65.861C68.0511 60.3311 76.3945 47.9894 80.9801 41.8338C85.5676 47.9884 93.909 60.3271 93.909 65.861C93.909 72.9903 88.1074 78.791 80.9801 78.791Z" fill="#F8991D"/>
<path d="M26.0295 25.6136C29.5835 25.6136 32.4762 22.7219 32.4762 19.1668C32.4762 16.2062 28.6108 11.0252 27.4262 9.50787C26.7547 8.64777 25.3043 8.64777 24.6328 9.50787C23.4482 11.0252 19.5828 16.2062 19.5828 19.1668C19.5838 22.7219 22.4755 25.6136 26.0295 25.6136ZM26.0295 13.5964C27.5966 15.8633 28.9314 18.254 28.9314 19.1668C28.9314 20.7663 27.629 22.0687 26.0295 22.0687C24.431 22.0687 23.1287 20.7663 23.1287 19.1668C23.1287 18.256 24.4624 15.8643 26.0295 13.5964Z" fill="#F8991D"/>
<path d="M16.5228 10.304C16.5228 7.34336 12.6573 2.16244 11.4727 0.64508C10.8012 -0.215027 9.35081 -0.215027 8.67936 0.64508C7.49468 2.16244 3.62927 7.34336 3.62927 10.304C3.62927 13.8591 6.52199 16.7508 10.076 16.7508C13.63 16.7508 16.5228 13.8591 16.5228 10.304ZM10.077 13.2059C8.47752 13.2059 7.17518 11.9036 7.17518 10.304C7.17518 9.39322 8.50997 7.00155 10.077 4.73262C11.6431 7.00054 12.9779 9.39119 12.9779 10.304C12.9779 11.9046 11.6765 13.2059 10.077 13.2059Z" fill="#F8991D"/>
<path d="M88.5911 62.8892C87.6114 62.8892 86.8182 63.6833 86.8182 64.6621C86.8182 68.0823 84.035 70.8664 80.6139 70.8664C79.6341 70.8664 78.8419 71.6596 78.8419 72.6384C78.8419 73.6172 79.6341 74.4113 80.6139 74.4113C85.9895 74.4113 90.3631 70.0378 90.3631 64.6621C90.3631 63.6833 89.5709 62.8892 88.5911 62.8892Z" fill="#F8991D"/>
<path d="M65.5478 85.0471H28.3228C27.3431 85.0471 26.5509 85.8403 26.5509 86.8191C26.5509 87.7978 27.3431 88.592 28.3228 88.592H65.5478C66.5276 88.592 67.3198 87.7978 67.3198 86.8191C67.3198 85.8403 66.5276 85.0471 65.5478 85.0471Z" fill="#F8991D"/>
</svg>
