<svg width="50" height="50" viewBox="0 0 50 50" xmlns="http://www.w3.org/2000/svg">
<path d="M35.0011 33.8C32.7887 35.3961 30.0904 36.1737 27.3678 36H21.0345V46.6667H14.7011V16.6667H27.7678C30.3681 16.5288 32.929 17.3469 34.9678 18.9667C35.9191 19.8878 36.6546 21.0081 37.1214 22.2472C37.5883 23.4864 37.7749 24.8135 37.6678 26.1333C37.8393 27.5301 37.688 28.9475 37.2257 30.2767C36.7634 31.6058 36.0024 32.8112 35.0011 33.8ZM30.0011 23C29.0379 22.2937 27.8608 21.9406 26.6678 22H21.0345V30.8333H26.6678C27.8719 30.8971 29.0577 30.5176 30.0011 29.7667C30.423 29.3257 30.7477 28.8013 30.9544 28.2272C31.1611 27.653 31.2451 27.042 31.2011 26.4333C31.2787 25.8073 31.2108 25.1718 31.0027 24.5763C30.7945 23.9808 30.4518 23.4414 30.0011 23ZM48.0345 14.0333C48.217 13.6351 48.2355 13.181 48.0857 12.7692C47.936 12.3575 47.6302 12.0213 47.2345 11.8333L25.0011 1.5L2.63448 11.8333C2.4353 11.9253 2.25619 12.0555 2.10736 12.2167C1.95852 12.3778 1.84289 12.5667 1.76706 12.7725C1.69122 12.9784 1.65667 13.1971 1.66538 13.4163C1.67409 13.6355 1.72588 13.8508 1.81781 14.05C1.90973 14.2492 2.03999 14.4283 2.20114 14.5771C2.36228 14.726 2.55117 14.8416 2.757 14.9174C2.96284 14.9933 3.1816 15.0278 3.40079 15.0191C3.61998 15.0104 3.8353 14.9586 4.03448 14.8667L25.0011 5.16667L45.9678 14.8333C46.3661 15.0159 46.8202 15.0343 47.2319 14.8846C47.6436 14.7349 47.9799 14.4291 48.1678 14.0333H48.0345Z"/>
</svg>
