<svg width="50" height="50" viewBox="0 0 50 50" xmlns="http://www.w3.org/2000/svg">
<path d="M27.3438 35.1562C27.3438 35.6198 27.2063 36.0729 26.9488 36.4584C26.6912 36.8438 26.3252 37.1442 25.8969 37.3216C25.4687 37.499 24.9974 37.5454 24.5428 37.455C24.0881 37.3645 23.6705 37.1413 23.3427 36.8135C23.0149 36.4857 22.7917 36.0681 22.7013 35.6135C22.6109 35.1588 22.6573 34.6876 22.8347 34.2593C23.0121 33.8311 23.3125 33.465 23.6979 33.2075C24.0833 32.95 24.5365 32.8125 25 32.8125C25.6216 32.8125 26.2177 33.0594 26.6573 33.499C27.0968 33.9385 27.3438 34.5346 27.3438 35.1562ZM25 14.0625C20.6914 14.0625 17.1875 17.2168 17.1875 21.0937V21.875C17.1875 22.2894 17.3521 22.6868 17.6452 22.9799C17.9382 23.2729 18.3356 23.4375 18.75 23.4375C19.1644 23.4375 19.5618 23.2729 19.8549 22.9799C20.1479 22.6868 20.3125 22.2894 20.3125 21.875V21.0937C20.3125 18.9453 22.416 17.1875 25 17.1875C27.584 17.1875 29.6875 18.9453 29.6875 21.0937C29.6875 23.2422 27.584 25 25 25C24.5856 25 24.1882 25.1646 23.8952 25.4576C23.6021 25.7507 23.4375 26.1481 23.4375 26.5625V28.125C23.4375 28.5394 23.6021 28.9368 23.8952 29.2299C24.1882 29.5229 24.5856 29.6875 25 29.6875C25.4144 29.6875 25.8118 29.5229 26.1049 29.2299C26.3979 28.9368 26.5625 28.5394 26.5625 28.125V27.9844C30.125 27.3301 32.8125 24.4883 32.8125 21.0937C32.8125 17.2168 29.3086 14.0625 25 14.0625ZM45.3125 25C45.3125 29.0174 44.1212 32.9446 41.8892 36.285C39.6573 39.6254 36.4849 42.2289 32.7733 43.7663C29.0616 45.3037 24.9775 45.706 21.0372 44.9222C17.097 44.1384 13.4777 42.2039 10.6369 39.3631C7.79615 36.5223 5.86157 32.903 5.07781 28.9628C4.29405 25.0225 4.6963 20.9384 6.23371 17.2267C7.77111 13.5151 10.3746 10.3427 13.715 8.11077C17.0554 5.87881 20.9826 4.6875 25 4.6875C30.3855 4.69319 35.5487 6.83507 39.3568 10.6432C43.1649 14.4513 45.3068 19.6145 45.3125 25ZM42.1875 25C42.1875 21.6006 41.1795 18.2776 39.2909 15.4511C37.4023 12.6247 34.718 10.4217 31.5774 9.12082C28.4368 7.81994 24.9809 7.47957 21.6469 8.14275C18.3128 8.80594 15.2503 10.4429 12.8466 12.8466C10.4429 15.2503 8.80594 18.3128 8.14276 21.6469C7.47958 24.9809 7.81995 28.4368 9.12083 31.5774C10.4217 34.718 12.6247 37.4023 15.4511 39.2909C18.2776 41.1795 21.6006 42.1875 25 42.1875C29.5568 42.1823 33.9255 40.3698 37.1477 37.1477C40.3699 33.9255 42.1823 29.5568 42.1875 25Z"/>
</svg>
