<svg width="100" height="100" viewBox="0 0 100 100"  xmlns="http://www.w3.org/2000/svg">
<path d="M66.668 45.9417V12.5H75.0013V37.5C71.0805 39.9958 68.7513 42.4667 66.668 45.9417ZM90.3555 67.7833L77.6846 65.6708C76.1305 65.4125 75.0013 64.0792 75.0013 62.5042C75.0013 60.2083 76.868 58.3375 79.168 58.3375H87.5013C89.8013 58.3375 91.668 60.2083 91.668 62.5042H100.001C100.001 55.6125 94.393 50.0042 87.5013 50.0042V41.6708H79.168V50.0042C72.2763 50.0042 66.668 55.6125 66.668 62.5042C66.668 68.1708 70.7263 72.9625 76.3138 73.8917L88.9846 76.0042C90.5388 76.2625 91.668 77.5958 91.668 79.1708C91.668 81.4667 89.8013 83.3375 87.5013 83.3375H79.168C76.868 83.3375 75.0013 81.4667 75.0013 79.1708H66.668C66.668 86.0625 72.2763 91.6708 79.168 91.6708V100.004H87.5013V91.6708C94.393 91.6708 100.001 86.0625 100.001 79.1708C100.001 73.5042 95.943 68.7125 90.3555 67.7833ZM25.0013 100.004H33.3346V37.5042H25.0013V100.004ZM4.16797 100.004H12.5013V50.0042H4.16797V100.004ZM45.8346 100.004H54.168V25H45.8346V100.004ZM95.8346 0H87.5013V33.3333H95.8346V0Z"/>
</svg>
