<svg width="217" height="222" viewBox="0 0 217 222" xmlns="http://www.w3.org/2000/svg">
<path d="M134.696 96.4556C132.248 91.9512 129.801 87.4537 127.388 82.9333C127.009 82.2358 126.537 81.9014 125.768 81.7877C124.331 81.5774 122.906 81.2936 121.493 81.004C120.93 80.8891 120.562 80.9856 120.264 81.5119C119.861 82.2163 119.39 82.8758 118.873 83.6629C116.609 82.276 114.449 80.9477 112.186 79.5619C113.208 77.8739 114.208 76.2227 115.208 74.5704C115.357 74.3291 115.621 74.0924 115.633 73.8476C115.644 73.4144 115.495 72.9766 115.426 72.5411C115.001 72.679 114.392 72.6894 114.196 72.9789C113.139 74.529 112.22 76.1676 111.197 77.7337C110.91 78.1601 110.405 78.4335 110.025 78.8012C109.864 78.9598 109.589 79.2563 109.646 79.3562C110.048 80.1882 109.405 80.6777 109.072 81.2476C108.233 82.646 107.371 84.0226 106.521 85.4095C106.164 85.976 105.808 86.6184 106.578 87.0562C107.256 87.4353 107.658 86.9424 108.003 86.3656C109.06 84.5788 110.163 82.8138 111.289 80.9684C113.53 82.3335 115.69 83.6549 117.965 85.043C117.322 86.0634 116.713 87.0355 116.035 88.103C117.517 89.8001 119.011 91.526 120.505 93.2462C121.838 94.7676 123.148 96.2958 124.515 97.7885C124.929 98.2423 125.032 98.5825 124.71 99.1688C123.159 102.068 121.677 105.005 120.126 107.904C119.965 108.204 119.517 108.538 119.206 108.538C112.875 108.566 106.532 108.546 100.189 108.532C100.097 108.532 99.9938 108.481 99.7525 108.413V103.804C99.7525 100.36 98.0518 98.6353 94.6161 98.633C87.0437 98.6296 79.46 98.633 71.8876 98.633H70.6925V49.5149H71.8186C84.3434 49.5149 96.8798 49.523 109.416 49.4954C110.209 49.4942 110.577 49.7746 110.933 50.4526C117.253 62.5511 123.596 74.6359 129.927 86.7229C131.892 90.4781 133.868 94.2298 135.845 97.985C136.029 98.3458 136.19 98.7181 136.201 99.1698C135.696 98.2653 135.19 97.3645 134.696 96.4556ZM108.555 118.959C106.957 118.988 105.372 118.937 103.786 118.974C103.004 118.992 102.729 118.71 102.717 117.927C102.648 114.672 102.625 114.673 105.9 114.673H107.176C108.302 114.675 109.439 114.702 110.565 114.665C111.324 114.641 111.669 114.913 111.646 115.704C111.565 119.638 112.186 118.894 108.555 118.959ZM94.8575 119.182C94.8345 120.256 93.9726 120.956 92.881 121.037C92.2145 121.086 91.5481 121.046 90.6634 121.046C92.0422 117.421 93.3522 113.965 94.6621 110.509L94.8803 110.562C94.8803 113.436 94.9264 116.311 94.8575 119.182ZM88.2043 120.266C87.986 120.847 87.7102 121.119 87.0668 121.07C86.3658 121.017 85.6649 121.058 84.7456 121.058C85.481 119.115 86.136 117.372 86.791 115.63C88.2963 111.671 89.79 107.709 91.2953 103.75C91.4561 103.31 91.5021 102.676 92.2146 102.847C92.9385 103.023 93.6394 103.281 94.3288 103.567C94.3978 103.596 94.3404 104.086 94.2484 104.327C92.2376 109.641 90.2037 114.948 88.2043 120.266ZM80.7929 121.071C80.2069 121.015 79.6093 121.06 78.8509 121.06C79.1267 120.308 79.345 119.722 79.5633 119.14C81.4937 114.012 83.4472 108.893 85.3432 103.752C85.6074 103.026 85.9521 102.748 86.7105 102.819C87.3654 102.881 88.0319 102.832 88.8592 102.832C88.0204 105.073 87.2276 107.18 86.4347 109.286C85.0788 112.858 83.6999 116.414 82.413 120.007C82.0912 120.882 81.6432 121.154 80.7929 121.071ZM75.036 121.071C74.4155 120.994 73.7719 121.056 72.9101 121.056C73.7605 118.827 74.5304 116.786 75.3003 114.745C76.6677 111.142 78.0581 107.55 79.3566 103.925C79.6783 103.028 80.1149 102.693 81.0456 102.818C81.5972 102.894 82.1717 102.832 82.8841 102.832C82.7577 103.248 82.6773 103.572 82.5624 103.882C80.5285 109.27 78.4717 114.652 76.4609 120.051C76.1966 120.78 75.8749 121.173 75.036 121.071ZM71.221 118.266C70.6006 117.095 69.9801 115.923 69.3596 114.757C69.8077 113.58 70.2444 112.412 70.6925 111.247C71.6233 108.773 72.5769 106.303 73.4847 103.816C73.749 103.087 74.0822 102.71 74.921 102.817C75.5415 102.896 76.185 102.833 76.9664 102.833C76.8285 103.282 76.7367 103.642 76.6103 103.986C74.8062 108.745 72.9906 113.496 71.221 118.266ZM68.6126 109.44C68.3254 110.205 68.0381 110.971 67.7508 111.735C67.1303 110.577 66.5099 109.417 65.9008 108.253C66.4869 106.697 67.0844 105.143 67.6705 103.585C67.8658 103.056 68.0957 102.766 68.7162 102.818C69.4516 102.879 70.1869 102.832 71.1177 102.832C70.2329 105.159 69.4285 107.298 68.6126 109.44ZM64.3151 105.177C63.913 104.404 63.5224 103.627 63.1317 102.85L63.2236 102.835C63.8211 102.819 64.4186 102.833 65.1999 102.833C64.9012 103.625 64.6024 104.396 64.3151 105.177ZM160.55 25.5235C160.435 23.5678 158.803 22.0556 156.907 22.1108C155.023 22.1659 153.552 23.6758 153.495 25.6269C153.483 26.1222 153.483 26.6186 153.483 27.1138V113.937C150.358 113.937 147.382 113.945 144.417 113.919C144.21 113.918 144.015 113.666 143.82 113.531C144.003 113.422 144.187 113.228 144.383 113.218C145.141 113.182 145.911 113.203 146.876 113.203C136.868 94.1873 126.951 75.3253 116.966 56.3404C117.816 56.5081 118.482 56.6391 119.183 56.7782V47.5994C116.724 47.7649 115.116 48.9576 114.403 51.458C113.748 50.2273 113.139 49.1897 112.645 48.1016C112.312 47.396 111.898 47.1524 111.106 47.1547C97.0522 47.1811 82.999 47.1743 68.9344 47.1743H67.705V98.6319C65.4298 98.6319 63.2696 98.633 61.1208 98.6319C60.6497 98.6319 60.2245 98.6675 59.8224 98.7204C59.6845 98.7077 59.5695 98.6813 59.4201 98.6824C49.8024 98.7295 40.1962 98.7089 30.5785 98.7089V98.6974C21.0067 98.6974 11.4465 98.7273 1.88624 98.6664C0.415431 98.6572 -0.182057 98.9958 0.047757 100.551C0.403969 102.994 0.622252 105.452 1.30021 107.848C2.93188 113.611 6.17229 117.902 12.1015 119.663C13.1242 119.966 13.4918 120.453 13.7446 121.353C14.4685 123.992 15.5256 126.496 17.2033 128.678C20.3173 132.753 24.2012 135.857 29.5214 135.941C40.8397 136.118 52.1695 135.993 63.4878 136.015C64.545 136.016 64.7863 135.756 64.2463 134.779C63.3615 133.174 62.5227 131.548 61.6723 129.925C58.4435 129.913 55.226 129.893 51.9971 129.868C45.7347 129.822 39.4723 129.816 33.1984 129.722C27.0049 129.632 22.2477 127.2 19.6853 121.626C19.1797 120.536 18.6166 119.466 20.7654 119.45C31.9688 119.361 43.1722 119.469 54.3756 119.357C54.8812 119.352 55.3869 119.354 55.8925 119.352L55.8695 119.307C54.9158 117.607 54.054 115.852 53.2037 114.1C53.1118 113.915 53.0084 113.768 52.9049 113.623C41.2419 113.634 29.5903 113.527 17.9387 113.718C13.7676 113.787 8.4014 110.116 7.13743 106.304C6.39053 104.04 6.41354 103.875 8.74615 103.875C23.4427 103.872 38.1393 103.87 52.8359 103.868H54.9273L61.477 116.567L61.5345 116.847C64.1084 122.04 66.6938 127.226 69.2562 132.424C69.417 132.747 69.5665 133.071 69.7273 133.393C71.3705 128.353 76.4378 124.64 81.8614 124.972C88.549 125.382 93.1912 130.611 93.4785 136.562H112.887C112.14 128.183 114.691 121.245 121.953 116.737C129.272 112.195 136.638 113.152 143.727 117.646C143.796 117.198 143.842 116.862 143.888 116.545H153.518V143.618H160.55V142.475C160.561 104.128 160.561 65.7811 160.561 27.4344C160.561 26.7978 160.584 26.1589 160.55 25.5235Z" />
<path d="M30.5781 0V65.0638H42.4136V11.8389H204.674V110.932C204.674 141.586 189.15 169.583 163.388 185.679L123.538 208L83.941 185.824C69.9798 177.105 59.075 164.98 51.9393 150.892H38.8744C46.8144 169.174 60.1897 184.945 77.9084 196.01L123.538 221.567L169.42 195.865C198.906 177.447 216.509 145.695 216.509 110.932V0H30.5781Z" fill="#F7931D"/>
<path d="M143.05 132.726C142.935 126.933 138.121 122.254 132.433 122.396C126.481 122.543 121.988 127.307 122.126 133.322C122.252 138.9 127.078 143.464 132.766 143.381C138.488 143.299 143.165 138.447 143.05 132.726ZM150.071 133.419C149.726 143.358 141.396 150.916 131.537 150.366C121.781 149.822 114.553 141.498 115.128 131.558C115.645 122.342 124.171 114.822 133.352 115.384C143.487 116.006 150.358 124.311 150.071 133.419Z" />
<path d="M162.285 31.625H164.216V141.663H165.468C171.846 141.663 178.211 141.58 184.589 141.705C187.082 141.753 189.564 142.249 192.046 142.602C192.299 142.639 192.494 143.097 192.713 143.359L192.529 143.604H162.285V31.625Z" />
<path d="M98.3621 96.9633C98.3161 97.2368 98.2702 97.5356 98.2127 97.8665H79.9081C79.0578 90.1999 78.2075 82.5494 77.3457 74.7714H79.8391C79.9195 73.9279 79.9426 73.1925 80.0575 72.4732C80.2069 71.5827 80.609 70.8668 81.6317 70.722C82.6544 70.5761 83.3553 71.146 83.5851 71.9952C84.0677 73.8303 84.6193 75.7079 84.6768 77.5797C84.7802 82.138 84.6192 86.7033 84.5733 91.2651C84.5618 91.8982 84.5733 92.5302 84.5733 93.2806C86.2049 93.0324 87.8136 92.6807 89.4453 92.5635C92.3639 92.3533 95.2941 92.274 98.2242 92.1671C98.6379 92.1522 99.063 92.2613 99.4767 92.3717C100.327 92.6038 101.292 92.8094 101.488 93.8471C101.706 95.0157 101.005 95.9246 100.201 96.6037C99.8099 96.93 99.0745 96.8415 98.3621 96.9633Z" />
<path d="M136.166 132.951C136.143 134.932 134.534 136.513 132.558 136.494C130.535 136.474 128.915 134.823 128.938 132.812C128.961 130.879 130.65 129.244 132.581 129.266C134.626 129.289 136.189 130.892 136.166 132.951Z" />
<path d="M88.1799 136.807C88.0995 133.323 85.2154 130.51 81.7911 130.594C78.206 130.683 75.5057 133.549 75.5861 137.166C75.6666 140.52 78.5737 143.264 81.9864 143.215C85.4336 143.165 88.2488 140.248 88.1799 136.807ZM92.397 137.224C92.1902 143.201 87.1802 147.746 81.251 147.416C75.3792 147.088 71.0358 142.083 71.3805 136.105C71.6908 130.562 76.8156 126.039 82.3427 126.378C88.4327 126.752 92.5694 131.747 92.397 137.224Z" />
<path d="M84.0331 136.943C84.0216 138.134 83.0563 139.085 81.8613 139.074C80.6548 139.061 79.6781 138.069 79.6896 136.858C79.701 135.697 80.7123 134.713 81.8843 134.727C83.1138 134.741 84.0446 135.705 84.0331 136.943Z" />
</svg>
