<svg xmlns="http://www.w3.org/2000/svg"><symbol id="icon-bars" viewBox="0 0 448 512"><title>bars</title><!--! Font Awesome Pro 6.4.2 by @fontawesome - https://fontawesome.com License - https://fontawesome.com/license (Commercial License) Copyright 2023 Fonticons, Inc.--><path d="M0 88c0-13.3 10.7-24 24-24h400c13.3 0 24 10.7 24 24s-10.7 24-24 24H24c-13.3 0-24-10.7-24-24zm0 160c0-13.3 10.7-24 24-24h400c13.3 0 24 10.7 24 24s-10.7 24-24 24H24c-13.3 0-24-10.7-24-24zm448 160c0 13.3-10.7 24-24 24H24c-13.3 0-24-10.7-24-24s10.7-24 24-24h400c13.3 0 24 10.7 24 24z"/></symbol><symbol fill="none" id="icon-brake-disc" viewBox="0 0 102 102"><title>brake-disc</title><path d="M51 1.594C23.756 1.594 1.594 23.756 1.594 51S23.756 100.406 51 100.406 100.406 78.244 100.406 51 78.244 1.594 51 1.594ZM95.231 37.6 77.954 48.233c-.63-6.182-3.362-11.742-7.448-15.99l5.376-20.16c9.162 5.877 16.124 14.89 19.35 25.518ZM51 74.906c-13.182 0-23.906-10.724-23.906-23.906 0-13.182 10.724-23.906 23.906-23.906 13.182 0 23.906 10.724 23.906 23.906 0 13.182-10.724 23.906-23.906 23.906Zm22.038-64.523-5.184 19.44a26.933 26.933 0 0 0-15.934-5.87L40.824 5.924A46.164 46.164 0 0 1 51 4.781a45.92 45.92 0 0 1 22.038 5.602ZM37.601 6.77l10.632 17.277c-6.182.63-11.742 3.362-15.99 7.448l-20.16-5.376C17.96 16.956 26.972 9.994 37.6 6.768ZM10.383 28.962l19.44 5.184a26.933 26.933 0 0 0-5.87 15.934L5.924 61.176A46.164 46.164 0 0 1 4.781 51a45.92 45.92 0 0 1 5.602-22.038ZM6.77 64.399l17.277-10.632c.63 6.182 3.362 11.742 7.448 15.99l-5.376 20.16C16.956 84.04 9.994 75.028 6.768 64.4Zm22.193 27.218 5.184-19.44a26.933 26.933 0 0 0 15.934 5.87l11.095 18.029A46.138 46.138 0 0 1 51 97.219a45.925 45.925 0 0 1-22.038-5.602ZM64.4 95.231 53.767 77.954c6.182-.63 11.742-3.362 15.99-7.448l20.16 5.376c-5.877 9.162-14.89 16.124-25.518 19.35Zm27.218-22.193-19.44-5.184a26.933 26.933 0 0 0 5.87-15.934l18.029-11.095A46.138 46.138 0 0 1 97.219 51a45.92 45.92 0 0 1-5.602 22.038Z" fill="#F8991D"/><path d="M51 36.656c-7.91 0-14.344 6.434-14.344 14.344 0 7.91 6.434 14.344 14.344 14.344 7.91 0 14.344-6.434 14.344-14.344 0-7.91-6.434-14.344-14.344-14.344Zm0 25.5c-6.15 0-11.156-5.006-11.156-11.156S44.85 39.844 51 39.844 62.156 44.85 62.156 51 57.15 62.156 51 62.156Z" fill="#F8991D"/><path d="M51 43.031c-4.394 0-7.969 3.575-7.969 7.969s3.575 7.969 7.969 7.969 7.969-3.575 7.969-7.969-3.575-7.969-7.969-7.969Zm0 12.75A4.787 4.787 0 0 1 46.219 51 4.787 4.787 0 0 1 51 46.219 4.787 4.787 0 0 1 55.781 51 4.787 4.787 0 0 1 51 55.781Zm-1.594 12.75h3.188v3.188h-3.188V68.53Zm0-38.25h3.188v3.188h-3.188V30.28ZM30.281 49.406h3.188v3.188H30.28v-3.188Zm38.25 0h3.188v3.188H68.53v-3.188Z" fill="#F8991D"/></symbol><symbol fill="none" id="icon-broken-cable" viewBox="0 0 90 90"><title>broken-cable</title><path d="M10.961 49.029a1.499 1.499 0 0 0 2.12 0l8.994-8.994a1.74 1.74 0 0 0 .1-.11l.04-.053.047-.065.04-.065.035-.06.033-.069c.01-.021.021-.043.03-.065.01-.022.017-.044.025-.067.009-.024.018-.047.025-.071l.018-.068.018-.075c.005-.025.008-.052.012-.078l.01-.066a1.52 1.52 0 0 0 0-.296l-.01-.067-.012-.078-.018-.075c-.006-.022-.011-.045-.018-.067-.007-.025-.016-.048-.025-.072-.008-.022-.015-.045-.025-.067-.009-.022-.02-.043-.03-.065a.706.706 0 0 0-.033-.068c-.01-.02-.023-.04-.035-.06l-.04-.065c-.015-.023-.031-.044-.047-.065l-.04-.053a1.493 1.493 0 0 0-.21-.21l-.052-.039c-.022-.016-.043-.033-.065-.047-.021-.015-.043-.027-.065-.04l-.06-.036c-.023-.012-.046-.022-.069-.032-.021-.01-.043-.021-.065-.03-.022-.01-.045-.017-.067-.025-.024-.009-.047-.018-.071-.025l-.069-.018c-.024-.006-.048-.013-.073-.018l-.08-.012-.065-.01a1.49 1.49 0 0 0-.148-.007H15.64l6.436-6.435a1.499 1.499 0 1 0-2.12-2.12l-8.994 8.994a1.504 1.504 0 0 0-.1.11l-.04.053a1.082 1.082 0 0 0-.047.065l-.04.065-.036.06a1.04 1.04 0 0 0-.032.068c-.01.022-.021.043-.03.065-.01.022-.017.045-.025.067-.009.024-.018.047-.025.072-.007.022-.012.045-.018.068-.006.025-.013.049-.018.074l-.012.078-.01.067c-.01.098-.01.198 0 .296l.01.067.012.078c.005.025.012.05.018.074.006.023.011.046.018.068a.852.852 0 0 0 .025.071c.008.023.015.045.025.067.009.023.02.044.03.066.01.022.02.045.032.068l.036.06.04.065.047.065.04.053c.063.076.133.146.21.209.016.014.035.026.052.04l.065.047.065.04.06.035.069.033c.021.01.043.021.065.03.022.01.045.017.067.025l.071.025.069.018c.024.006.049.013.074.018.026.005.053.008.08.012l.065.01c.049.004.098.007.147.007h5.375l-6.435 6.435a1.499 1.499 0 0 0 0 2.12Z" fill="#F8991D"/><path d="M55.493 47.988c-.828 0-1.499.671-1.499 1.499 0 3.043-.639 4.883-1.968 6.74-.178.248-1.1 1.45-1.343 1.801-.463.67-.788 1.305-.98 1.972h-.34c-.091-1.515.042-2.738.371-4.322-.006.028.154-.731.196-.943.074-.37.128-.677.17-.98.225-1.645.04-3.093-.726-4.863a1.5 1.5 0 0 0-2.752 1.19c.545 1.26.66 2.155.508 3.266a13.18 13.18 0 0 1-.14.799c-.038.194-.194.936-.191.922-.368 1.769-.527 3.208-.438 4.93h-.581c-.576-.878-.79-1.696-.81-2.766-.008-.342 0-.619.029-1.3.13-3.076-.161-4.79-1.733-7.253a1.5 1.5 0 0 0-2.527 1.613c1.175 1.843 1.372 2.994 1.265 5.512a21.51 21.51 0 0 0-.032 1.49c.035 1.743.461 3.194 1.53 4.681v10.036c0 4.958-4.037 8.994-8.995 8.994H30.01c-4.959 0-8.994-4.036-8.994-8.994v-3.057a2.998 2.998 0 0 0 2.998-2.998v-5.996h5.996a2.998 2.998 0 0 0 2.998-2.998V20.986a2.998 2.998 0 0 0-2.998-2.998h-1.5V4.497A4.498 4.498 0 0 0 24.015 0H9.024a4.498 4.498 0 0 0-4.498 4.497v13.491H3.027A2.998 2.998 0 0 0 .03 20.986v35.977a2.998 2.998 0 0 0 2.998 2.998h5.997v5.996a2.998 2.998 0 0 0 2.998 2.998v3.057C12.022 81.932 20.09 90 30.01 90h4.497c9.92 0 17.988-8.069 17.988-17.988V61.479c0-.588.184-1.065.655-1.748.19-.274 1.09-1.448 1.313-1.759 1.681-2.346 2.529-4.79 2.529-8.485a1.5 1.5 0 0 0-1.499-1.5ZM7.524 4.497a1.5 1.5 0 0 1 1.5-1.499h14.99a1.5 1.5 0 0 1 1.498 1.499v13.491H7.524V4.497Zm-4.497 16.49H30.01v35.976H3.027V20.986ZM21.016 59.96v5.996H12.02V59.96h8.995Zm28.481 12.05c0 8.264-6.727 14.99-14.99 14.99H30.01c-8.264 0-14.99-6.726-14.99-14.99v-3.056h2.998v3.057c0 6.614 5.378 11.992 11.992 11.992h4.497c6.614 0 11.992-5.378 11.992-11.992v-9.014h2.998v9.014Z" fill="#F8991D"/><path d="M71.983.04h-8.995C53.068.04 45 8.108 45 18.028v11.971c0 .588-.184 1.066-.655 1.748-.19.275-1.09 1.448-1.313 1.76-1.68 2.346-2.529 4.79-2.529 8.485a1.499 1.499 0 1 0 2.998 0c0-3.043.639-4.884 1.968-6.74.178-.248 1.1-1.45 1.343-1.802.459-.664.781-1.292.974-1.952h.347c.089 1.506-.045 2.726-.372 4.303.006-.027-.154.731-.196.943-.074.37-.128.677-.17.98-.225 1.644-.04 3.092.726 4.863a1.5 1.5 0 0 0 2.752-1.19c-.545-1.26-.66-2.155-.508-3.266.033-.234.077-.485.14-.799.038-.194.194-.936.192-.922.365-1.762.525-3.198.439-4.912h.592c.566.87.776 1.684.798 2.746.007.342 0 .62-.03 1.302-.13 3.076.161 4.79 1.734 7.252a1.499 1.499 0 1 0 2.527-1.614c-1.176-1.841-1.372-2.993-1.265-5.51.032-.747.04-1.065.031-1.492-.036-1.743-.462-3.192-1.529-4.679V18.027c0-4.958 4.036-8.994 8.994-8.994h8.995c4.958 0 8.994 4.036 8.994 8.994v70.454c0 .829.67 1.5 1.499 1.5h5.996a1.5 1.5 0 0 0 1.499-1.5V18.028C89.97 8.108 81.902.04 71.982.04Zm14.99 86.943h-2.998V18.028c0-6.614-5.378-11.992-11.993-11.992h-8.994c-6.614 0-11.992 5.378-11.992 11.992V28.5h-2.998V18.028c0-8.264 6.726-14.99 14.99-14.99h8.994c8.264 0 14.99 6.726 14.99 14.99v68.955Z" fill="#F8991D"/></symbol><symbol id="icon-cache" viewBox="0 0 15 15"><title>cache</title><path d="M14.069 5.807a.44.44 0 1 0-.832.285 6.071 6.071 0 0 1-5.737 8.03 6.071 6.071 0 0 1-6.064-6.065 6.073 6.073 0 0 1 5.36-6.024l-.594.332a.44.44 0 0 0 .428.767l2.067-1.154a.44.44 0 0 0 0-.768L6.63.056a.44.44 0 1 0-.428.767l.584.327A6.89 6.89 0 0 0 2.59 3.147a6.898 6.898 0 0 0-2.033 4.91c0 1.854.722 3.598 2.033 4.91A6.898 6.898 0 0 0 7.5 15a6.897 6.897 0 0 0 4.91-2.034 6.897 6.897 0 0 0 2.033-4.91c0-.766-.126-1.523-.374-2.25Z"/><path d="M6.358 7.72a1.31 1.31 0 0 0 .132-1 1.31 1.31 0 0 0-.614-.801 1.31 1.31 0 0 0-1-.132 1.31 1.31 0 0 0-.801.614 1.31 1.31 0 0 0-.132 1c.091.34.31.625.614.801a1.32 1.32 0 0 0 1.8-.483Zm-.761-.44a.44.44 0 1 1-.762-.44.44.44 0 0 1 .762.44Zm3.045 1.758a1.32 1.32 0 0 0 1.14 1.977 1.32 1.32 0 0 0 .66-2.46 1.32 1.32 0 0 0-1.8.483Zm.76.44a.44.44 0 1 1 .762.44.44.44 0 0 1-.761-.44ZM8.299 6.117 5.94 10.2a.44.44 0 0 0 .761.44L9.06 6.556a.44.44 0 0 0-.761-.44Z"/></symbol><symbol fill="none" id="icon-car-wheel" viewBox="0 0 101 101"><title>car-wheel</title><path d="M51.98 40.144a1.48 1.48 0 1 1-2.96 0 1.48 1.48 0 0 1 2.96 0Zm-10.872 5.748a1.48 1.48 0 1 1-.915 2.815 1.48 1.48 0 0 1 .915-2.815Zm2.108 12.118a1.479 1.479 0 1 1 2.393 1.737 1.479 1.479 0 0 1-2.393-1.738Zm12.174 1.738a1.48 1.48 0 1 1 2.394-1.74 1.48 1.48 0 0 1-2.394 1.74Zm5.417-11.041a1.48 1.48 0 1 1-.915-2.815 1.48 1.48 0 0 1 .915 2.815Z" fill="#F8991D"/><path d="M28.064 24.654c-7.223 6.275-11.79 15.527-11.79 25.846 0 18.902 15.324 34.226 34.226 34.226S84.726 69.402 84.726 50.5 69.402 16.274 50.5 16.274a34.063 34.063 0 0 0-17.65 4.898" stroke="#F8991D" stroke-width="3" stroke-miterlimit="10" stroke-linecap="round" stroke-linejoin="round"/><path d="M99.52 50.5c0 27.073-21.947 49.02-49.02 49.02-27.073 0-49.02-21.947-49.02-49.02 0-27.073 21.947-49.02 49.02-49.02 27.073 0 49.02 21.947 49.02 49.02Z" stroke="#F8991D" stroke-width="3" stroke-miterlimit="10" stroke-linecap="round" stroke-linejoin="round"/><path d="M54.938 50.5a4.439 4.439 0 1 1-8.877 0 4.439 4.439 0 0 1 8.877 0Zm11.62-9.885 9.165-2.977c-4.041-7.91-11.695-13.667-20.785-15.098v9.633c0 6.03 5.885 10.306 11.62 8.442Zm-34.86 8.443-9.162-2.977a28.498 28.498 0 0 0-.344 4.419c0 7.813 3.166 14.887 8.284 20.009l5.66-7.791c3.545-4.879 1.298-11.797-4.438-13.66Zm14.364-16.885V22.54c-9.09 1.431-16.743 7.188-20.785 15.098l9.164 2.977c5.736 1.864 11.62-2.411 11.62-8.442Zm32.401 13.908-9.161 2.977c-5.736 1.864-7.984 8.781-4.439 13.66l5.66 7.791A28.213 28.213 0 0 0 78.808 50.5c0-1.503-.119-2.979-.345-4.419ZM43.318 67.936l-5.663 7.796A28.191 28.191 0 0 0 50.5 78.808c4.625 0 8.99-1.11 12.845-3.076l-5.663-7.796c-3.545-4.88-10.819-4.88-14.364 0ZM50.5 99.52v-5.917m0-86.206V1.48m15.148 95.641-1.829-5.628M37.18 9.507 35.353 3.88m43.961 86.278-3.479-4.787M25.165 15.63l-3.478-4.789m68.471 68.473-4.787-3.48M15.63 25.165l-4.789-3.479m86.28 43.962-5.628-1.829M9.507 37.18 3.88 35.352M99.52 50.5h-5.917m-86.206 0H1.48m95.641-15.148-5.628 1.829M9.507 63.82 3.88 65.648m86.278-43.962-4.787 3.479M15.63 75.835l-4.789 3.479m68.473-68.472-3.479 4.787M25.165 85.37l-3.478 4.789m43.961-86.28L63.82 9.507M37.18 91.493l-1.828 5.628" stroke="#F8991D" stroke-width="3" stroke-miterlimit="10" stroke-linecap="round" stroke-linejoin="round"/></symbol><symbol id="icon-cart-shopping" viewBox="0 0 576 512"><title>cart-shopping</title><!--! Font Awesome Pro 6.4.2 by @fontawesome - https://fontawesome.com License - https://fontawesome.com/license (Commercial License) Copyright 2023 Fonticons, Inc.--><path d="M24 0C10.7 0 0 10.7 0 24s10.7 24 24 24h45.5c3.8 0 7.1 2.7 7.9 6.5l51.6 271c6.5 34 36.2 58.5 70.7 58.5H488c13.3 0 24-10.7 24-24s-10.7-24-24-24H199.7c-11.5 0-21.4-8.2-23.6-19.5l-5.4-28.5h288.5c32.6 0 61.1-21.8 69.5-53.3l41-152.3C576.6 57 557.4 32 531.1 32h-411C111 12.8 91.6 0 69.5 0H24zm107.1 80h389.6l-38.3 142.2c-2.8 10.5-12.3 17.8-23.2 17.8H161.6L131.1 80zM176 512a48 48 0 1 0 0-96 48 48 0 1 0 0 96zm336-48a48 48 0 1 0-96 0 48 48 0 1 0 96 0z"/></symbol><symbol fill="none" id="icon-chassis-two" viewBox="0 0 101 101"><title>chassis-two</title><path d="M1.48 81.35v6.088a8.217 8.217 0 0 0 8.218 8.216h21.575a8.217 8.217 0 0 0 8.216-8.216V13.562a8.217 8.217 0 0 0-8.216-8.216H9.698a8.217 8.217 0 0 0-8.219 8.216v61.87M39.49 64.52c5.477 0 10.217-3.143 12.524-7.722h15.283V44.203H52.014c-2.307-4.58-7.047-7.723-12.525-7.723m31.351 3.366a3.543 3.543 0 0 0-3.543 3.542v14.224a3.543 3.543 0 0 0 7.085 0V43.388a3.542 3.542 0 0 0-3.543-3.542Z" stroke="#F8991D" stroke-width="3" stroke-miterlimit="10" stroke-linecap="round" stroke-linejoin="round"/><path d="M77.924 35.933a3.542 3.542 0 0 0-3.542 3.542v22.05a3.542 3.542 0 0 0 7.085 0v-22.05a3.543 3.543 0 0 0-3.543-3.542Z" stroke="#F8991D" stroke-width="3" stroke-miterlimit="10" stroke-linecap="round" stroke-linejoin="round"/><path d="M88.55 45.925v20.226c0 .978-.396 1.864-1.037 2.505a3.543 3.543 0 0 1-6.046-2.505V34.849a3.543 3.543 0 1 1 7.084 0v5.158" stroke="#F8991D" stroke-width="3" stroke-miterlimit="10" stroke-linecap="round" stroke-linejoin="round"/><path d="M88.55 66.15h10.97v-31.3H88.55M11.147 5.346c-1.073 3.501-3.422 4.734-3.422 10.14 0 7.002 3.945 7.002 3.945 14.005 0 7.001-3.945 7.001-3.945 14.004 0 7.003 3.945 7.003 3.945 14.006s-3.945 7.003-3.945 14.006 3.945 7.003 3.945 14.008c0 5.34-2.296 6.608-3.385 10.017v.002m24.4-90.068v.002C31.596 8.877 29.3 10.145 29.3 15.485c0 7.003 3.945 7.003 3.945 14.006 0 7.001-3.945 7.001-3.945 14.004 0 7.003 3.945 7.003 3.945 14.006S29.3 64.504 29.3 71.507s3.945 7.003 3.945 14.008c0 5.405-2.35 6.638-3.422 10.14m-10.789-.001c1.073-3.501 3.423-4.734 3.423-10.14 0-7.004-3.945-7.004-3.945-14.007s3.945-7.003 3.945-14.006-3.945-7.003-3.945-14.006 3.945-7.003 3.945-14.004c0-7.003-3.945-7.003-3.945-14.006 0-5.405 2.349-6.638 3.422-10.14" stroke="#F8991D" stroke-width="3" stroke-miterlimit="10" stroke-linecap="round" stroke-linejoin="round"/></symbol><symbol fill="none" id="icon-chassis" viewBox="0 0 101 101"><title>chassis</title><path d="M53.459 69.265V18.528m0 63.946v-6.603m-5.918 6.603V18.528M17.754 6.25V3.847a2.367 2.367 0 0 1 2.367-2.368h7.102a2.367 2.367 0 0 1 2.367 2.368v17.36a2.367 2.367 0 0 1-2.367 2.366H20.12a2.367 2.367 0 0 1-2.367-2.367v-8.68m63.126 11.047h-7.102a2.367 2.367 0 0 1-2.367-2.367V3.846a2.367 2.367 0 0 1 2.367-2.367h7.102a2.367 2.367 0 0 1 2.367 2.368v17.36a2.367 2.367 0 0 1-2.367 2.366Z" stroke="#F8991D" stroke-width="3" stroke-miterlimit="10" stroke-linecap="round" stroke-linejoin="round"/><path d="M67.879 9.567h3.531v5.918H56.302m0-5.918h5.328M44.7 15.485H29.59V9.567H44.7M27.223 99.52H20.12a2.367 2.367 0 0 1-2.367-2.367v-17.36a2.367 2.367 0 0 1 2.367-2.366h7.102a2.367 2.367 0 0 1 2.367 2.367v17.36a2.367 2.367 0 0 1-2.367 2.367Zm53.656 0h-7.102a2.367 2.367 0 0 1-2.367-2.367v-17.36a2.367 2.367 0 0 1 2.367-2.366h7.102a2.367 2.367 0 0 1 2.367 2.367v17.36a2.367 2.367 0 0 1-2.367 2.367ZM56.302 85.515H71.41v5.918H56.302m-11.602 0H29.59v-5.918H44.7" stroke="#F8991D" stroke-width="3" stroke-miterlimit="10" stroke-linecap="round" stroke-linejoin="round"/><path d="M57.01 12.526a6.51 6.51 0 1 1-13.02 0 6.51 6.51 0 0 1 13.02 0Zm0 75.948a6.51 6.51 0 1 1-13.02 0 6.51 6.51 0 0 1 13.02 0Z" stroke="#F8991D" stroke-width="3" stroke-miterlimit="10" stroke-linecap="round" stroke-linejoin="round"/></symbol><symbol fill="none" id="icon-cooling-system" viewBox="0 0 101 101"><title>cooling-system</title><path d="M99.52 50.5c0-27.073-21.947-49.02-49.02-49.02-27.073 0-49.02 21.947-49.02 49.02 0 27.073 21.947 49.02 49.02 49.02 27.073 0 49.02-21.947 49.02-49.02Z" stroke="#F8991D" stroke-width="3" stroke-miterlimit="10" stroke-linecap="round" stroke-linejoin="round"/><path d="M83.374 75.687A41.232 41.232 0 0 0 91.912 50.5c0-22.87-18.54-41.412-41.412-41.412C27.63 9.088 9.088 27.63 9.088 50.5S27.628 91.912 50.5 91.912c11.266 0 21.482-4.5 28.949-11.8" stroke="#F8991D" stroke-width="3" stroke-miterlimit="10" stroke-linecap="round" stroke-linejoin="round"/><path d="M58.277 50.5a7.777 7.777 0 1 0-15.554 0 7.777 7.777 0 0 0 15.554 0Z" stroke="#F8991D" stroke-width="3" stroke-miterlimit="10" stroke-linecap="round" stroke-linejoin="round"/><path d="M45.004 44.996c-5.495-5.501-14.213-3.957-17.586-7.33-3.373-3.373-2.13-13.495 7.814-17.4 3.635-1.431 6.655-.437 9.02 1.994M50.5 42.722c0-5.362-1.034-11.118-3.046-15.547" stroke="#F8991D" stroke-width="3" stroke-miterlimit="10" stroke-linecap="round" stroke-linejoin="round"/><path d="M50.5 58.277c0 12.16 5.325 26.365 15.27 22.459 9.943-3.907 11.186-14.029 7.812-17.402-3.374-3.374-12.09-1.828-17.586-7.331m2.281-5.503c12.16 0 26.365-5.325 22.459-15.27-3.907-9.943-14.028-11.186-17.402-7.812-3.374 3.374-1.828 12.09-7.331 17.586M42.723 50.5c-12.16 0-26.365 5.325-22.459 15.27 3.907 9.943 14.028 11.186 17.402 7.812 3.374-3.374 1.828-12.09 7.331-17.586" stroke="#F8991D" stroke-width="3" stroke-miterlimit="10" stroke-linejoin="round"/></symbol><symbol id="icon-credit-card" viewBox="0 0 576 512"><title>credit-card</title><!--! Font Awesome Pro 6.4.2 by @fontawesome - https://fontawesome.com License - https://fontawesome.com/license (Commercial License) Copyright 2023 Fonticons, Inc.--><path d="M512 80c8.8 0 16 7.2 16 16v32H48V96c0-8.8 7.2-16 16-16h448zm16 144v192c0 8.8-7.2 16-16 16H64c-8.8 0-16-7.2-16-16V224h480zM64 32C28.7 32 0 60.7 0 96v320c0 35.3 28.7 64 64 64h448c35.3 0 64-28.7 64-64V96c0-35.3-28.7-64-64-64H64zm56 304c-13.3 0-24 10.7-24 24s10.7 24 24 24h48c13.3 0 24-10.7 24-24s-10.7-24-24-24h-48zm128 0c-13.3 0-24 10.7-24 24s10.7 24 24 24h112c13.3 0 24-10.7 24-24s-10.7-24-24-24H248z"/></symbol><symbol fill="none" id="icon-engine" viewBox="0 0 102 102"><title>engine</title><path d="M65.023 54.4h-3.675l1.776-12.641a2.335 2.335 0 0 0-1.543-2.513c-1.071-.39-2.25.005-2.764.835L44.649 58.459a2.823 2.823 0 0 0-.092 2.91 2.981 2.981 0 0 0 2.62 1.53h3.675l-1.776 12.64a2.335 2.335 0 0 0 1.543 2.513c.282.104.573.151.857.151.792 0 1.528-.375 1.907-.986L67.551 58.84a2.823 2.823 0 0 0 .092-2.91 2.981 2.981 0 0 0-2.62-1.53ZM52.981 72.184l1.51-10.746a1.7 1.7 0 0 0-1.683-1.938h-4.676L59.22 45.116l-1.51 10.746a1.7 1.7 0 0 0 1.683 1.938h4.676L52.98 72.184Z" fill="#F8991D"/><path d="M96.9 39.1h-3.4a5.106 5.106 0 0 0-5.1 5.1v5.1H85V34c0-3.75-3.05-6.8-6.8-6.8h-8.5v-3.4h10.2c2.812 0 5.1-2.288 5.1-5.1v-3.4c0-2.812-2.288-5.1-5.1-5.1h-34a5.106 5.106 0 0 0-5.1 5.1v3.4c0 2.812 2.288 5.1 5.1 5.1h10.2v3.4H46.046a6.81 6.81 0 0 0-4.352 1.576l-7.366 6.135a3.397 3.397 0 0 1-2.174.789H23.8c-3.75 0-6.8 3.05-6.8 6.8v6.8h-3.4V39.1c0-2.812-2.288-5.1-5.1-5.1H5.1A5.106 5.106 0 0 0 0 39.1v34c0 2.812 2.288 5.1 5.1 5.1h3.4c2.812 0 5.1-2.288 5.1-5.1V62.9H17v10.2c0 3.75 3.05 6.8 6.8 6.8h5.54a3.4 3.4 0 0 1 2.951 1.714l3.865 6.759a6.81 6.81 0 0 0 5.904 3.429h30.352a6.785 6.785 0 0 0 5.224-2.447l5.788-6.946A6.814 6.814 0 0 0 85 78.055V62.902h3.4v5.1c0 2.812 2.288 5.1 5.1 5.1h3.4c2.812 0 5.1-2.288 5.1-5.1v-23.8a5.108 5.108 0 0 0-5.1-5.102Zm-86.7 34a1.7 1.7 0 0 1-1.7 1.7H5.1a1.7 1.7 0 0 1-1.7-1.7v-34a1.7 1.7 0 0 1 1.7-1.7h3.4a1.7 1.7 0 0 1 1.7 1.7v34Zm3.4-13.6v-6.8H17v6.8h-3.4Zm30.6-40.8v-3.4a1.7 1.7 0 0 1 1.7-1.7h34a1.7 1.7 0 0 1 1.7 1.7v3.4a1.7 1.7 0 0 1-1.7 1.7h-34a1.7 1.7 0 0 1-1.7-1.7Zm15.3 5.1h6.8v3.4h-6.8v-3.4Zm22.1 54.254c0 .794-.28 1.566-.789 2.176l-5.787 6.946a3.398 3.398 0 0 1-2.612 1.224H42.06a3.402 3.402 0 0 1-2.952-1.714l-3.864-6.759a6.809 6.809 0 0 0-5.904-3.429H23.8a3.403 3.403 0 0 1-3.4-3.4v-30.6c0-1.875 1.525-3.4 3.4-3.4h8.354a6.804 6.804 0 0 0 4.352-1.576l7.366-6.135a3.397 3.397 0 0 1 2.174-.789H78.2c1.875 0 3.4 1.525 3.4 3.4v44.056ZM85 59.5v-6.8h3.4v6.8H85ZM98.6 68a1.7 1.7 0 0 1-1.7 1.7h-3.4a1.7 1.7 0 0 1-1.7-1.7V44.2a1.7 1.7 0 0 1 1.7-1.7h3.4a1.7 1.7 0 0 1 1.7 1.7V68Z" fill="#F8991D"/></symbol><symbol fill="none" id="icon-filter" viewBox="0 0 102 102"><title>filter</title><path d="M66.938 85.863a1.992 1.992 0 1 0 0-3.984 1.992 1.992 0 0 0 0 3.984ZM51 52.992a1.992 1.992 0 1 0 0-3.984 1.992 1.992 0 0 0 0 3.984Zm-3.984-7.969a1.992 1.992 0 1 0 0-3.984 1.992 1.992 0 0 0 0 3.984Zm7.968 0a1.992 1.992 0 1 0 0-3.984 1.992 1.992 0 0 0 0 3.984Zm-7.968-7.968a1.992 1.992 0 1 0 0-3.985 1.992 1.992 0 0 0 0 3.985ZM16.934 26.297a1.992 1.992 0 1 0 0-3.985 1.992 1.992 0 0 0 0 3.985Zm-2.391 35.859a1.992 1.992 0 1 0 0-3.984 1.992 1.992 0 0 0 0 3.984Zm8.167 1.196a1.992 1.992 0 1 0 0-3.985 1.992 1.992 0 0 0 0 3.985ZM8.965 24.305a1.992 1.992 0 1 0 0-3.985 1.992 1.992 0 0 0 0 3.985Zm15.937 0a1.992 1.992 0 1 0 0-3.985 1.992 1.992 0 0 0 0 3.985ZM6.176 60.363a1.992 1.992 0 1 0 0-3.984 1.992 1.992 0 0 0 0 3.984Zm5.777 17.332a1.992 1.992 0 1 0 0-3.984 1.992 1.992 0 0 0 0 3.984Zm7.969 3.985a1.992 1.992 0 1 0 0-3.985 1.992 1.992 0 0 0 0 3.985ZM3.984 79.488a1.992 1.992 0 1 0 0-3.984 1.992 1.992 0 0 0 0 3.984Zm0-35.859a1.992 1.992 0 1 0 0-3.984 1.992 1.992 0 0 0 0 3.984Zm15.938.797a1.992 1.992 0 1 0 0-3.985 1.992 1.992 0 0 0 0 3.985Zm-7.77-2.391a1.992 1.992 0 1 0 0-3.984 1.992 1.992 0 0 0 0 3.984Zm42.832-4.98a1.992 1.992 0 1 0 0-3.985 1.992 1.992 0 0 0 0 3.985ZM51 68.93a1.992 1.992 0 1 0 0-3.985 1.992 1.992 0 0 0 0 3.985Zm-3.984-7.97a1.992 1.992 0 1 0 0-3.983 1.992 1.992 0 0 0 0 3.984Zm7.968 0a1.992 1.992 0 1 0 0-3.983 1.992 1.992 0 0 0 0 3.984Z" fill="#F8991D"/><path d="M93.619 59.182a1.987 1.987 0 0 0 2.817 0l4.98-4.98a1.992 1.992 0 0 0 0-2.818l-4.98-4.98a1.993 1.993 0 0 0-2.818 2.817l1.58 1.58h-2.462c-3.42 0-6.288-1.534-6.31-1.546-.152-.083-3.757-2.04-8.233-2.04-2.015 0-3.852.397-5.28.84V34.352c1.139-.456 3.096-1.081 5.28-1.081 3.42 0 6.288 1.533 6.31 1.545.152.084 3.757 2.04 8.233 2.04h2.462l-1.58 1.58a1.992 1.992 0 1 0 2.818 2.817l4.98-4.98a1.992 1.992 0 0 0 0-2.818l-4.98-4.98a1.993 1.993 0 0 0-2.818 2.817l1.58 1.58h-2.462c-3.42 0-6.287-1.533-6.31-1.546-.152-.083-3.757-2.04-8.233-2.04-2.015 0-3.852.397-5.279.84v-1.04a1.992 1.992 0 0 0-1.992-1.991H68.93V7.172c0-.524-.214-1.038-.584-1.409a2.007 2.007 0 0 0-1.409-.583H35.064a2.01 2.01 0 0 0-1.409.583 2.01 2.01 0 0 0-.584 1.409v19.922h-1.992c-1.1 0-1.992.892-1.992 1.992v2.704c-1.138.456-3.095 1.081-5.28 1.081-3.42 0-6.287-1.533-6.31-1.546-.151-.083-3.757-2.04-8.232-2.04-4.476 0-8.081 1.957-8.233 2.04a1.988 1.988 0 0 0-.784 2.699 1.995 1.995 0 0 0 2.7.794c.029-.015 2.896-1.548 6.317-1.548 3.42 0 6.287 1.533 6.31 1.545.152.084 3.757 2.04 8.233 2.04 2.015 0 3.852-.396 5.279-.84V49.72c-1.138.456-3.095 1.08-5.28 1.08-3.42 0-6.287-1.533-6.31-1.545-.151-.083-3.757-2.04-8.232-2.04-4.476 0-8.081 1.957-8.233 2.04a1.989 1.989 0 0 0-.784 2.699 1.995 1.995 0 0 0 2.7.794c.029-.015 2.896-1.549 6.317-1.549 3.42 0 6.287 1.534 6.31 1.546.152.083 3.757 2.04 8.233 2.04 2.015 0 3.852-.397 5.279-.84v13.704c-1.138.456-3.095 1.082-5.28 1.082-3.42 0-6.287-1.534-6.31-1.546-.151-.084-3.757-2.04-8.232-2.04-4.476 0-8.081 1.956-8.233 2.04A1.943 1.943 0 0 0 0 68.91a1.995 1.995 0 0 0 2.948 1.767c.028-.016 2.895-1.55 6.316-1.55 3.42 0 6.287 1.534 6.31 1.547.152.083 3.757 2.04 8.233 2.04 2.015 0 3.852-.397 5.279-.84v1.04c0 1.099.892 1.991 1.992 1.991h1.992v19.922c0 .524.213 1.038.584 1.409.37.37.885.583 1.408.583h31.876a2.01 2.01 0 0 0 1.408-.583c.37-.37.584-.885.584-1.409v-1.992a1.995 1.995 0 0 0-1.993-1.992 1.995 1.995 0 0 0-1.992 1.992h-27.89v-17.93h1.992c1.1 0 1.992-.892 1.992-1.992V29.086c0-1.1-.892-1.992-1.992-1.992h-1.992V9.164h27.89v17.93h-1.992c-1.1 0-1.992.892-1.992 1.992v43.828c0 1.1.892 1.992 1.992 1.992h1.992a1.993 1.993 0 0 0 3.985 0h1.992c1.1 0 1.992-.892 1.992-1.992V70.21c1.138-.456 3.095-1.081 5.28-1.081 3.42 0 6.287 1.533 6.31 1.546.151.083 3.757 2.04 8.232 2.04h2.462l-1.58 1.58a1.992 1.992 0 0 0 2.818 2.817l4.98-4.98a1.992 1.992 0 0 0 0-2.818l-4.98-4.98a1.993 1.993 0 0 0-2.818 2.817l1.58 1.58h-2.462c-3.42 0-6.288-1.534-6.31-1.546-.152-.084-3.757-2.04-8.233-2.04-2.015 0-3.852.396-5.28.84V52.28c1.139-.456 3.096-1.08 5.28-1.08 3.42 0 6.288 1.533 6.31 1.545.152.083 3.757 2.04 8.233 2.04h2.462l-1.58 1.58a1.992 1.992 0 0 0 0 2.817Zm-56.564 11.74H33.07V31.078h3.985v39.844Zm31.875 0h-3.985V31.078h3.985v39.844Z" fill="#F8991D"/></symbol><symbol fill="none" id="icon-forklift-tree" viewBox="0 0 103 103"><title>forklift-tree</title><path d="M91.653 61.102H88.16V50.627a5.237 5.237 0 0 0-5.237-5.237H77.61l-1.526-33.397a5.227 5.227 0 0 0-5.237-5.01h-1.89V3.492h5.238a1.746 1.746 0 1 0 0-3.492h-45.39a1.746 1.746 0 1 0 0 3.491h5.237v3.492h-1.894a5.227 5.227 0 0 0-5.237 5.007l-1.52 33.4h-7.06a5.237 5.237 0 0 0-5.238 5.237v10.475h-1.745a5.237 5.237 0 0 0-5.238 5.237v31.424A5.237 5.237 0 0 0 11.347 103h10.475a5.237 5.237 0 0 0 5.237-5.237V90.78h6.983v6.983a5.237 5.237 0 0 0 10.475 0V90.78h13.966v6.983a5.237 5.237 0 0 0 10.475 0V90.78h6.983v6.983A5.237 5.237 0 0 0 81.178 103h10.475a5.237 5.237 0 0 0 5.237-5.237V66.339a5.237 5.237 0 0 0-5.237-5.237Zm-12.22-12.22h3.49c.965 0 1.746.78 1.746 1.745v1.746h-5.237V48.88ZM68.957 10.474h1.894a1.746 1.746 0 0 1 1.746 1.672l1.515 33.243h-5.155V10.475Zm-6.983-6.983h3.491v62.847h-3.491V3.492Zm-17.458 0h13.966v3.491H44.517v-3.49Zm0 6.983h13.966v31.423H44.517V10.475Zm0 34.915h13.966v3.492H44.517V45.39Zm0 6.983h13.966v13.966H44.517V52.373Zm-6.982-48.88h3.492v62.847h-3.492V3.492Zm-7.13 8.653c.04-.934.81-1.67 1.744-1.67h1.895V45.39h-5.156l1.517-33.245Zm-13.82 38.482c0-.964.782-1.745 1.747-1.745h3.491v3.49h-5.237v-1.745Zm6.984 47.136c0 .964-.782 1.745-1.746 1.745H11.348a1.746 1.746 0 0 1-1.746-1.745V66.339c0-.964.781-1.746 1.745-1.746h10.475c.964 0 1.746.782 1.746 1.746v31.424Zm-1.746-36.661h-5.237v-5.238h5.237a3.492 3.492 0 0 0 3.492-3.491V48.88h8.728v17.46H27.06a5.237 5.237 0 0 0-5.237-5.237Zm5.237 13.966a3.492 3.492 0 1 1 0 6.983v-6.983Zm13.966 22.695a1.746 1.746 0 1 1-3.491 0V90.78h3.492v6.983Zm24.441 0a1.746 1.746 0 1 1-3.491 0V90.78h3.491v6.983ZM75.941 82.05a3.492 3.492 0 0 1 0-6.983v6.983Zm0-10.475a6.983 6.983 0 0 0 0 13.966v1.746H27.059v-1.746a6.983 6.983 0 0 0 0-13.966V69.83h48.882v1.745Zm0-5.237h-6.983V48.882h6.983v3.49a3.492 3.492 0 0 0 3.491 3.492h5.237v5.238h-3.491a5.237 5.237 0 0 0-5.237 5.237Zm17.457 31.424c0 .964-.781 1.745-1.745 1.745H81.178a1.746 1.746 0 0 1-1.746-1.745V66.339c0-.964.782-1.746 1.746-1.746h10.475c.964 0 1.745.782 1.745 1.746v31.424Z" fill="#F8991D"/><path d="M48.008 83.797h6.983a5.237 5.237 0 0 0 0-10.475h-6.983a5.237 5.237 0 0 0 0 10.475Zm0-6.983h6.983a1.746 1.746 0 1 1 0 3.491h-6.983a1.746 1.746 0 0 1 0-3.491Z" fill="#F8991D"/></symbol><symbol fill="none" id="icon-forklift-two" viewBox="0 0 118 118"><title>forklift-two</title><path d="M78.597 84.613a4.91 4.91 0 0 0-4.904 4.904 4.91 4.91 0 0 0 4.904 4.904 4.91 4.91 0 0 0 4.904-4.904 4.91 4.91 0 0 0-4.904-4.904Zm0 7.043a2.14 2.14 0 0 1-2.138-2.139 2.14 2.14 0 0 1 2.138-2.138c1.18 0 2.138.96 2.138 2.138a2.14 2.14 0 0 1-2.138 2.139Zm-61.034-3.913a4.126 4.126 0 0 0-4.121 4.121 4.126 4.126 0 0 0 4.121 4.122 4.126 4.126 0 0 0 4.122-4.122 4.126 4.126 0 0 0-4.122-4.121Zm0 5.477a1.357 1.357 0 0 1-1.356-1.356c0-.747.608-1.356 1.356-1.356a1.357 1.357 0 0 1 0 2.712Z" fill="#F8991D"/><path d="M108.653 84.613h-18.11V24.67a3.23 3.23 0 0 0-3.227-3.226h-3.354a3.23 3.23 0 0 0-3.227 3.226v18.603l-6.746 8.804-3.765-14.026a1.383 1.383 0 0 0-2.67.717l8.803 32.804C67.37 72.677 60.51 80.315 60.51 89.517c0 .716.046 1.43.13 2.138H33.255c-.113-8.559-7.107-15.488-15.692-15.488-6.004 0-11.237 3.4-13.876 8.375V70.947h9.015a5.076 5.076 0 0 0 5.07-5.07v-6.668h5.66c.763 0 1.383-.619 1.383-1.383v-6a5.715 5.715 0 0 1 4.321 5.535v12.203c0 .763.62 1.383 1.383 1.383h5.657a2.307 2.307 0 0 1 2.305 2.304v6.71a5.076 5.076 0 0 0 5.07 5.07h7.77a5.024 5.024 0 0 0 4.073-2.05 5.025 5.025 0 0 0 .778-4.495l-5.535-18.205v-3.42h10.355a5.04 5.04 0 0 0 3.987-1.938 5.04 5.04 0 0 0 .939-4.332L60.94 30.169a8.053 8.053 0 0 0-7.925-6.59H30.11c-4.444 0-8.06 3.616-8.06 8.06v24.805h-4.277V21.606a2.307 2.307 0 0 1 2.305-2.305h38.21a5.3 5.3 0 0 1 5.202 4.308c.007.034.014.067.023.1l1.123 4.184a1.383 1.383 0 1 0 2.671-.716l-1.11-4.137a8.067 8.067 0 0 0-7.909-6.504h-38.21a5.076 5.076 0 0 0-5.07 5.07v34.837h-3.313c-5.94 0-10.772 4.832-10.772 10.772V89.35c0 1.264.467 2.422 1.235 3.31a5.056 5.056 0 0 0 3.835 1.759h2.32c1.123 4.056 4.844 7.043 9.251 7.043 4.408 0 8.129-2.987 9.25-7.042h40.895c1.876 4.147 6.05 7.042 10.89 7.042 4.84 0 9.013-2.894 10.888-7.042h26.21c.763 0 1.382-.62 1.382-1.383 0-4.646-3.779-8.425-8.425-8.425ZM24.815 31.639a5.3 5.3 0 0 1 5.294-5.294h22.906a5.29 5.29 0 0 1 5.211 4.357c.005.028.01.056.018.083l4.987 20.46a2.29 2.29 0 0 1-.427 1.97c-.44.56-1.1.881-1.813.881H46.668l1.517-4.087a1.383 1.383 0 1 0-2.592-.962l-3.619 9.744c-.646 1.668 1.983 2.66 2.593.963l1.074-2.892h2.231v3.625c0 .136.02.272.06.402l5.595 18.402c.214.705.086 1.45-.353 2.042a2.284 2.284 0 0 1-1.852.933h-7.77a2.307 2.307 0 0 1-2.304-2.305v-6.71a5.076 5.076 0 0 0-5.07-5.07h-4.275v-10.82c0-4.2-3.072-7.696-7.087-8.358V31.64Zm59.147-7.43h3.355a.46.46 0 0 1 .46.461v57.213a12.012 12.012 0 0 0-4.276-3.255V24.67a.46.46 0 0 1 .46-.46ZM80.735 47.82v29.393l-5.842-21.768 5.842-7.625Zm-69.04 11.39h3.312v6.666a2.307 2.307 0 0 1-2.305 2.305H3.688v-.965c0-4.415 3.591-8.007 8.006-8.007ZM4.647 91.22c.338-6.83 6.01-12.288 12.915-12.288 7.06 0 12.814 5.689 12.927 12.723h-3.333c-.112-5.196-4.371-9.39-9.594-9.39-5.223 0-9.481 4.194-9.593 9.39H5.992a2.29 2.29 0 0 1-1.344-.436Zm12.915 7.478a6.841 6.841 0 0 1-6.833-6.834 6.841 6.841 0 0 1 6.833-6.833 6.841 6.841 0 0 1 6.833 6.833 6.841 6.841 0 0 1-6.833 6.834Zm45.865-7.043a15.507 15.507 0 0 1-.153-2.138c0-7.926 6.007-14.486 13.807-15.248l.89 3.318c-6.298.326-11.321 5.552-11.321 11.93 0 .73.07 1.444.195 2.138h-3.418Zm15.169 7.043c-3.941 0-7.31-2.497-8.608-5.992a9.239 9.239 0 0 1-.573-3.19c0-5.061 4.119-9.18 9.181-9.18a9.238 9.238 0 0 1 3.19.572 9.228 9.228 0 0 1 5.418 5.42c.757 1.987.757 4.39 0 6.378-1.299 3.495-4.667 5.992-8.608 5.992Zm11.75-7.043c.278-1.376.164-2.872.196-4.277h18.11a5.67 5.67 0 0 1 5.489 4.277H90.348Z" fill="#F8991D"/><path d="M67.404 34.261a1.383 1.383 0 1 0 0-2.766 1.383 1.383 0 0 0 0 2.766Z" fill="#F8991D"/></symbol><symbol fill="none" id="icon-forklift" viewBox="0 0 113 113"><title>forklift</title><path d="M79.196 59.332h32.149V27.183h-32.15v32.15Z" stroke="#F8991D" stroke-width="3" stroke-miterlimit="10" stroke-linecap="round" stroke-linejoin="round"/><path d="M91.96 27.183v16.075h6.62V27.183m-19.384 70.92h32.149v-32.15h-32.15v32.15Z" stroke="#F8991D" stroke-width="3" stroke-miterlimit="10" stroke-linecap="round" stroke-linejoin="round"/><path d="M91.96 65.953v16.075h6.62V65.953m-45.869 32.15c0 7.313-5.928 13.242-13.242 13.242-7.313 0-13.242-5.929-13.242-13.242 0-7.314 5.929-13.243 13.242-13.243 7.313 0 13.242 5.93 13.242 13.243Z" stroke="#F8991D" stroke-width="3" stroke-miterlimit="10" stroke-linecap="round" stroke-linejoin="round"/><path d="M39.47 104.724a6.63 6.63 0 0 1-6.622-6.621 6.63 6.63 0 0 1 6.621-6.622 6.628 6.628 0 0 1 6.621 6.622 6.63 6.63 0 0 1-6.62 6.621Z" stroke="#F8991D" stroke-width="3" stroke-miterlimit="10" stroke-linecap="round" stroke-linejoin="round"/><path d="M67.609 14.898a1.655 1.655 0 1 1-3.31 0 1.655 1.655 0 0 1 3.31 0Z" fill="#F8991D"/><path d="M111.345 104.724H59.332V1.655h13.242v103.069M59.332 8.276h13.243M52.711 46.09H8.276c-3.641 0-6.62 2.98-6.62 6.621v52.013H28.14M1.655 98.103h24.572m26.484 0V8.276" stroke="#F8991D" stroke-width="3" stroke-miterlimit="10" stroke-linecap="round" stroke-linejoin="round"/><path d="M18.208 46.09v-6.62a3.31 3.31 0 0 0-6.621 0v6.621m-3.311 6.62h9.932m-9.932 6.621h9.932m-9.932 6.621h9.932" stroke="#F8991D" stroke-width="3" stroke-miterlimit="10" stroke-linecap="round" stroke-linejoin="round"/></symbol><symbol fill="none" id="icon-gears" viewBox="0 0 102 102"><title>gears</title><path d="M52.352 63.194a1.61 1.61 0 0 0-2.146-.765 25.656 25.656 0 0 1-4.073 1.524 1.61 1.61 0 0 0-1.145 1.235l-1.704 8.518a1.81 1.81 0 0 1-1.77 1.452h-4.648a1.81 1.81 0 0 1-1.771-1.452l-1.704-8.518a1.61 1.61 0 0 0-1.145-1.235 25.587 25.587 0 0 1-5.656-2.344 1.61 1.61 0 0 0-1.684.063l-7.229 4.82a1.811 1.811 0 0 1-2.278-.226l-3.286-3.287a1.811 1.811 0 0 1-.226-2.278l4.819-7.23a1.61 1.61 0 0 0 .063-1.683 25.587 25.587 0 0 1-2.344-5.656 1.61 1.61 0 0 0-1.235-1.145l-8.518-1.704a1.81 1.81 0 0 1-1.452-1.77v-4.648c0-.858.61-1.602 1.452-1.77l8.518-1.704a1.61 1.61 0 0 0 1.235-1.146 25.596 25.596 0 0 1 2.344-5.656 1.61 1.61 0 0 0-.063-1.683l-4.819-7.229a1.81 1.81 0 0 1 .226-2.278l3.286-3.286a1.811 1.811 0 0 1 2.279-.226l7.229 4.819a1.61 1.61 0 0 0 1.683.063 25.596 25.596 0 0 1 5.656-2.344 1.61 1.61 0 0 0 1.146-1.235l1.703-8.518a1.81 1.81 0 0 1 1.771-1.452h4.648c.857 0 1.602.61 1.77 1.452l1.704 8.518a1.61 1.61 0 0 0 1.145 1.235 25.594 25.594 0 0 1 5.656 2.344 1.61 1.61 0 0 0 1.684-.063l7.229-4.82a1.811 1.811 0 0 1 2.278.227l3.287 3.286a1.81 1.81 0 0 1 .225 2.278l-4.819 7.23a1.61 1.61 0 0 0-.063 1.683 25.587 25.587 0 0 1 2.344 5.656 1.61 1.61 0 0 0 1.235 1.145l8.518 1.704a1.81 1.81 0 0 1 1.452 1.77v4.648a1.81 1.81 0 0 1-1.452 1.77l-8.518 1.705a1.61 1.61 0 0 0-1.235 1.145c-.4 1.43-.929 2.834-1.57 4.17a1.61 1.61 0 1 0 2.904 1.394 28.891 28.891 0 0 0 1.482-3.74l7.569-1.514a5.04 5.04 0 0 0 4.04-4.93v-4.648a5.04 5.04 0 0 0-4.041-4.929l-7.568-1.514a28.817 28.817 0 0 0-1.88-4.535l4.282-6.423a5.04 5.04 0 0 0-.628-6.343l-3.287-3.286a5.04 5.04 0 0 0-6.343-.629l-6.422 4.282a28.837 28.837 0 0 0-4.536-1.88L46.442 4.04A5.04 5.04 0 0 0 41.513 0h-4.647a5.04 5.04 0 0 0-4.93 4.04l-1.513 7.57a28.817 28.817 0 0 0-4.536 1.879l-6.422-4.282a5.04 5.04 0 0 0-6.344.628l-3.286 3.286a5.04 5.04 0 0 0-.628 6.344l4.282 6.422a28.828 28.828 0 0 0-1.88 4.536l-7.568 1.514A5.04 5.04 0 0 0 0 36.866v4.647a5.04 5.04 0 0 0 4.04 4.93l7.57 1.513a28.81 28.81 0 0 0 1.879 4.536l-4.282 6.423a5.04 5.04 0 0 0 .628 6.343l3.286 3.286a5.04 5.04 0 0 0 6.344.628l6.422-4.281a28.828 28.828 0 0 0 4.536 1.88l1.514 7.568a5.04 5.04 0 0 0 4.929 4.04h4.647a5.04 5.04 0 0 0 4.93-4.04l1.513-7.569a28.86 28.86 0 0 0 3.632-1.43 1.61 1.61 0 0 0 .764-2.146Z" fill="#F8991D"/><path d="M53.14 48.139a1.61 1.61 0 0 0 2.168-.698 18.16 18.16 0 0 0 1.985-8.251c0-9.982-8.121-18.104-18.104-18.104a18.005 18.005 0 0 0-12.636 5.14 1.61 1.61 0 0 0 2.248 2.307 14.803 14.803 0 0 1 10.388-4.226c8.206 0 14.883 6.677 14.883 14.883 0 2.39-.55 4.67-1.631 6.781a1.61 1.61 0 0 0 .698 2.168ZM24.114 32.298a1.61 1.61 0 0 0-2.047 1 18.073 18.073 0 0 0-.98 5.892c0 9.982 8.12 18.103 18.103 18.103 3.84 0 7.507-1.187 10.608-3.432a1.61 1.61 0 0 0-1.89-2.609 14.774 14.774 0 0 1-8.718 2.82c-8.207 0-14.883-6.677-14.883-14.883 0-1.66.271-3.29.806-4.845a1.61 1.61 0 0 0-.999-2.046ZM98.9 70.387l-4.657-.931a19.492 19.492 0 0 0-1.021-2.465l2.635-3.952a3.866 3.866 0 0 0-.482-4.865l-2.16-2.16a3.866 3.866 0 0 0-4.864-.481l-3.952 2.634a19.467 19.467 0 0 0-2.465-1.02l-.932-4.658a3.866 3.866 0 0 0-3.78-3.1h-3.054a3.866 3.866 0 0 0-3.781 3.1l-.931 4.657c-.844.284-1.669.626-2.465 1.021l-3.952-2.634a3.866 3.866 0 0 0-4.865.481l-2.16 2.16a3.866 3.866 0 0 0-.482 4.865l2.635 3.952a19.461 19.461 0 0 0-1.316 3.422 1.61 1.61 0 0 0 3.102.868 16.246 16.246 0 0 1 1.49-3.595 1.611 1.611 0 0 0-.063-1.684l-3.167-4.75a.636.636 0 0 1 .079-.8l2.16-2.16a.637.637 0 0 1 .8-.08l4.75 3.168a1.61 1.61 0 0 0 1.684.063 16.255 16.255 0 0 1 3.595-1.49 1.61 1.61 0 0 0 1.145-1.235l1.12-5.597a.636.636 0 0 1 .621-.51h3.055c.301 0 .563.214.622.51l1.12 5.598a1.61 1.61 0 0 0 1.144 1.235 16.25 16.25 0 0 1 3.595 1.49 1.61 1.61 0 0 0 1.684-.064l4.75-3.167a.636.636 0 0 1 .8.08l2.16 2.159c.213.213.247.55.08.8l-3.167 4.75a1.61 1.61 0 0 0-.064 1.685 16.255 16.255 0 0 1 1.49 3.594 1.61 1.61 0 0 0 1.235 1.145l5.597 1.12c.296.059.51.32.51.622v3.054a.637.637 0 0 1-.51.622l-5.597 1.12a1.61 1.61 0 0 0-1.236 1.145 16.251 16.251 0 0 1-1.489 3.594 1.61 1.61 0 0 0 .063 1.684l3.167 4.75a.636.636 0 0 1-.08.801l-2.159 2.16a.636.636 0 0 1-.8.079l-4.75-3.167a1.61 1.61 0 0 0-1.684-.063 16.258 16.258 0 0 1-3.595 1.49 1.61 1.61 0 0 0-1.145 1.234l-1.12 5.598a.636.636 0 0 1-.622.51h-3.054a.636.636 0 0 1-.622-.51l-1.12-5.598a1.61 1.61 0 0 0-1.145-1.235 16.256 16.256 0 0 1-3.594-1.49 1.61 1.61 0 0 0-1.684.064l-4.75 3.166a.636.636 0 0 1-.8-.079l-2.16-2.16a.637.637 0 0 1-.08-.8l3.167-4.75a1.61 1.61 0 0 0 .063-1.684 16.255 16.255 0 0 1-1.489-3.595 1.61 1.61 0 0 0-1.235-1.145l-5.598-1.12a.636.636 0 0 1-.51-.621v-3.054c0-.302.215-.564.51-.623l.343-.068a1.61 1.61 0 1 0-.632-3.159l-.343.069a3.866 3.866 0 0 0-3.099 3.78v3.055a3.866 3.866 0 0 0 3.1 3.78l4.657.932a19.56 19.56 0 0 0 1.021 2.465l-2.635 3.952a3.866 3.866 0 0 0 .482 4.865l2.16 2.16a3.866 3.866 0 0 0 4.864.481l3.953-2.635c.796.396 1.62.738 2.464 1.021l.932 4.657a3.867 3.867 0 0 0 3.78 3.1h3.055a3.867 3.867 0 0 0 3.78-3.1l.932-4.657a19.497 19.497 0 0 0 2.465-1.021l3.952 2.635a3.866 3.866 0 0 0 4.865-.482l2.16-2.16a3.866 3.866 0 0 0 .481-4.864l-2.635-3.952c.396-.797.738-1.621 1.021-2.465l4.657-.932a3.866 3.866 0 0 0 3.1-3.78v-3.054a3.866 3.866 0 0 0-3.1-3.78Z" fill="#F8991D"/><path d="M75.695 69.897c3.197 0 5.798 2.6 5.798 5.798a1.61 1.61 0 0 0 3.22 0c0-4.973-4.045-9.02-9.018-9.02-4.973 0-9.02 4.047-9.02 9.02s4.047 9.019 9.02 9.019c2.014 0 3.92-.65 5.51-1.879a1.61 1.61 0 0 0-1.97-2.549 5.742 5.742 0 0 1-3.54 1.207 5.804 5.804 0 0 1-5.798-5.798 5.804 5.804 0 0 1 5.798-5.798ZM49.002 39.19c0-5.41-4.402-9.813-9.812-9.813-5.41 0-9.813 4.402-9.813 9.813 0 5.41 4.402 9.812 9.813 9.812 5.41 0 9.812-4.402 9.812-9.812Zm-16.404 0a6.599 6.599 0 0 1 6.592-6.592 6.599 6.599 0 0 1 6.59 6.592 6.599 6.599 0 0 1-6.59 6.59 6.599 6.599 0 0 1-6.592-6.59Z" fill="#F8991D"/></symbol><symbol id="icon-heart" viewBox="0 0 512 512"><title>heart</title><!--! Font Awesome Pro 6.4.2 by @fontawesome - https://fontawesome.com License - https://fontawesome.com/license (Commercial License) Copyright 2023 Fonticons, Inc.--><path d="m225.8 468.2-2.5-2.3L48.1 303.2C17.4 274.7 0 234.7 0 192.8v-3.3c0-70.4 50-130.8 119.2-144 39.4-7.6 79.7 1.5 111.8 24.1 9 6.4 17.4 13.8 25 22.3 4.2-4.8 8.7-9.2 13.5-13.3 3.7-3.2 7.5-6.2 11.5-9 32.1-22.6 72.4-31.7 111.8-24.2C462 58.6 512 119.1 512 189.5v3.3c0 41.9-17.4 81.9-48.1 110.4L288.7 465.9l-2.5 2.3c-8.2 7.6-19 11.9-30.2 11.9s-22-4.2-30.2-11.9zM239.1 145c-.4-.3-.7-.7-1-1.1l-17.8-20-.1-.1c-23.1-25.9-58-37.7-92-31.2-46.6 8.9-80.2 49.5-80.2 96.9v3.3c0 28.5 11.9 55.8 32.8 75.2L256 430.7 431.2 268a102.7 102.7 0 0 0 32.8-75.2v-3.3c0-47.3-33.6-88-80.1-96.9-34-6.5-69 5.4-92 31.2l-.1.1-.1.1-17.8 20c-.3.4-.7.7-1 1.1-4.5 4.5-10.6 7-16.9 7s-12.4-2.5-16.9-7z"/></symbol><symbol fill="none" id="icon-hydraulic" viewBox="0 0 102 102"><title>hydraulic</title><path d="M82.142 90.691H80.07a5.755 5.755 0 0 0-.608-.404l-17.077-9.86 2.85-1.644a1.499 1.499 0 0 0-1.5-2.596l-4.347 2.51-5.392-3.113L68.3 67.326l5.391 3.113-3.906 2.255a1.498 1.498 0 1 0 1.499 2.596l8.081-4.666-.102-.036a5.655 5.655 0 0 0 2.283-2.189 5.656 5.656 0 0 0 .569-4.32 5.658 5.658 0 0 0-2.653-3.457l-17.077-9.859 15.576-8.993a5.676 5.676 0 0 0 3.585-2.68 5.656 5.656 0 0 0 .569-4.32 5.657 5.657 0 0 0-2.653-3.457l-17.076-9.858 17.076-9.86c.154-.088.3-.186.443-.286h2.236a5.66 5.66 0 0 0 5.654-5.655A5.661 5.661 0 0 0 82.142 0H41.104a1.498 1.498 0 1 0 0 2.997h41.038a2.66 2.66 0 0 1 2.657 2.657 2.66 2.66 0 0 1-2.657 2.657H19.858a2.66 2.66 0 0 1-2.657-2.657 2.66 2.66 0 0 1 2.657-2.657h14.238a1.498 1.498 0 1 0 0-2.997H19.858a5.66 5.66 0 0 0-5.654 5.654 5.66 5.66 0 0 0 5.654 5.655h2.236c.143.1.29.197.443.287l17.077 9.858-15.574 8.992a5.675 5.675 0 0 0-3.587 2.681 5.656 5.656 0 0 0-.569 4.32 5.656 5.656 0 0 0 2.653 3.457l17.077 9.86s-16.9 9.82-16.852 9.824a5.657 5.657 0 0 0-2.309 2.203 5.656 5.656 0 0 0-.569 4.32 5.657 5.657 0 0 0 2.653 3.457l17.076 9.86-17.076 9.859a5.78 5.78 0 0 0-.606.404h-2.073a5.66 5.66 0 0 0-5.654 5.655A5.66 5.66 0 0 0 19.858 102h62.284a5.66 5.66 0 0 0 5.654-5.654 5.66 5.66 0 0 0-5.654-5.655ZM51 73.853l-14.304-8.258L51 57.337l14.303 8.258L51 73.853Zm8.389-24.82-5.392-3.113 13.996-8.08 5.392 3.112-13.996 8.08Zm-8.39-4.844-13.995-8.08L51 28.029l13.996 8.08L51 44.189Zm22.966-32.88-14.576 8.415-5.392-3.113 9.184-5.302h10.784Zm-16.778 0L51 14.88l-6.187-3.572h12.374Zm-29.152 0h10.784l39.145 22.6a2.699 2.699 0 0 1 .987 3.683 2.699 2.699 0 0 1-3.683.986l-47.233-27.27Zm14.576 11.876 5.392 3.113-13.996 8.08-5.392-3.112 13.996-8.081ZM24.036 38.308a2.677 2.677 0 0 1-1.256-1.637 2.698 2.698 0 0 1 3.952-3.032l51.232 29.58a2.699 2.699 0 0 1 .987 3.682 2.7 2.7 0 0 1-3.683.987l-51.232-29.58Zm18.575 14.186 5.392 3.113-14.304 8.258-5.391-3.113 14.303-8.258ZM24.036 67.973a2.699 2.699 0 0 1-.987-3.683 2.698 2.698 0 0 1 3.683-.987L74.17 90.691H63.386l-39.35-22.718ZM57.391 90.69H44.608L51 87.001l6.391 3.69Zm-14.78-8.533 5.392 3.113-9.389 5.42H27.831l14.78-8.533Zm39.53 16.845H19.859a2.66 2.66 0 0 1-2.657-2.657 2.66 2.66 0 0 1 2.657-2.657h62.284a2.66 2.66 0 0 1 2.657 2.657 2.66 2.66 0 0 1-2.657 2.657Z" fill="#F8991D"/></symbol><symbol id="icon-logo" viewBox="0 0 243 49"><title>logo</title><path d="M29.912 21.278c-.56-.994-1.08-1.989-1.64-2.983-.08-.16-.2-.239-.36-.239-.32-.04-.639-.119-.959-.159-.12-.04-.2 0-.28.12-.08.159-.2.318-.32.477-.52-.318-.999-.597-1.479-.915.24-.358.44-.716.68-1.114a.3.3 0 0 0 .08-.159c0-.08-.04-.198-.04-.278-.08.04-.24.04-.28.08-.24.357-.44.715-.68 1.034-.08.08-.16.159-.28.238-.04.04-.08.08-.08.12.08.198-.04.278-.12.437-.2.318-.36.597-.559.915-.08.12-.16.278 0 .358.16.08.24-.04.32-.16l.72-1.192c.48.318.959.596 1.479.874-.16.24-.28.438-.44.677.32.358.68.755 1 1.153l.879.994c.08.08.12.16.04.318-.36.637-.68 1.273-1 1.91-.04.079-.12.159-.2.159h-4.197c-.04 0-.04 0-.08-.04v-1.034c0-.756-.36-1.154-1.12-1.154H15.68V10.937h8.555c.16 0 .24.08.32.199l4.197 7.994c.44.835.88 1.67 1.32 2.466.04.08.08.16.08.278a1.87 1.87 0 0 0-.24-.596Zm-5.797 4.971h-1.04c-.16 0-.24-.08-.24-.238 0-.716-.04-.716.72-.716h1.04c.16 0 .24.04.24.238-.04.836.08.676-.72.716Zm-3.039.04c0 .239-.2.398-.44.398h-.48c.32-.796.6-1.551.88-2.307h.04v1.91Zm-1.479.239c.44-1.154.88-2.347 1.36-3.5.04-.04.04-.16 0-.16a2.247 2.247 0 0 0-.48-.158c-.16-.04-.16.119-.2.198-.32.875-.68 1.75-1 2.625-.16.398-.28.756-.44 1.194h.52c.12 0 .2-.08.24-.2Zm-1.639.199c.2 0 .28-.04.36-.24.28-.794.6-1.59.88-2.385.16-.478.36-.915.519-1.432h-.48c-.16 0-.24.04-.32.199-.44 1.153-.84 2.267-1.279 3.38-.04.12-.08.279-.16.438.2 0 .36 0 .48.04Zm-1.28 0c.2 0 .24-.08.32-.24.44-1.192.92-2.385 1.36-3.578.04-.08.04-.16.08-.24h-.4c-.2-.039-.32.04-.36.24-.28.795-.6 1.59-.92 2.386-.16.437-.36.914-.52 1.392.16 0 .32 0 .44.04Zm-.839-.637c.4-1.034.8-2.108 1.2-3.142.04-.08.04-.159.08-.238h-.44c-.2 0-.28.08-.32.238-.2.557-.4 1.114-.6 1.63-.08.28-.2.518-.28.796.08.2.24.438.36.716Zm-.6-1.949c.2-.477.36-.954.56-1.471h-.52c-.12 0-.2.04-.24.159-.12.358-.28.676-.4 1.034.12.278.28.517.4.756.08-.16.16-.319.2-.478Zm-.92-.954c-.08-.16-.159-.358-.279-.517h.48c-.08.199-.16.358-.2.517Zm21.31-17.54a.82.82 0 0 0-.8-.755c-.4 0-.76.358-.76.756v19.448h-1.998c-.04 0-.08-.04-.12-.08.04-.04.08-.08.12-.08h.56c-2.2-4.175-4.439-8.351-6.637-12.527.2.04.32.08.48.08v-2.03c-.56.04-.92.28-1.08.836-.16-.278-.28-.517-.4-.756-.08-.159-.16-.198-.36-.198H15v11.335H.408c-.32 0-.44.08-.4.397.08.557.12 1.074.28 1.591.36 1.273 1.08 2.227 2.399 2.625.24.08.32.16.36.358.16.597.4 1.153.76 1.63.68.915 1.559 1.591 2.718 1.591 2.519.04 5.037 0 7.516 0 .24 0 .28-.04.16-.278-.2-.358-.4-.716-.56-1.074h-2.159c-1.399 0-2.758 0-4.157-.04-1.36 0-2.44-.556-2.999-1.79-.12-.238-.24-.477.24-.477 2.479-.04 4.957 0 7.436-.04h.32c-.2-.357-.4-.755-.6-1.153 0-.04-.04-.08-.08-.119-2.598 0-5.157 0-7.756.04-.92 0-2.119-.796-2.398-1.63-.16-.518-.16-.518.36-.518H12.08l1.44 2.784v.08c.559 1.153 1.159 2.306 1.718 3.42.04.08.08.16.12.199.36-1.114 1.48-1.949 2.679-1.87 1.48.08 2.519 1.234 2.559 2.546h4.317c-.16-1.83.4-3.38 2-4.375 1.638-.994 3.237-.795 4.837.199 0-.08.04-.159.04-.239h2.119V31.5h1.719V5.886c0 .04.04-.12 0-.238Z"/><path d="M6.844 0v14.358h2.638V2.625h35.981v21.874c0 6.762-3.438 12.926-9.155 16.466l-8.835 4.932-8.796-4.892a19.326 19.326 0 0 1-7.076-7.716H8.723a22.126 22.126 0 0 0 8.635 9.943l10.115 5.648 10.154-5.688c6.557-4.056 10.435-11.056 10.435-18.732V0H6.844Z" fill="#F79633"/><path d="M31.75 29.272c-.04-1.273-1.08-2.307-2.359-2.267-1.32.04-2.319 1.074-2.279 2.426.04 1.233 1.08 2.227 2.36 2.227 1.278-.04 2.318-1.113 2.278-2.386Zm1.56.16a3.88 3.88 0 0 1-4.119 3.738c-2.159-.12-3.758-1.95-3.638-4.137.12-2.028 2-3.698 4.038-3.579 2.279.12 3.798 1.989 3.718 3.977ZM36.027 6.96h.44v24.26h4.518c.56 0 1.12.12 1.639.2.04 0 .08.119.16.159l-.04.04h-6.717V6.96ZM21.838 21.397c0 .08-.04.12-.04.2H17.72c-.2-1.671-.36-3.381-.56-5.092h.56c0-.198.04-.358.04-.517.04-.198.12-.358.36-.397.24-.04.4.08.44.278.12.398.24.796.24 1.233.04.994 0 2.028-.04 3.023v.437c.36-.04.719-.12 1.079-.159.64-.04 1.28-.08 1.959-.08.08 0 .2.04.28.04.2.04.4.08.44.318.04.24-.12.438-.28.597-.08.12-.24.08-.4.12Z"/><path d="M30.232 29.312a.8.8 0 0 1-1.6 0c0-.438.4-.796.8-.796.48 0 .8.358.8.796Zm-10.633.875c0-.756-.64-1.392-1.4-1.392-.8.04-1.399.636-1.359 1.471 0 .756.68 1.353 1.4 1.313.759 0 1.359-.637 1.359-1.392Zm.92.08c-.04 1.312-1.16 2.306-2.48 2.227-1.319-.08-2.278-1.194-2.198-2.506.08-1.233 1.199-2.227 2.438-2.148 1.36.12 2.28 1.233 2.24 2.426Z"/><path d="M18.678 30.227a.46.46 0 0 1-.48.477.485.485 0 0 1-.48-.477c0-.239.24-.478.48-.478.28-.04.48.2.48.478Zm49.706 3.077c-2.739 0-5-.91-6.786-2.73-1.785-1.82-2.678-4.065-2.678-6.734 0-2.687.893-4.931 2.678-6.734 1.785-1.82 4.047-2.73 6.786-2.73 1.647 0 3.163.39 4.55 1.17 1.404.762 2.496 1.803 3.276 3.12l-3.094 1.794a4.72 4.72 0 0 0-1.924-1.898c-.832-.468-1.768-.702-2.808-.702-1.768 0-3.198.555-4.29 1.664-1.075 1.11-1.612 2.548-1.612 4.316 0 1.75.537 3.18 1.612 4.29 1.092 1.11 2.522 1.664 4.29 1.664 1.04 0 1.976-.226 2.808-.676.85-.468 1.49-1.1 1.924-1.898l3.094 1.794c-.78 1.317-1.863 2.366-3.25 3.146-1.387.763-2.912 1.144-4.576 1.144ZM92.012 14.74v18.2h-3.588V18.172h-6.422V32.94h-3.588v-18.2h13.598Zm6.976 14.768h7.67v3.432H95.4v-18.2h11.128v3.432h-7.54v3.874h6.89v3.38h-6.89v4.082Zm23.797 0h1.95v6.916h-3.588V32.94h-11.96v-18.2h3.588v14.768h6.422V14.74h3.588v14.768Zm22.164-14.768v18.2h-3.562V21.136l-5.122 8.45h-.416l-5.122-8.424V32.94h-3.588v-18.2h3.692l5.226 8.606 5.2-8.606h3.692Zm15.091 18.2-1.092-3.276h-7.254l-1.092 3.276h-3.874l6.37-18.2h4.446l6.396 18.2h-3.9Zm-7.202-6.63h4.992l-2.496-7.436-2.496 7.436Zm30.419-11.57h3.588v18.2h-21.138v-18.2h3.588v14.768h5.2V14.74h3.562v14.768h5.2V14.74Zm17.507 18.2V21.838l-7.8 11.102h-2.73v-18.2h3.588v11.128l7.8-11.128h2.73v18.2h-3.588Zm17.313-18.2h3.562v18.2h-3.562V25.4h-6.76v7.54h-3.588v-18.2h3.588v7.228h6.76V14.74Zm18.643 18.2-1.092-3.276h-7.254l-1.092 3.276h-3.874l6.37-18.2h4.446l6.396 18.2h-3.9Zm-7.202-6.63h4.992l-2.496-7.436-2.496 7.436Z"/></symbol><symbol id="icon-magnifying-glass" viewBox="0 0 512 512"><title>magnifying-glass</title><!--! Font Awesome Pro 6.4.2 by @fontawesome - https://fontawesome.com License - https://fontawesome.com/license (Commercial License) Copyright 2023 Fonticons, Inc.--><path d="M368 208a160 160 0 1 0-320 0 160 160 0 1 0 320 0zm-30.9 163.1C301.7 399.2 256.8 416 208 416 93.1 416 0 322.9 0 208S93.1 0 208 0s208 93.1 208 208c0 48.8-16.8 93.7-44.9 129.1L505 471c9.4 9.4 9.4 24.6 0 33.9s-24.6 9.4-33.9 0l-134-133.8z"/></symbol><symbol id="icon-mail" viewBox="0 0 512 512"><title>mail</title><path d="M64 96c-17.7 0-32 14.3-32 32v39.9l195.6 143.4c16.9 12.4 39.9 12.4 56.8 0L480 167.9V128c0-17.7-14.3-32-32-32H64zM32 207.6V384c0 17.7 14.3 32 32 32h384c17.7 0 32-14.3 32-32V207.6L303.3 337.1c-28.2 20.6-66.5 20.6-94.6 0L32 207.6zM0 128c0-35.3 28.7-64 64-64h384c35.3 0 64 28.7 64 64v256c0 35.3-28.7 64-64 64H64c-35.3 0-64-28.7-64-64V128z"/></symbol><symbol fill="none" id="icon-oil" viewBox="0 0 101 101"><title>oil</title><path d="M28.109 58.75c1.125 0 2.224-.34 3.17-.997L56.923 40a5.586 5.586 0 0 0 1.546-7.589 5.557 5.557 0 0 0-3.52-2.476 5.55 5.55 0 0 0-4.24.757L24.481 47.566a5.547 5.547 0 0 0-2.45 3.566 5.553 5.553 0 0 0 .82 4.242l.587.88a5.557 5.557 0 0 0 3.608 2.395c.355.068.71.101 1.063.101Zm-1.72-4.459-.586-.882a2.02 2.02 0 0 1-.3-1.554 2.037 2.037 0 0 1 .895-1.307l26.229-16.874a2.044 2.044 0 0 1 1.555-.277c.536.119.995.442 1.289.908.588.932.34 2.154-.566 2.781L29.262 54.838a2.034 2.034 0 0 1-1.55.328 2.033 2.033 0 0 1-1.322-.875Z" fill="#F8991D"/><path d="M97.454 65.861c0-7.579-10.775-22.383-14.18-26.874V25.233c0-3.448-2.293-6.34-5.422-7.317v-6.254a6.389 6.389 0 0 0-6.38-6.38H61.084a6.389 6.389 0 0 0-6.38 6.38v5.87h-1.02c-1.54 0-3.03.455-4.306 1.317L16.593 40.961a13.58 13.58 0 0 0-5.995 11.273v37.034c0 6.47 5.262 11.732 11.731 11.732h49.213c6.47 0 11.732-5.263 11.732-11.732v-7.11c7.999-1.122 14.18-7.993 14.18-16.297ZM58.25 11.662a2.84 2.84 0 0 1 2.835-2.836h10.386a2.84 2.84 0 0 1 2.835 2.836v5.87H58.25v-5.87Zm13.292 85.793H22.328c-4.514 0-8.186-3.673-8.186-8.187V52.234a10.04 10.04 0 0 1 4.434-8.335l32.787-22.112a4.14 4.14 0 0 1 2.322-.71h21.889a4.161 4.161 0 0 1 4.154 4.155v12.473c-.044.044-.106.063-.146.112-1.543 1.977-15.077 19.56-15.077 28.044 0 8.662 6.724 15.768 15.223 16.412v6.996c0 4.513-3.671 8.186-8.186 8.186ZM80.98 78.79c-7.128 0-12.929-5.8-12.929-12.93 0-5.53 8.343-17.872 12.93-24.027 4.587 6.154 12.928 18.493 12.928 24.027 0 7.13-5.802 12.93-12.929 12.93ZM26.03 25.614a6.454 6.454 0 0 0 6.446-6.447c0-2.96-3.865-8.142-5.05-9.66-.671-.86-2.122-.86-2.793 0-1.185 1.518-5.05 6.7-5.05 9.66a6.455 6.455 0 0 0 6.447 6.447Zm0-12.018c1.567 2.267 2.901 4.658 2.901 5.57 0 1.6-1.302 2.903-2.902 2.903a2.906 2.906 0 0 1-2.9-2.902c0-.911 1.333-3.303 2.9-5.57Zm-9.507-3.292c0-2.96-3.866-8.142-5.05-9.659-.672-.86-2.122-.86-2.794 0-1.184 1.517-5.05 6.698-5.05 9.659a6.454 6.454 0 0 0 6.447 6.447 6.454 6.454 0 0 0 6.447-6.447Zm-6.446 2.902a2.906 2.906 0 0 1-2.902-2.902c0-.91 1.335-3.302 2.902-5.571 1.566 2.268 2.9 4.658 2.9 5.571 0 1.6-1.3 2.902-2.9 2.902Z" fill="#F8991D"/><path d="M88.591 62.89c-.98 0-1.773.793-1.773 1.772a6.212 6.212 0 0 1-6.204 6.204 1.772 1.772 0 1 0 0 3.545c5.376 0 9.75-4.373 9.75-9.749 0-.979-.793-1.773-1.773-1.773ZM65.548 85.047H28.323a1.772 1.772 0 0 0 0 3.545h37.225a1.772 1.772 0 1 0 0-3.545Z" fill="#F8991D"/></symbol><symbol fill="none" id="icon-ok" viewBox="0 0 10 15"><title>ok</title><path d="M4.719.586C2.59.586.867 2.249.867 4.299c0 2.051 1.724 3.714 3.852 3.714 2.127 0 3.851-1.663 3.851-3.714C8.57 2.25 6.846.586 4.719.586Zm0 5.249c-.88 0-1.592-.688-1.592-1.536 0-.847.712-1.535 1.592-1.535.879 0 1.592.688 1.592 1.535 0 .848-.713 1.536-1.592 1.536Zm1.421 5.132c1.542-.303 2.466-1.007 2.515-1.045a.985.985 0 0 0 .162-1.419 1.074 1.074 0 0 0-1.472-.156c-.01.007-.995.736-2.617.737-1.621 0-2.627-.73-2.637-.737a1.074 1.074 0 0 0-1.472.156.985.985 0 0 0 .162 1.42c.05.038 1.011.76 2.597 1.056l-2.21 2.226a.984.984 0 0 0 .027 1.428c.204.189.465.283.727.283.275 0 .549-.104.754-.31L4.728 12.5l2.26 2.121c.41.394 1.072.394 1.48 0a.984.984 0 0 0 0-1.429L6.14 10.967Z" fill="#fff"/></symbol><symbol id="icon-person-dolly" viewBox="0 0 100 100"><title>person-dolly</title><path d="M4.167 10.417C4.167 4.662 8.829 0 14.583 0 20.337 0 25 4.662 25 10.417c0 5.754-4.663 10.416-10.417 10.416S4.167 16.171 4.167 10.417Zm95.725 64.766a4.161 4.161 0 0 0-5-3.12l-32.48 7.516-12.516-55.491a4.166 4.166 0 1 0-8.13 1.829l4.492 19.916h-10.35L30.2 34.421C27.296 28.608 21.454 25 14.958 25 6.713 25 0 31.708 0 40.017l.22 15.75c.084 5.804 3.1 11.054 8.076 14.045l10.517 6.334a4.179 4.179 0 0 1 2.016 3.567v16.12A4.165 4.165 0 0 0 24.996 100c2.3 0 4.167-1.862 4.167-4.167v-16.12c0-4.363-2.321-8.467-6.059-10.709l-10.516-6.329A8.288 8.288 0 0 1 8.55 55.65l-.22-15.696a6.631 6.631 0 0 1 6.624-6.625c.583 0 1.154.059 1.709.167v20.666a4.166 4.166 0 0 0 4.166 4.167c2.3 0 4.167-1.862 4.167-4.166V42.645l3.454 6.908a8.284 8.284 0 0 0 7.454 4.604h12.23l5.703 25.284c-4.591 1.087-8.008 5.208-8.008 10.133 0 5.754 4.663 10.417 10.417 10.417s10.416-4.663 10.416-10.417c0-.817-.095-1.608-.275-2.37l30.38-7.03a4.172 4.172 0 0 0 3.12-5l.005.008ZM8.333 79.167a4.165 4.165 0 0 0-4.166 4.166v12.5A4.166 4.166 0 0 0 8.333 100c2.3 0 4.167-1.862 4.167-4.167v-12.5a4.166 4.166 0 0 0-4.167-4.166ZM62.78 48.954c-1.317-5.629 2.18-11.287 7.8-12.617l11.563-2.75a10.416 10.416 0 0 1 7.954 1.288 10.427 10.427 0 0 1 4.704 6.533l2.783 11.884c1.317 5.629-2.179 11.287-7.8 12.616l-11.562 2.75c-.813.196-1.633.288-2.446.288-1.93 0-3.825-.534-5.504-1.575a10.425 10.425 0 0 1-4.704-6.538L62.78 48.954Zm8.113-1.904 2.783 11.88c.133.57.48 1.05.975 1.353a2.205 2.205 0 0 0 1.646.267l11.562-2.75a2.174 2.174 0 0 0 1.613-2.608l-2.784-11.884a2.159 2.159 0 0 0-.97-1.35 2.226 2.226 0 0 0-1.65-.266l-11.563 2.75a2.174 2.174 0 0 0-1.612 2.608Z"/></symbol><symbol id="icon-phone" viewBox="0 0 24 24"><title>phone</title><path d="M10.5 18.75a.75.75 0 1 0 0 1.5h3a.75.75 0 1 0 0-1.5h-3Z"/><path fill-rule="evenodd" clip-rule="evenodd" d="M8.625.75A3.375 3.375 0 0 0 5.25 4.125v15.75a3.375 3.375 0 0 0 3.375 3.375h6.75a3.375 3.375 0 0 0 3.375-3.375V4.125A3.375 3.375 0 0 0 15.375.75h-6.75ZM7.5 4.125C7.5 3.504 8.004 3 8.625 3H9.75v.375c0 .621.504 1.125 1.125 1.125h2.25c.621 0 1.125-.504 1.125-1.125V3h1.125c.621 0 1.125.504 1.125 1.125v15.75c0 .621-.504 1.125-1.125 1.125h-6.75A1.125 1.125 0 0 1 7.5 19.875V4.125Z"/></symbol><symbol id="icon-pin" viewBox="0 0 18 27"><title>pin</title><path d="M9 6.35c.852 0 1.67.342 2.273.952a3.268 3.268 0 0 1 .697 3.542 3.252 3.252 0 0 1-.697 1.054A3.211 3.211 0 0 1 9 12.85c-.852 0-1.67-.342-2.273-.952A3.268 3.268 0 0 1 5.786 9.6c0-.862.338-1.689.941-2.298A3.196 3.196 0 0 1 9 6.35ZM9 .5a8.95 8.95 0 0 1 6.364 2.665A9.152 9.152 0 0 1 18 9.6c0 6.825-9 16.9-9 16.9S0 16.425 0 9.6c0-2.413.948-4.728 2.636-6.435A8.95 8.95 0 0 1 9 .5Zm0 2.6c-1.705 0-3.34.685-4.546 1.904A6.537 6.537 0 0 0 2.571 9.6c0 1.3 0 3.9 6.429 12.623C15.429 13.5 15.429 10.9 15.429 9.6a6.537 6.537 0 0 0-1.883-4.596A6.393 6.393 0 0 0 9 3.1Z"/></symbol><symbol id="icon-revenue" viewBox="0 0 100 100"><title>revenue</title><path d="M66.668 45.942V12.5h8.333v25c-3.92 2.496-6.25 4.967-8.333 8.442Zm23.688 21.841-12.671-2.112A3.201 3.201 0 0 1 75 62.504a4.17 4.17 0 0 1 4.167-4.166H87.5a4.17 4.17 0 0 1 4.167 4.166H100c0-6.892-5.608-12.5-12.5-12.5v-8.333h-8.333v8.333c-6.892 0-12.5 5.608-12.5 12.5a11.508 11.508 0 0 0 9.646 11.388l12.67 2.112a3.201 3.201 0 0 1 2.684 3.167 4.17 4.17 0 0 1-4.167 4.166h-8.333A4.17 4.17 0 0 1 75 79.171h-8.333c0 6.891 5.608 12.5 12.5 12.5v8.333H87.5v-8.333c6.892 0 12.5-5.609 12.5-12.5a11.508 11.508 0 0 0-9.645-11.388ZM25 100.004h8.334v-62.5H25v62.5Zm-20.833 0H12.5v-50H4.168v50Zm41.667 0h8.333V25h-8.333v75.004ZM95.835 0H87.5v33.333h8.334V0Z"/></symbol><symbol id="icon-right-arrow" viewBox="0 0 12 12"><title>right-arrow</title><path d="M11.863 5.668 9.412 3.23a.469.469 0 0 0-.662.665l1.645 1.636H.469a.469.469 0 1 0 0 .938h9.927L8.75 8.105a.469.469 0 1 0 .662.665l2.45-2.438a.47.47 0 0 0 0-.664Z"/></symbol><symbol id="icon-shopping-cart" viewBox="0 0 16 16"><title>shopping-cart</title><path fill-rule="evenodd" clip-rule="evenodd" d="M.333 2c0-.368.299-.667.667-.667h1.167c.306 0 .572.209.647.505l.373 1.495h11.48a.667.667 0 0 1 .647.829l-1.667 6.666a.667.667 0 0 1-.647.505H4.334a.667.667 0 0 1-.647-.505l-2.04-8.161H1A.667.667 0 0 1 .333 2Zm4 9.333a1.667 1.667 0 1 0 0 3.334 1.667 1.667 0 0 0 0-3.334Zm8.667 0a1.667 1.667 0 1 0 0 3.334 1.667 1.667 0 0 0 0-3.334ZM3.52 4.667 4.855 10h7.626l1.333-5.333H3.521Zm5.147.666c.368 0 .667.299.667.667v.667H10A.667.667 0 1 1 10 8h-.666v.667a.667.667 0 0 1-1.334 0V8h-.667a.667.667 0 0 1 0-1.333H8V6c0-.368.299-.667.667-.667Zm-4.333 7.334a.333.333 0 1 0 0 .666.333.333 0 0 0 0-.666Zm8.666 0a.333.333 0 1 0 0 .666.333.333 0 0 0 0-.666Z"/></symbol><symbol fill="none" id="icon-steering-wheel" viewBox="0 0 101 101"><title>steering-wheel</title><path d="M99.52 50.5c0 27.073-21.947 49.02-49.02 49.02-27.073 0-49.02-21.947-49.02-49.02 0-27.073 21.947-49.02 49.02-49.02 27.073 0 49.02 21.947 49.02 49.02Z" stroke="#F8991D" stroke-width="3" stroke-miterlimit="10" stroke-linecap="round" stroke-linejoin="round"/><path d="M55.244 85.289V72.667c0-4.58 2.01-8.845 5.263-12.07l.09-.09c3.225-3.253 7.49-5.263 12.07-5.263h12.622m-69.578 0h12.622c4.58 0 8.845 2.01 12.07 5.263l.09.09c3.253 3.225 5.263 7.49 5.263 12.07v12.622m39.533-39.533H72.668c-4.527 0-8.813-1.902-11.96-5.156A14.154 14.154 0 0 0 50.5 36.268c-4.01 0-7.626 1.662-10.209 4.332-3.146 3.254-7.432 5.156-11.959 5.156h-12.62" stroke="#F8991D" stroke-width="3" stroke-miterlimit="10" stroke-linecap="round" stroke-linejoin="round"/><path d="M53.375 43.152a7.857 7.857 0 0 0-2.875-.559 7.907 7.907 0 1 0 7.906 7.907 7.851 7.851 0 0 0-.558-2.876" stroke="#F8991D" stroke-width="3" stroke-miterlimit="10" stroke-linecap="round" stroke-linejoin="round"/><path d="M20.42 24.892c-4.084 4.793-7.061 10.558-8.488 16.919-.27 1.207.629 2.364 1.867 2.364 1.056 0 1.912.856 1.912 1.912v8.826a1.913 1.913 0 0 1-1.912 1.912h-.001c-1.24 0-2.136 1.16-1.865 2.37 3.334 14.85 15.022 26.538 29.872 29.872 1.21.271 2.37-.624 2.37-1.865v0c0-1.057.856-1.913 1.912-1.913h8.826c1.056 0 1.912.856 1.912 1.912v.001c0 1.24 1.16 2.136 2.37 1.865a39.387 39.387 0 0 0 16.92-8.479m4.473-4.473a39.387 39.387 0 0 0 8.479-16.92c.271-1.21-.624-2.37-1.865-2.37h0a1.912 1.912 0 0 1-1.913-1.912v-8.826c0-1.056.856-1.912 1.912-1.912 1.238 0 2.138-1.156 1.867-2.365-3.96-17.652-19.72-30.843-38.568-30.843-9.778 0-18.707 3.572-25.606 9.454" stroke="#F8991D" stroke-width="3" stroke-miterlimit="10" stroke-linecap="round" stroke-linejoin="round"/></symbol><symbol id="icon-tg" viewBox="0 0 48 48"><title>tg</title><path d="M41.42 7.309s3.885-1.515 3.56 2.164c-.107 1.515-1.078 6.818-1.834 12.553l-2.59 16.99s-.216 2.489-2.159 2.922c-1.942.432-4.856-1.515-5.396-1.948-.432-.325-8.094-5.195-10.792-7.575-.756-.65-1.62-1.948.108-3.463L33.648 18.13c1.295-1.298 2.59-4.328-2.806-.649l-15.11 10.28s-1.727 1.083-4.964.109l-7.016-2.165s-2.59-1.623 1.835-3.246c10.793-5.086 24.068-10.28 35.831-15.15Z"/></symbol><symbol id="icon-tools" viewBox="0 0 100 100"><title>tools</title><path d="m96.338 78.662-32-32.004-5.879 5.825-20.875-20.875v-17.35L13.038.104.184 12.954 14.343 37.5h17.35l20.845 20.846-5.962 5.904 32.083 32.088A12.435 12.435 0 0 0 87.501 100a12.4 12.4 0 0 0 8.837-3.662c4.875-4.875 4.875-12.8 0-17.675ZM29.251 29.167H19.159l-8.558-14.838 3.812-3.817 14.842 8.563-.004 10.092Zm61.196 61.279c-1.571 1.579-4.317 1.579-5.892 0L58.388 64.283l5.921-5.862 26.134 26.133a4.17 4.17 0 0 1 0 5.892h.004Zm-44.613-61.85V9.892C51.538 3.82 59.614 0 68.584 0c4.921 0 9.659 1.133 14.088 3.38l5.129 2.6-20.08 20.074A4.138 4.138 0 0 0 66.502 29c0 1.113.433 2.158 1.217 2.942 1.579 1.579 4.32 1.575 5.895 0L93.71 11.846l2.617 5.058c2.325 4.488 3.504 9.313 3.504 14.342 0 10.625-5.337 20.012-13.462 25.658l-6.03-6.029c6.671-4.013 11.159-11.3 11.159-19.633a22.67 22.67 0 0 0-.525-4.88L79.505 37.83c-4.875 4.871-12.804 4.875-17.68 0a12.411 12.411 0 0 1-3.662-8.837 12.4 12.4 0 0 1 3.663-8.838L73.188 8.792a22.922 22.922 0 0 0-4.604-.467c-11.737 0-21.429 8.875-22.75 20.262v.009Zm-7.62 39.079 5.891 5.892-22.77 22.77A12.425 12.425 0 0 1 12.496 100c-3.338 0-6.48-1.3-8.842-3.662-4.87-4.875-4.87-12.8 0-17.675L32.36 49.957l5.892 5.892L9.547 84.554a4.17 4.17 0 0 0 0 5.892c1.575 1.579 4.32 1.579 5.891 0l22.775-22.771Z"/></symbol><symbol id="icon-trash-can" viewBox="0 0 448 512"><title>trash-can</title><!--! Font Awesome Pro 6.4.2 by @fontawesome - https://fontawesome.com License - https://fontawesome.com/license (Commercial License) Copyright 2023 Fonticons, Inc.--><path d="m170.5 51.6-19 28.4h145l-19-28.4c-1.5-2.2-4-3.6-6.7-3.6h-93.7c-2.7 0-5.2 1.3-6.7 3.6zm147-26.6 36.7 55H424c13.3 0 24 10.7 24 24s-10.7 24-24 24h-8v304c0 44.2-35.8 80-80 80H112c-44.2 0-80-35.8-80-80V128h-8c-13.3 0-24-10.7-24-24s10.7-24 24-24h69.8l36.7-55.1C140.9 9.4 158.4 0 177.1 0h93.7c18.7 0 36.2 9.4 46.6 24.9zM80 128v304c0 17.7 14.3 32 32 32h224c17.7 0 32-14.3 32-32V128H80zm80 64v208c0 8.8-7.2 16-16 16s-16-7.2-16-16V192c0-8.8 7.2-16 16-16s16 7.2 16 16zm80 0v208c0 8.8-7.2 16-16 16s-16-7.2-16-16V192c0-8.8 7.2-16 16-16s16 7.2 16 16zm80 0v208c0 8.8-7.2 16-16 16s-16-7.2-16-16V192c0-8.8 7.2-16 16-16s16 7.2 16 16z"/></symbol><symbol id="icon-user" viewBox="0 0 448 512"><title>user</title><!--! Font Awesome Pro 6.4.2 by @fontawesome - https://fontawesome.com License - https://fontawesome.com/license (Commercial License) Copyright 2023 Fonticons, Inc.--><path d="M304 128a80 80 0 1 0-160 0 80 80 0 1 0 160 0zm-208 0a128 128 0 1 1 256 0 128 128 0 1 1-256 0zM49.3 464h349.4c-8.9-63.3-63.3-112-129-112h-91.4c-65.7 0-120.1 48.7-129 112zM0 482.3C0 383.8 79.8 304 178.3 304h91.4c98.5 0 178.3 79.8 178.3 178.3 0 16.4-13.3 29.7-29.7 29.7H29.7C13.3 512 0 498.7 0 482.3z"/></symbol><symbol id="icon-vk" viewBox="0 0 15 8"><title>vk</title><path fill-rule="evenodd" clip-rule="evenodd" d="M13.983.601c.103-.306 0-.532-.467-.532h-1.551c-.392 0-.57.199-.675.409 0 0-.795 1.796-1.914 2.963-.363.339-.524.452-.72.452-.104 0-.243-.113-.243-.42V.585c0-.366-.12-.532-.45-.532H5.526c-.242 0-.392.166-.392.339 0 .35.56.435.617 1.42v2.134c0 .463-.092.549-.288.549-.525 0-1.805-1.812-2.572-3.878-.15-.408-.3-.559-.692-.559H.63c-.45 0-.525.2-.525.409 0 .376.525 2.29 2.457 4.813C3.842 7.006 5.663 7.931 7.3 7.931c.991 0 1.112-.21 1.112-.559V6.065c0-.42.093-.49.404-.49.225 0 .634.114 1.55.942 1.056.984 1.235 1.43 1.823 1.43h1.55c.45 0 .664-.21.543-.618-.133-.409-.646-.995-1.31-1.7-.362-.392-.904-.828-1.066-1.037-.225-.28-.167-.393 0-.646-.017-.005 1.88-2.506 2.076-3.345Z"/></symbol><symbol fill="none" id="icon-wrench" viewBox="0 0 102 102"><title>wrench</title><path d="M97.219 58.969a1.594 1.594 0 0 0 1.594-1.594v-12.75a1.594 1.594 0 0 0-1.594-1.594H88.4a38.02 38.02 0 0 0-5.318-12.84l6.229-6.243a1.594 1.594 0 0 0 0-2.252l-9.005-9.005a1.594 1.594 0 0 0-2.252 0l-6.244 6.227A38.02 38.02 0 0 0 58.969 13.6V4.78a1.594 1.594 0 0 0-1.594-1.593h-12.75a1.594 1.594 0 0 0-1.594 1.593v8.82a38.02 38.02 0 0 0-12.84 5.318l-6.243-6.229a1.594 1.594 0 0 0-2.252 0l-9.005 9.005a1.594 1.594 0 0 0 0 2.252l6.228 6.243A38.02 38.02 0 0 0 13.6 43.03H4.782a1.594 1.594 0 0 0-1.593 1.594v12.75a1.594 1.594 0 0 0 1.593 1.594H13.6a38.02 38.02 0 0 0 5.318 12.84l-6.229 6.243a1.594 1.594 0 0 0 0 2.252l9.005 9.005a1.594 1.594 0 0 0 2.252 0l6.243-6.228A38.02 38.02 0 0 0 43.03 88.4v8.818a1.594 1.594 0 0 0 1.594 1.594h12.75a1.594 1.594 0 0 0 1.594-1.594V88.4a38.059 38.059 0 0 0 12.836-5.326l13.003 13.004a7.969 7.969 0 0 0 11.27-11.27L83.074 71.805A38.059 38.059 0 0 0 88.4 58.969h8.819Zm-3.395 34.855a4.781 4.781 0 0 1-6.762 0L56.545 63.31a7.937 7.937 0 0 0-5.645-2.321c-.333 0-.665.02-.995.059a12.739 12.739 0 0 1-13.824-15.944l7.03 7.032c.299.299.704.467 1.127.467H51a1.594 1.594 0 0 0 1.594-1.594v-6.77c0-.423-.168-.828-.467-1.127l-7.024-7.03a12.738 12.738 0 0 1 15.938 13.824 7.978 7.978 0 0 0 2.261 6.64l30.522 30.517a4.782 4.782 0 0 1 0 6.762ZM65.562 54.3a4.805 4.805 0 0 1-1.348-4.008A15.926 15.926 0 0 0 41.527 34.02a1.594 1.594 0 0 0-.437 2.564l8.316 8.315v4.508h-4.508l-8.315-8.316a1.593 1.593 0 0 0-2.564.437 15.925 15.925 0 0 0 16.264 22.685 4.805 4.805 0 0 1 4.008 1.35l8.198 8.197a25.516 25.516 0 1 1 11.27-11.27l-8.197-8.19Zm19.95 2.815a34.744 34.744 0 0 1-4.74 12.397l-4.66-4.66a28.72 28.72 0 1 0-11.269 11.27l4.66 4.66a34.742 34.742 0 0 1-12.397 4.74 1.594 1.594 0 0 0-1.325 1.561v8.543H46.22v-8.543a1.594 1.594 0 0 0-1.325-1.57 34.728 34.728 0 0 1-13.975-5.791 1.594 1.594 0 0 0-2.043.177l-6.044 6.032-6.754-6.754 6.032-6.044a1.594 1.594 0 0 0 .177-2.043 34.726 34.726 0 0 1-5.792-13.983 1.594 1.594 0 0 0-1.578-1.325H6.376V46.22h8.543a1.594 1.594 0 0 0 1.57-1.325A34.725 34.725 0 0 1 22.28 30.92a1.594 1.594 0 0 0-.177-2.043l-6.032-6.044 6.754-6.754 6.044 6.032a1.594 1.594 0 0 0 2.043.177 34.726 34.726 0 0 1 13.983-5.792 1.594 1.594 0 0 0 1.325-1.578V6.376h9.562v8.543a1.594 1.594 0 0 0 1.325 1.57A34.727 34.727 0 0 1 71.09 22.28a1.594 1.594 0 0 0 2.043-.177l6.044-6.032 6.754 6.754-6.032 6.044a1.594 1.594 0 0 0-.177 2.043 34.727 34.727 0 0 1 5.792 13.983 1.593 1.593 0 0 0 1.57 1.325h8.542v9.562h-8.543a1.594 1.594 0 0 0-1.57 1.325v.008Z" fill="#F8991D"/><path d="M61.143 58.89a1.593 1.593 0 1 0-2.254 2.253l1.127 1.127a1.594 1.594 0 0 0 2.253-2.254l-1.126-1.127Zm22.538 27.045a1.594 1.594 0 0 0 2.254-2.254L66.778 64.523a1.594 1.594 0 1 0-2.255 2.255l19.158 19.157Zm5.636 5.635a1.594 1.594 0 0 0 2.254-2.253l-1.127-1.128a1.594 1.594 0 1 0-2.255 2.255l1.128 1.126Z" fill="#F8991D"/></symbol><symbol id="icon-wt" viewBox="0 0 32 32"><title>wt</title><path d="M26.576 5.363a14.818 14.818 0 0 0-10.511-4.354C7.856 1.009 1.2 7.664 1.2 15.874c0 2.732.737 5.291 2.022 7.491l-.038-.07-2.109 7.702 7.879-2.067c2.051 1.139 4.498 1.809 7.102 1.809h.006c8.209-.003 14.862-6.659 14.862-14.868a14.82 14.82 0 0 0-4.349-10.507zM16.062 28.228h-.006c-2.319 0-4.489-.64-6.342-1.753l.056.031-.451-.267-4.675 1.227 1.247-4.559-.294-.467a12.23 12.23 0 0 1-1.889-6.565c0-6.822 5.531-12.353 12.353-12.353s12.353 5.531 12.353 12.353-5.53 12.353-12.353 12.353zm6.776-9.251c-.371-.186-2.197-1.083-2.537-1.208-.341-.124-.589-.185-.837.187-.246.371-.958 1.207-1.175 1.455-.216.249-.434.279-.805.094a10.23 10.23 0 0 1-2.997-1.852l.01.009a11.236 11.236 0 0 1-2.037-2.521l-.028-.052c-.216-.371-.023-.572.162-.757.167-.166.372-.434.557-.65.146-.179.271-.384.366-.604l.006-.017a.678.678 0 0 0-.033-.653l.002.003c-.094-.186-.836-2.014-1.145-2.758-.302-.724-.609-.625-.836-.637-.216-.01-.464-.012-.712-.012-.395.01-.746.188-.988.463l-.001.002a4.153 4.153 0 0 0-1.299 3.102v-.004a7.233 7.233 0 0 0 1.527 3.857l-.012-.015a16.693 16.693 0 0 0 6.251 5.564l.094.043c.548.248 1.25.513 1.968.74l.149.041a5.103 5.103 0 0 0 2.368.143l-.031.004a3.837 3.837 0 0 0 2.497-1.749l.009-.017a3.122 3.122 0 0 0 .214-1.784l.003.019c-.092-.155-.34-.247-.712-.434z"/></symbol><symbol id="icon-youtube" viewBox="0 0 576 512"><title>youtube</title><!--! Font Awesome Pro 6.4.2 by @fontawesome - https://fontawesome.com License - https://fontawesome.com/license (Commercial License) Copyright 2023 Fonticons, Inc.--><path d="M549.655 124.083c-6.281-23.65-24.787-42.276-48.284-48.597C458.781 64 288 64 288 64S117.22 64 74.629 75.486c-23.497 6.322-42.003 24.947-48.284 48.597-11.412 42.867-11.412 132.305-11.412 132.305s0 89.438 11.412 132.305c6.281 23.65 24.787 41.5 48.284 47.821C117.22 448 288 448 288 448s170.78 0 213.371-11.486c23.497-6.321 42.003-24.171 48.284-47.821 11.412-42.867 11.412-132.305 11.412-132.305s0-89.438-11.412-132.305zm-317.51 213.508V175.185l142.739 81.205-142.739 81.201z"/></symbol></svg>