<svg width="101" height="101" viewBox="0 0 101 101" fill="none" xmlns="http://www.w3.org/2000/svg">
<path d="M51.9795 40.1436C51.9795 40.9608 51.3171 41.623 50.5 41.623C49.6829 41.623 49.0205 40.9608 49.0205 40.1436C49.0205 39.3263 49.6829 38.6641 50.5 38.6641C51.3171 38.6641 51.9795 39.3263 51.9795 40.1436Z" fill="#F8991D"/>
<path d="M41.1076 45.8925C41.8847 46.145 42.31 46.9799 42.0575 47.7567C41.805 48.5339 40.9703 48.9592 40.1933 48.7067C39.4161 48.4542 38.991 47.6196 39.2433 46.8424C39.496 46.0653 40.3306 45.64 41.1076 45.8925Z" fill="#F8991D"/>
<path d="M43.2157 58.0091C43.6961 57.3478 44.6212 57.2012 45.2823 57.6818C45.9433 58.1619 46.0899 59.0871 45.6095 59.7481C45.1294 60.4092 44.204 60.5558 43.543 60.0756C42.8819 59.5953 42.7354 58.6701 43.2157 58.0091Z" fill="#F8991D"/>
<path d="M55.3904 59.7482C54.9101 59.087 55.0566 58.162 55.7177 57.6816C56.3787 57.2013 57.3041 57.3479 57.7842 58.0091C58.2646 58.6699 58.118 59.5953 57.457 60.0755C56.7959 60.5558 55.8707 60.4092 55.3904 59.7482Z" fill="#F8991D"/>
<path d="M60.8067 48.7067C60.0297 48.9592 59.1951 48.5339 58.9424 47.7569C58.6901 46.9799 59.1152 46.1452 59.8924 45.8925C60.6694 45.64 61.5041 46.0653 61.7566 46.8426C62.0091 47.6196 61.5837 48.4544 60.8067 48.7067Z" fill="#F8991D"/>
<path d="M28.0642 24.6541C20.8415 30.9291 16.2744 40.181 16.2744 50.5C16.2744 69.4024 31.5978 84.7256 50.5 84.7256C69.4022 84.7256 84.7256 69.4024 84.7256 50.5C84.7256 31.5978 69.4022 16.2744 50.5 16.2744C44.0425 16.2744 38.0035 18.0638 32.8497 21.1723" stroke="#F8991D" stroke-width="3" stroke-miterlimit="10" stroke-linecap="round" stroke-linejoin="round"/>
<path d="M99.5205 50.5C99.5205 77.5733 77.5733 99.5205 50.5 99.5205C23.4267 99.5205 1.47949 77.5733 1.47949 50.5C1.47949 23.4267 23.4267 1.4795 50.5 1.4795C77.5733 1.4795 99.5205 23.4267 99.5205 50.5Z" stroke="#F8991D" stroke-width="3" stroke-miterlimit="10" stroke-linecap="round" stroke-linejoin="round"/>
<path d="M54.9385 50.5C54.9385 52.9514 52.9512 54.9385 50.5 54.9385C48.0488 54.9385 46.0615 52.9514 46.0615 50.5C46.0615 48.0486 48.0488 46.0615 50.5 46.0615C52.9512 46.0615 54.9385 48.0486 54.9385 50.5Z" stroke="#F8991D" stroke-width="3" stroke-miterlimit="10" stroke-linecap="round" stroke-linejoin="round"/>
<path d="M66.5585 40.6154L75.7231 37.6377C71.6815 29.7279 64.0284 23.9713 54.9384 22.5397V32.1728C54.9384 38.2036 60.823 42.4789 66.5585 40.6154Z" stroke="#F8991D" stroke-width="3" stroke-miterlimit="10" stroke-linecap="round" stroke-linejoin="round"/>
<path d="M31.6983 49.0578L22.5365 46.0808C22.3106 47.5209 22.1925 48.9964 22.1925 50.5C22.1925 58.3131 25.3578 65.3868 30.4762 70.509L36.1368 62.718C39.6815 57.8391 37.4338 50.9213 31.6983 49.0578Z" stroke="#F8991D" stroke-width="3" stroke-miterlimit="10" stroke-linecap="round" stroke-linejoin="round"/>
<path d="M46.0615 32.1728V22.5397C36.9715 23.9713 29.3186 29.7277 25.2768 37.6377L34.4414 40.6154C40.1769 42.4789 46.0615 38.2036 46.0615 32.1728Z" stroke="#F8991D" stroke-width="3" stroke-miterlimit="10" stroke-linecap="round" stroke-linejoin="round"/>
<path d="M78.4635 46.0811L69.3015 49.058C63.566 50.9216 61.3184 57.8391 64.8633 62.7183L70.5236 70.5093C75.6421 65.3871 78.8076 58.3133 78.8076 50.5C78.8076 48.9967 78.6894 47.5211 78.4635 46.0811Z" stroke="#F8991D" stroke-width="3" stroke-miterlimit="10" stroke-linecap="round" stroke-linejoin="round"/>
<path d="M43.3184 67.9359L37.6545 75.7317C41.5098 77.698 45.8751 78.8076 50.5 78.8076C55.1247 78.8076 59.4902 77.698 63.3454 75.7317L57.6817 67.9359C54.1368 63.0569 46.863 63.0569 43.3184 67.9359Z" stroke="#F8991D" stroke-width="3" stroke-miterlimit="10" stroke-linecap="round" stroke-linejoin="round"/>
<path d="M50.5 99.5205V93.6025" stroke="#F8991D" stroke-width="3" stroke-miterlimit="10" stroke-linecap="round" stroke-linejoin="round"/>
<path d="M50.5 7.39746V1.47949" stroke="#F8991D" stroke-width="3" stroke-miterlimit="10" stroke-linecap="round" stroke-linejoin="round"/>
<path d="M65.6481 97.1213L63.8193 91.493" stroke="#F8991D" stroke-width="3" stroke-miterlimit="10" stroke-linecap="round" stroke-linejoin="round"/>
<path d="M37.1806 9.50708L35.3518 3.8787" stroke="#F8991D" stroke-width="3" stroke-miterlimit="10" stroke-linecap="round" stroke-linejoin="round"/>
<path d="M79.3135 90.1584L75.8351 85.3706" stroke="#F8991D" stroke-width="3" stroke-miterlimit="10" stroke-linecap="round" stroke-linejoin="round"/>
<path d="M25.1649 15.6292L21.6866 10.8413" stroke="#F8991D" stroke-width="3" stroke-miterlimit="10" stroke-linecap="round" stroke-linejoin="round"/>
<path d="M90.1584 79.3135L85.3705 75.8349" stroke="#F8991D" stroke-width="3" stroke-miterlimit="10" stroke-linecap="round" stroke-linejoin="round"/>
<path d="M15.6294 25.165L10.8415 21.6865" stroke="#F8991D" stroke-width="3" stroke-miterlimit="10" stroke-linecap="round" stroke-linejoin="round"/>
<path d="M97.1212 65.6482L91.4929 63.8193" stroke="#F8991D" stroke-width="3" stroke-miterlimit="10" stroke-linecap="round" stroke-linejoin="round"/>
<path d="M9.50707 37.1804L3.87869 35.3516" stroke="#F8991D" stroke-width="3" stroke-miterlimit="10" stroke-linecap="round" stroke-linejoin="round"/>
<path d="M99.5205 50.5H93.6025" stroke="#F8991D" stroke-width="3" stroke-miterlimit="10" stroke-linecap="round" stroke-linejoin="round"/>
<path d="M7.39746 50.5H1.47949" stroke="#F8991D" stroke-width="3" stroke-miterlimit="10" stroke-linecap="round" stroke-linejoin="round"/>
<path d="M97.1212 35.3518L91.4929 37.1807" stroke="#F8991D" stroke-width="3" stroke-miterlimit="10" stroke-linecap="round" stroke-linejoin="round"/>
<path d="M9.50707 63.8196L3.87869 65.6484" stroke="#F8991D" stroke-width="3" stroke-miterlimit="10" stroke-linecap="round" stroke-linejoin="round"/>
<path d="M90.1584 21.6865L85.3705 25.165" stroke="#F8991D" stroke-width="3" stroke-miterlimit="10" stroke-linecap="round" stroke-linejoin="round"/>
<path d="M15.6294 75.8349L10.8415 79.3135" stroke="#F8991D" stroke-width="3" stroke-miterlimit="10" stroke-linecap="round" stroke-linejoin="round"/>
<path d="M79.3135 10.8416L75.8351 15.6294" stroke="#F8991D" stroke-width="3" stroke-miterlimit="10" stroke-linecap="round" stroke-linejoin="round"/>
<path d="M25.1649 85.3709L21.6866 90.1587" stroke="#F8991D" stroke-width="3" stroke-miterlimit="10" stroke-linecap="round" stroke-linejoin="round"/>
<path d="M65.6481 3.8787L63.8193 9.50708" stroke="#F8991D" stroke-width="3" stroke-miterlimit="10" stroke-linecap="round" stroke-linejoin="round"/>
<path d="M37.1806 91.493L35.3518 97.1213" stroke="#F8991D" stroke-width="3" stroke-miterlimit="10" stroke-linecap="round" stroke-linejoin="round"/>
</svg>
