<svg width="101" height="101" viewBox="0 0 101 101" fill="none" xmlns="http://www.w3.org/2000/svg">
<path d="M53.459 69.2649V18.5276" stroke="#F8991D" stroke-width="3" stroke-miterlimit="10" stroke-linecap="round" stroke-linejoin="round"/>
<path d="M53.459 82.4741V75.871" stroke="#F8991D" stroke-width="3" stroke-miterlimit="10" stroke-linecap="round" stroke-linejoin="round"/>
<path d="M47.541 82.4741V18.5277" stroke="#F8991D" stroke-width="3" stroke-miterlimit="10" stroke-linecap="round" stroke-linejoin="round"/>
<path d="M17.7539 6.25036V3.84668C17.7539 2.5394 18.8138 1.47949 20.1211 1.47949H27.2227C28.5299 1.47949 29.5898 2.5394 29.5898 3.84668V21.2061C29.5898 22.5135 28.5299 23.5732 27.2227 23.5732H20.1211C18.8138 23.5732 17.7539 22.5135 17.7539 21.2061V12.5264" stroke="#F8991D" stroke-width="3" stroke-miterlimit="10" stroke-linecap="round" stroke-linejoin="round"/>
<path d="M80.8789 23.5732H73.7773C72.4701 23.5732 71.4102 22.5133 71.4102 21.2061V3.84668C71.4102 2.5394 72.4701 1.47949 73.7773 1.47949H80.8789C82.1862 1.47949 83.2461 2.5394 83.2461 3.84668V21.2061C83.2461 22.5133 82.1862 23.5732 80.8789 23.5732Z" stroke="#F8991D" stroke-width="3" stroke-miterlimit="10" stroke-linecap="round" stroke-linejoin="round"/>
<path d="M67.8786 9.56738H71.4101V15.4854H56.3015" stroke="#F8991D" stroke-width="3" stroke-miterlimit="10" stroke-linecap="round" stroke-linejoin="round"/>
<path d="M56.3016 9.56738H61.6304" stroke="#F8991D" stroke-width="3" stroke-miterlimit="10" stroke-linecap="round" stroke-linejoin="round"/>
<path d="M44.7003 15.4854H29.5897V9.56738H44.7003" stroke="#F8991D" stroke-width="3" stroke-miterlimit="10" stroke-linecap="round" stroke-linejoin="round"/>
<path d="M27.2227 99.5205H20.1211C18.8138 99.5205 17.7539 98.4606 17.7539 97.1533V79.7939C17.7539 78.4867 18.8138 77.4268 20.1211 77.4268H27.2227C28.5299 77.4268 29.5898 78.4867 29.5898 79.7939V97.1533C29.5898 98.4606 28.5299 99.5205 27.2227 99.5205Z" stroke="#F8991D" stroke-width="3" stroke-miterlimit="10" stroke-linecap="round" stroke-linejoin="round"/>
<path d="M80.8789 99.5205H73.7773C72.4701 99.5205 71.4102 98.4606 71.4102 97.1533V79.7939C71.4102 78.4867 72.4701 77.4268 73.7773 77.4268H80.8789C82.1862 77.4268 83.2461 78.4867 83.2461 79.7939V97.1533C83.2461 98.4606 82.1862 99.5205 80.8789 99.5205Z" stroke="#F8991D" stroke-width="3" stroke-miterlimit="10" stroke-linecap="round" stroke-linejoin="round"/>
<path d="M56.3016 85.5146H71.4102V91.4326H56.3016" stroke="#F8991D" stroke-width="3" stroke-miterlimit="10" stroke-linecap="round" stroke-linejoin="round"/>
<path d="M44.7003 91.4326H29.5897V85.5146H44.7003" stroke="#F8991D" stroke-width="3" stroke-miterlimit="10" stroke-linecap="round" stroke-linejoin="round"/>
<path d="M57.0098 12.5264C57.0098 16.1217 54.0954 19.0361 50.5 19.0361C46.9046 19.0361 43.9902 16.1217 43.9902 12.5264C43.9902 8.931 46.9046 6.0166 50.5 6.0166C54.0954 6.0166 57.0098 8.931 57.0098 12.5264Z" stroke="#F8991D" stroke-width="3" stroke-miterlimit="10" stroke-linecap="round" stroke-linejoin="round"/>
<path d="M57.0098 88.4736C57.0098 92.069 54.0954 94.9834 50.5 94.9834C46.9046 94.9834 43.9902 92.069 43.9902 88.4736C43.9902 84.8783 46.9046 81.9639 50.5 81.9639C54.0954 81.9639 57.0098 84.8783 57.0098 88.4736Z" stroke="#F8991D" stroke-width="3" stroke-miterlimit="10" stroke-linecap="round" stroke-linejoin="round"/>
</svg>
