<svg width="101" height="101" viewBox="0 0 101 101" fill="none" xmlns="http://www.w3.org/2000/svg">
	<path d="M99.5205 50.5C99.5205 23.4267 77.5733 1.4795 50.5 1.4795C23.4267 1.4795 1.47949 23.4267 1.47949 50.5C1.47949 77.5733 23.4267 99.5205 50.5 99.5205C77.5733 99.5205 99.5205 77.5733 99.5205 50.5Z" stroke="#F8991D" stroke-width="3" stroke-miterlimit="10" stroke-linecap="round" stroke-linejoin="round"/>
	<path d="M83.3744 75.687C88.7282 68.7097 91.9119 59.9768 91.9119 50.5001C91.9119 27.6292 73.3711 9.08817 50.5001 9.08817C27.6289 9.08817 9.08813 27.6292 9.08813 50.5001C9.08813 73.3711 27.6289 91.9121 50.5001 91.9121C61.7659 91.9121 71.9823 87.4125 79.4488 80.1117" stroke="#F8991D" stroke-width="3" stroke-miterlimit="10" stroke-linecap="round" stroke-linejoin="round"/>
	<path d="M58.2773 50.5C58.2773 46.2047 54.7954 42.7226 50.4999 42.7226C46.2047 42.7226 42.7225 46.2047 42.7225 50.5C42.7225 54.7952 46.2047 58.2773 50.4999 58.2773C54.7954 58.2773 58.2773 54.7952 58.2773 50.5Z" stroke="#F8991D" stroke-width="3" stroke-miterlimit="10" stroke-linecap="round" stroke-linejoin="round"/>
	<path d="M45.0041 44.9963C39.5085 39.4946 30.7911 41.0392 27.4181 37.6659C24.0446 34.2927 25.2876 24.171 35.2316 20.2651C38.8674 18.835 41.8873 19.8292 44.2525 22.2595" stroke="#F8991D" stroke-width="3" stroke-miterlimit="10" stroke-linecap="round" stroke-linejoin="round"/>
	<path d="M50.5 42.7217C50.5 37.36 49.4663 31.6038 47.4542 27.1752" stroke="#F8991D" stroke-width="3" stroke-miterlimit="10" stroke-linecap="round" stroke-linejoin="round"/>
	<path d="M50.5 58.2774C50.5 70.4366 55.8254 84.6419 65.7691 80.7355C75.7129 76.8288 76.9559 66.7075 73.5822 63.3339C70.2082 59.96 61.4918 61.5056 55.9958 56.0029" stroke="#F8991D" stroke-width="3" stroke-miterlimit="10" stroke-linejoin="round"/>
	<path d="M58.2773 50.5C70.4366 50.5 84.6419 45.1746 80.7356 35.2309C76.829 25.2871 66.7077 24.0441 63.334 27.418C59.96 30.7916 61.5058 39.5082 56.0029 45.0042" stroke="#F8991D" stroke-width="3" stroke-miterlimit="10" stroke-linejoin="round"/>
	<path d="M42.7227 50.5C30.5634 50.5 16.3581 55.8254 20.2644 65.7691C24.171 75.7129 34.2923 76.9559 37.6659 73.582C41.04 70.2084 39.4942 61.4918 44.9971 55.9958" stroke="#F8991D" stroke-width="3" stroke-miterlimit="10" stroke-linejoin="round"/>
</svg>
