<svg width="102" height="102" viewBox="0 0 102 102" fill="none" xmlns="http://www.w3.org/2000/svg">
<path d="M65.0233 54.3999H61.3479L63.1244 41.7587C63.2706 40.6605 62.6348 39.6269 61.5808 39.2461C60.5098 38.8568 59.3317 39.2512 58.8166 40.0808L44.6488 58.4595C44.081 59.3554 44.047 60.4434 44.557 61.3699C45.0772 62.3134 46.0802 62.8982 47.1767 62.8982H50.8521L49.0756 75.5394C48.9294 76.6376 49.5652 77.6712 50.6192 78.052C50.9014 78.1557 51.1921 78.2033 51.476 78.2033C52.2682 78.2033 53.0043 77.8276 53.3834 77.2173L67.5512 58.8386C68.119 57.9427 68.153 56.8547 67.643 55.9282C67.1228 54.9847 66.1198 54.3999 65.0233 54.3999ZM52.9805 72.1836L54.4918 61.4379C54.5598 60.95 54.4136 60.457 54.0923 60.0847C53.7693 59.7124 53.3001 59.4999 52.8088 59.4999H48.1321L59.2195 45.1162L57.7082 55.8619C57.6402 56.3498 57.7864 56.8428 58.1077 57.2151C58.4307 57.5874 58.8999 57.7999 59.3912 57.7999H64.0679L52.9805 72.1836Z" fill="#F8991D"/>
<path d="M96.9 39.1H93.5C90.6882 39.1 88.4 41.3882 88.4 44.2V49.3H85V34C85 30.2498 81.9502 27.2 78.2 27.2H69.7V23.8H79.9C82.7118 23.8 85 21.5118 85 18.7V15.3C85 12.4882 82.7118 10.2 79.9 10.2H45.9C43.0882 10.2 40.8 12.4882 40.8 15.3V18.7C40.8 21.5118 43.0882 23.8 45.9 23.8H56.1V27.2H46.0462C44.4584 27.2 42.9131 27.7593 41.6942 28.7759L34.3281 34.9111C33.7195 35.4195 32.9477 35.7 32.1538 35.7H23.8C20.0498 35.7 17 38.7498 17 42.5V49.3H13.6V39.1C13.6 36.2882 11.3118 34 8.5 34H5.1C2.2882 34 0 36.2882 0 39.1V73.1C0 75.9118 2.2882 78.2 5.1 78.2H8.5C11.3118 78.2 13.6 75.9118 13.6 73.1V62.9H17V73.1C17 76.8502 20.0498 79.9 23.8 79.9H29.3403C30.5575 79.9 31.6897 80.5562 32.2915 81.6136L36.1556 88.3728C37.3609 90.4876 39.6236 91.8017 42.0597 91.8017H72.4115C74.4345 91.8017 76.3385 90.9109 77.6356 89.3554L83.4241 82.4092C84.4407 81.1886 85 79.6433 85 78.0555V62.9017H88.4V68.0017C88.4 70.8135 90.6882 73.1017 93.5 73.1017H96.9C99.7118 73.1017 102 70.8135 102 68.0017V44.2017C102 41.3899 99.7118 39.1 96.9 39.1ZM10.2 73.1C10.2 74.0384 9.4384 74.7999 8.5 74.7999H5.1C4.1616 74.7999 3.4 74.0384 3.4 73.1V39.1C3.4 38.1616 4.1616 37.4 5.1 37.4H8.5C9.4384 37.4 10.2 38.1616 10.2 39.1V73.1ZM13.6 59.5V52.7H17V59.5H13.6ZM44.2 18.7V15.3C44.2 14.3616 44.9616 13.6 45.9 13.6H79.9C80.8384 13.6 81.6 14.3616 81.6 15.3V18.7C81.6 19.6384 80.8384 20.4 79.9 20.4H45.9C44.9616 20.4 44.2 19.6384 44.2 18.7ZM59.5 23.8H66.3V27.2H59.5V23.8ZM81.6 78.0538C81.6 78.8477 81.3195 79.6195 80.8112 80.2298L75.0244 87.1759C74.375 87.9529 73.423 88.4 72.4115 88.4H42.0597C40.8425 88.4 39.7103 87.7438 39.1085 86.6864L35.2444 79.9272C34.0391 77.8123 31.7764 76.4983 29.3403 76.4983H23.8C21.9249 76.4983 20.4 74.9734 20.4 73.0983V42.4983C20.4 40.6232 21.9249 39.0983 23.8 39.0983H32.1538C33.7416 39.0983 35.2869 38.539 36.5058 37.5224L43.8719 31.3871C44.4805 30.8787 45.2523 30.5983 46.0462 30.5983H78.2C80.0751 30.5983 81.6 32.1232 81.6 33.9983V78.052V78.0538ZM85 59.5V52.7H88.4V59.5H85ZM98.6 68C98.6 68.9384 97.8384 69.7 96.9 69.7H93.5C92.5616 69.7 91.8 68.9384 91.8 68V44.2C91.8 43.2616 92.5616 42.5 93.5 42.5H96.9C97.8384 42.5 98.6 43.2616 98.6 44.2V68Z" fill="#F8991D"/>
</svg>
