<svg width="102" height="102" viewBox="0 0 102 102" fill="none" xmlns="http://www.w3.org/2000/svg">
<path d="M66.9375 85.8633C68.0378 85.8633 68.9297 84.9713 68.9297 83.8711C68.9297 82.7708 68.0378 81.8789 66.9375 81.8789C65.8372 81.8789 64.9453 82.7708 64.9453 83.8711C64.9453 84.9713 65.8372 85.8633 66.9375 85.8633Z" fill="#F8991D"/>
<path d="M51 52.9922C52.1003 52.9922 52.9922 52.1003 52.9922 51C52.9922 49.8997 52.1003 49.0078 51 49.0078C49.8997 49.0078 49.0078 49.8997 49.0078 51C49.0078 52.1003 49.8997 52.9922 51 52.9922Z" fill="#F8991D"/>
<path d="M47.0156 45.0234C48.1159 45.0234 49.0078 44.1315 49.0078 43.0312C49.0078 41.931 48.1159 41.0391 47.0156 41.0391C45.9154 41.0391 45.0234 41.931 45.0234 43.0312C45.0234 44.1315 45.9154 45.0234 47.0156 45.0234Z" fill="#F8991D"/>
<path d="M54.9844 45.0234C56.0846 45.0234 56.9766 44.1315 56.9766 43.0312C56.9766 41.931 56.0846 41.0391 54.9844 41.0391C53.8841 41.0391 52.9922 41.931 52.9922 43.0312C52.9922 44.1315 53.8841 45.0234 54.9844 45.0234Z" fill="#F8991D"/>
<path d="M47.0156 37.0547C48.1159 37.0547 49.0078 36.1628 49.0078 35.0625C49.0078 33.9622 48.1159 33.0703 47.0156 33.0703C45.9154 33.0703 45.0234 33.9622 45.0234 35.0625C45.0234 36.1628 45.9154 37.0547 47.0156 37.0547Z" fill="#F8991D"/>
<path d="M16.9336 26.2969C18.0338 26.2969 18.9258 25.4049 18.9258 24.3047C18.9258 23.2044 18.0338 22.3125 16.9336 22.3125C15.8333 22.3125 14.9414 23.2044 14.9414 24.3047C14.9414 25.4049 15.8333 26.2969 16.9336 26.2969Z" fill="#F8991D"/>
<path d="M14.543 62.1562C15.6432 62.1562 16.5352 61.2643 16.5352 60.1641C16.5352 59.0638 15.6432 58.1719 14.543 58.1719C13.4427 58.1719 12.5508 59.0638 12.5508 60.1641C12.5508 61.2643 13.4427 62.1562 14.543 62.1562Z" fill="#F8991D"/>
<path d="M22.7109 63.3516C23.8112 63.3516 24.7031 62.4596 24.7031 61.3594C24.7031 60.2591 23.8112 59.3672 22.7109 59.3672C21.6107 59.3672 20.7188 60.2591 20.7188 61.3594C20.7188 62.4596 21.6107 63.3516 22.7109 63.3516Z" fill="#F8991D"/>
<path d="M8.96484 24.3047C10.0651 24.3047 10.957 23.4128 10.957 22.3125C10.957 21.2122 10.0651 20.3203 8.96484 20.3203C7.86459 20.3203 6.97266 21.2122 6.97266 22.3125C6.97266 23.4128 7.86459 24.3047 8.96484 24.3047Z" fill="#F8991D"/>
<path d="M24.9023 24.3047C26.0026 24.3047 26.8945 23.4128 26.8945 22.3125C26.8945 21.2122 26.0026 20.3203 24.9023 20.3203C23.8021 20.3203 22.9102 21.2122 22.9102 22.3125C22.9102 23.4128 23.8021 24.3047 24.9023 24.3047Z" fill="#F8991D"/>
<path d="M6.17578 60.3633C7.27604 60.3633 8.16797 59.4713 8.16797 58.3711C8.16797 57.2708 7.27604 56.3789 6.17578 56.3789C5.07553 56.3789 4.18359 57.2708 4.18359 58.3711C4.18359 59.4713 5.07553 60.3633 6.17578 60.3633Z" fill="#F8991D"/>
<path d="M11.9531 77.6953C13.0534 77.6953 13.9453 76.8034 13.9453 75.7031C13.9453 74.6029 13.0534 73.7109 11.9531 73.7109C10.8529 73.7109 9.96094 74.6029 9.96094 75.7031C9.96094 76.8034 10.8529 77.6953 11.9531 77.6953Z" fill="#F8991D"/>
<path d="M19.9219 81.6797C21.0221 81.6797 21.9141 80.7878 21.9141 79.6875C21.9141 78.5872 21.0221 77.6953 19.9219 77.6953C18.8216 77.6953 17.9297 78.5872 17.9297 79.6875C17.9297 80.7878 18.8216 81.6797 19.9219 81.6797Z" fill="#F8991D"/>
<path d="M3.98438 79.4883C5.08463 79.4883 5.97656 78.5963 5.97656 77.4961C5.97656 76.3958 5.08463 75.5039 3.98438 75.5039C2.88412 75.5039 1.99219 76.3958 1.99219 77.4961C1.99219 78.5963 2.88412 79.4883 3.98438 79.4883Z" fill="#F8991D"/>
<path d="M3.98438 43.6289C5.08463 43.6289 5.97656 42.737 5.97656 41.6367C5.97656 40.5365 5.08463 39.6445 3.98438 39.6445C2.88412 39.6445 1.99219 40.5365 1.99219 41.6367C1.99219 42.737 2.88412 43.6289 3.98438 43.6289Z" fill="#F8991D"/>
<path d="M19.9219 44.4258C21.0221 44.4258 21.9141 43.5338 21.9141 42.4336C21.9141 41.3333 21.0221 40.4414 19.9219 40.4414C18.8216 40.4414 17.9297 41.3333 17.9297 42.4336C17.9297 43.5338 18.8216 44.4258 19.9219 44.4258Z" fill="#F8991D"/>
<path d="M12.1523 42.0352C13.2526 42.0352 14.1445 41.1432 14.1445 40.043C14.1445 38.9427 13.2526 38.0508 12.1523 38.0508C11.0521 38.0508 10.1602 38.9427 10.1602 40.043C10.1602 41.1432 11.0521 42.0352 12.1523 42.0352Z" fill="#F8991D"/>
<path d="M54.9844 37.0547C56.0846 37.0547 56.9766 36.1628 56.9766 35.0625C56.9766 33.9622 56.0846 33.0703 54.9844 33.0703C53.8841 33.0703 52.9922 33.9622 52.9922 35.0625C52.9922 36.1628 53.8841 37.0547 54.9844 37.0547Z" fill="#F8991D"/>
<path d="M51 68.9297C52.1003 68.9297 52.9922 68.0378 52.9922 66.9375C52.9922 65.8372 52.1003 64.9453 51 64.9453C49.8997 64.9453 49.0078 65.8372 49.0078 66.9375C49.0078 68.0378 49.8997 68.9297 51 68.9297Z" fill="#F8991D"/>
<path d="M47.0156 60.9609C48.1159 60.9609 49.0078 60.069 49.0078 58.9688C49.0078 57.8685 48.1159 56.9766 47.0156 56.9766C45.9154 56.9766 45.0234 57.8685 45.0234 58.9688C45.0234 60.069 45.9154 60.9609 47.0156 60.9609Z" fill="#F8991D"/>
<path d="M54.9844 60.9609C56.0846 60.9609 56.9766 60.069 56.9766 58.9688C56.9766 57.8685 56.0846 56.9766 54.9844 56.9766C53.8841 56.9766 52.9922 57.8685 52.9922 58.9688C52.9922 60.069 53.8841 60.9609 54.9844 60.9609Z" fill="#F8991D"/>
<path d="M93.6187 59.1821C94.0077 59.5712 94.5173 59.7656 95.0273 59.7656C95.5373 59.7656 96.047 59.5712 96.436 59.1821L101.416 54.2016C102.194 53.4237 102.194 52.1622 101.416 51.3841L96.436 46.4036C95.6579 45.6257 94.3968 45.6257 93.6185 46.4036C92.8405 47.1816 92.8405 48.443 93.6185 49.2212L95.1981 50.8008H92.7361C89.3159 50.8008 86.4484 49.2674 86.4255 49.2548C86.2741 49.1716 82.6688 47.2148 78.1932 47.2148C76.1779 47.2148 74.3405 47.6117 72.9139 48.0555V34.3507C74.0518 33.8947 76.0091 33.2695 78.1932 33.2695C81.6133 33.2695 84.4809 34.8029 84.5038 34.8155C84.6552 34.8987 88.2605 36.8555 92.7361 36.8555H95.1979L93.6183 38.4351C92.8403 39.213 92.8403 40.4745 93.6183 41.2526C94.0077 41.6415 94.5173 41.8359 95.0273 41.8359C95.5373 41.8359 96.047 41.6415 96.436 41.2524L101.416 36.272C102.194 35.494 102.194 34.2326 101.416 33.4544L96.436 28.4739C95.6579 27.696 94.3968 27.696 93.6185 28.4739C92.8405 29.2519 92.8405 30.5133 93.6185 31.2915L95.1981 32.8711H92.7363C89.3161 32.8711 86.4486 31.3377 86.4257 31.3252C86.2743 31.2419 82.669 29.2852 78.1934 29.2852C76.1781 29.2852 74.3407 29.682 72.9141 30.1259V29.0859C72.9141 27.9862 72.0216 27.0938 70.9219 27.0938H68.9297V7.17188C68.9297 6.64793 68.7165 6.13395 68.346 5.7634C67.9754 5.39285 67.4614 5.17969 66.9375 5.17969H35.0625C34.5386 5.17969 34.0246 5.39285 33.654 5.7634C33.2835 6.13395 33.0703 6.64793 33.0703 7.17188V27.0938H31.0781C29.9784 27.0938 29.0859 27.9862 29.0859 29.0859V31.7899C27.948 32.2459 25.9907 32.8711 23.8066 32.8711C20.3865 32.8711 17.5189 31.3377 17.496 31.3252C17.3446 31.2419 13.7393 29.2852 9.26367 29.2852C4.78802 29.2852 1.18276 31.2419 1.03136 31.3252C0.37254 31.6879 -0.000596939 32.3681 7.1685e-07 33.0703C0.000399154 33.393 0.0810827 33.7206 0.246833 34.024C0.773169 34.9874 1.98282 35.342 2.94764 34.8185C2.97593 34.8029 5.84349 33.2695 9.26367 33.2695C12.6839 33.2695 15.5514 34.8029 15.5743 34.8155C15.7257 34.8987 19.331 36.8555 23.8066 36.8555C25.8219 36.8555 27.6593 36.4586 29.0859 36.0148V49.7196C27.948 50.1756 25.9907 50.8008 23.8066 50.8008C20.3865 50.8008 17.5189 49.2674 17.496 49.2548C17.3446 49.1716 13.7393 47.2148 9.26367 47.2148C4.78802 47.2148 1.18276 49.1716 1.03136 49.2548C0.37254 49.6176 -0.000596939 50.2978 7.1685e-07 51C0.000399154 51.3227 0.0810827 51.6502 0.246833 51.9537C0.773169 52.9171 1.98282 53.2717 2.94764 52.7481C2.97593 52.7326 5.84349 51.1992 9.26367 51.1992C12.6839 51.1992 15.5514 52.7326 15.5743 52.7452C15.7257 52.8284 19.331 54.7852 23.8066 54.7852C25.8219 54.7852 27.6593 54.3883 29.0859 53.9445V67.6493C27.948 68.1053 25.9907 68.7305 23.8066 68.7305C20.3865 68.7305 17.5189 67.1971 17.496 67.1845C17.3446 67.1013 13.7393 65.1445 9.26367 65.1445C4.78802 65.1445 1.18276 67.1013 1.03136 67.1845C0.378317 67.5439 7.1685e-07 68.1868 7.1685e-07 68.911C7.1685e-07 69.2399 0.0778952 69.5742 0.246833 69.8835C0.773169 70.847 1.98282 71.2014 2.94764 70.678C2.97593 70.6623 5.84349 69.1289 9.26367 69.1289C12.6839 69.1289 15.5514 70.6623 15.5743 70.6748C15.7257 70.7581 19.331 72.7148 23.8066 72.7148C25.8219 72.7148 27.6593 72.318 29.0859 71.8741V72.9141C29.0859 74.0137 29.9784 74.9062 31.0781 74.9062H33.0703V94.8281C33.0703 95.3521 33.2835 95.8661 33.654 96.2366C34.0246 96.6071 34.5386 96.8203 35.0625 96.8203H66.9375C67.4614 96.8203 67.9754 96.6071 68.346 96.2366C68.7165 95.8661 68.9297 95.3521 68.9297 94.8281V92.8359C68.9297 91.7382 68.0352 90.8438 66.9375 90.8438C65.8398 90.8438 64.9453 91.7382 64.9453 92.8359H37.0547V74.9062H39.0469C40.1466 74.9062 41.0391 74.0137 41.0391 72.9141V29.0859C41.0391 27.9862 40.1466 27.0938 39.0469 27.0938H37.0547V9.16406H64.9453V27.0938H62.9531C61.8534 27.0938 60.9609 27.9862 60.9609 29.0859V72.9141C60.9609 74.0137 61.8534 74.9062 62.9531 74.9062H64.9453C64.9453 76.0039 65.8398 76.8984 66.9375 76.8984C68.0372 76.8984 68.9297 76.0039 68.9297 74.9062H70.9219C72.0216 74.9062 72.9141 74.0137 72.9141 72.9141V70.2101C74.052 69.7541 76.0093 69.1289 78.1934 69.1289C81.6135 69.1289 84.4811 70.6623 84.504 70.6748C84.6554 70.7581 88.2607 72.7148 92.7363 72.7148H95.1981L93.6187 74.2944C92.8407 75.0724 92.8407 76.3338 93.6187 77.112C94.0077 77.5009 94.5173 77.6953 95.0273 77.6953C95.5373 77.6953 96.047 77.5009 96.436 77.1118L101.416 72.1313C102.194 71.3534 102.194 70.0919 101.416 69.3138L96.436 64.3333C95.6579 63.5554 94.3968 63.5554 93.6185 64.3333C92.8405 65.1113 92.8405 66.3727 93.6185 67.1509L95.1981 68.7305H92.7361C89.3159 68.7305 86.4484 67.1971 86.4255 67.1845C86.2741 67.1013 82.6688 65.1445 78.1932 65.1445C76.1779 65.1445 74.3405 65.5414 72.9139 65.9852V52.2804C74.0518 51.8244 76.0091 51.1992 78.1932 51.1992C81.6133 51.1992 84.4809 52.7326 84.5038 52.7452C84.6552 52.8284 88.2605 54.7852 92.7361 54.7852H95.1979L93.6185 56.3648C92.8405 57.1427 92.8405 58.4042 93.6187 59.1821ZM37.0547 70.9219H33.0703V31.0781H37.0547V70.9219ZM68.9297 70.9219H64.9453V31.0781H68.9297V70.9219Z" fill="#F8991D"/>
</svg>
