<svg width="103" height="103" viewBox="0 0 103 103" fill="none" xmlns="http://www.w3.org/2000/svg">
<path d="M91.6525 61.1017H88.1609V50.6272C88.1609 47.7348 85.816 45.3899 82.9236 45.3899H77.6096L76.0838 11.9934C75.9676 9.18755 73.6548 6.975 70.8465 6.98298H68.9576V3.49159H74.1949C75.1591 3.49159 75.9406 2.71009 75.9406 1.7459C75.9406 0.781706 75.1591 0 74.1949 0H28.8051C27.8409 0 27.0594 0.781501 27.0594 1.74569C27.0594 2.70989 27.8409 3.49139 28.8051 3.49139H34.0423V6.98298H32.1481C29.3411 6.97479 27.0289 9.1853 26.9108 11.9899L25.3902 45.3899H18.3305C15.4381 45.3899 13.0932 47.7346 13.0932 50.6272V61.1017H11.3475C8.45514 61.1017 6.11023 63.4466 6.11023 66.339V97.7627C6.11023 100.655 8.45514 103 11.3475 103H21.8221C24.7145 103 27.0594 100.655 27.0594 97.7627V90.7797H34.0423V97.7627C34.0423 100.655 36.3871 103 39.2796 103C42.1722 103 44.5169 100.655 44.5169 97.7627V90.7797H58.4831V97.7627C58.4831 100.655 60.828 103 63.7204 103C66.6127 103 68.9576 100.655 68.9576 97.7627V90.7797H75.9406V97.7627C75.9406 100.655 78.2853 103 81.1779 103H91.6525C94.5449 103 96.8898 100.655 96.8898 97.7627V66.339C96.8898 63.4464 94.5449 61.1017 91.6525 61.1017ZM79.4322 48.8813H82.9238C83.888 48.8813 84.6695 49.6628 84.6695 50.6269V52.3728H79.4322V48.8813ZM68.9576 10.4746H70.8519C71.788 10.4738 72.5583 11.2117 72.5976 12.147L74.1129 45.3899H68.9576V10.4746ZM61.9745 3.49159H65.4661V66.339H61.9745V3.49159ZM44.5169 3.49159H51.4999H58.4829V6.98318H44.5169V3.49159ZM44.5169 10.4746H58.4831V41.8983H44.5169V10.4746ZM44.5169 45.3899H58.4831V48.8815H44.5169V45.3899ZM44.5169 52.3728H58.4831V66.339H44.5169V52.3728ZM37.5339 3.49159H41.0255V66.339H37.5339V3.49159ZM30.4043 12.1452C30.4446 11.2111 31.2134 10.4746 32.1483 10.4746H34.0426V45.3899H28.8873L30.4043 12.1452ZM16.5848 50.6272C16.5848 49.663 17.3663 48.8815 18.3305 48.8815H21.8221V52.3728H16.5848V50.6272ZM23.5678 97.7627C23.5678 98.7269 22.7863 99.5084 21.8221 99.5084H11.3475C10.3833 99.5084 9.60182 98.7269 9.60182 97.7627V66.339C9.60182 65.3748 10.3833 64.5933 11.3475 64.5933H21.8221C22.7863 64.5933 23.5678 65.3748 23.5678 66.339V97.7627ZM21.8221 61.1017H16.5848V55.8644H21.8221C23.7505 55.8644 25.3137 54.3012 25.3137 52.3728V48.8813H34.0423V66.3388H27.0594C27.0594 63.4464 24.7145 61.1017 21.8221 61.1017ZM27.0594 75.0677C28.9878 75.0677 30.551 76.6309 30.551 78.5593C30.551 80.4876 28.9878 82.0509 27.0594 82.0509V75.0677ZM41.0253 97.7627C41.0253 98.7269 40.2438 99.5084 39.2796 99.5084C38.3154 99.5084 37.5339 98.7269 37.5339 97.7627V90.7797H41.0255L41.0253 97.7627ZM65.4661 97.7627C65.4661 98.7269 64.6846 99.5084 63.7204 99.5084C62.7562 99.5084 61.9747 98.7269 61.9747 97.7627V90.7797H65.4661V97.7627ZM75.9406 82.0509C74.0122 82.0509 72.449 80.4876 72.449 78.5593C72.449 76.6309 74.0122 75.0677 75.9406 75.0677V82.0509ZM75.9406 71.5763C72.0841 71.5763 68.9576 74.7027 68.9576 78.5593C68.9576 82.4158 72.0841 85.5422 75.9406 85.5422V87.2879H67.2117H27.0594V85.5422C30.9159 85.5422 34.0423 82.4158 34.0423 78.5593C34.0423 74.7027 30.9159 71.5763 27.0594 71.5763V69.8306H75.9406V71.5763ZM75.9406 66.339H68.9576V48.8815H75.9406V52.3728C75.9406 54.3012 77.5038 55.8644 79.4322 55.8644H84.6695V61.1017H81.1779C78.2853 61.1017 75.9406 63.4464 75.9406 66.339ZM93.3982 97.7627C93.3982 98.7269 92.6167 99.5084 91.6525 99.5084H81.1779C80.2137 99.5084 79.4322 98.7269 79.4322 97.7627V66.339C79.4322 65.3748 80.2137 64.5933 81.1779 64.5933H91.6525C92.6167 64.5933 93.3982 65.3748 93.3982 66.339V97.7627Z" fill="#F8991D"/>
<path d="M48.0085 83.7966H54.9915C57.8839 83.7966 60.2288 81.4517 60.2288 78.5593C60.2288 75.6669 57.8839 73.322 54.9915 73.322H48.0085C45.1162 73.322 42.7712 75.6669 42.7712 78.5593C42.7712 81.4517 45.1159 83.7966 48.0085 83.7966ZM48.0085 76.8136H54.9915C55.9557 76.8136 56.7372 77.5951 56.7372 78.5593C56.7372 79.5235 55.9557 80.305 54.9915 80.305H48.0085C47.0443 80.305 46.2628 79.5233 46.2628 78.5593C46.2628 77.5953 47.0443 76.8136 48.0085 76.8136Z" fill="#F8991D"/>
</svg>
