<svg width="102" height="102" viewBox="0 0 102 102" fill="none" xmlns="http://www.w3.org/2000/svg">
<path d="M52.3517 63.1936C51.9706 62.3903 51.0098 62.0477 50.2063 62.4292C48.899 63.0495 47.5284 63.5623 46.1327 63.9528C45.5488 64.1162 45.1063 64.5933 44.9876 65.188L43.2839 73.7062C43.1157 74.5473 42.371 75.1579 41.5132 75.1579H36.8656C36.0078 75.1579 35.2633 74.5475 35.095 73.7062L33.3913 65.188C33.2723 64.5933 32.8297 64.1162 32.2461 63.9528C30.2743 63.401 28.3713 62.6125 26.5901 61.6092C26.0616 61.3116 25.4107 61.3361 24.9063 61.6724L17.6775 66.4914C16.9639 66.9672 16.0056 66.8722 15.3988 66.2657L12.1125 62.9792C11.5059 62.3726 11.4113 61.4144 11.8868 60.7006L16.7059 53.4717C17.0424 52.9671 17.0669 52.3164 16.769 51.7879C15.7656 50.0065 14.9771 48.1034 14.4254 46.1319C14.2621 45.548 13.7849 45.1055 13.1903 44.9868L4.67208 43.2831C3.83098 43.1149 3.22037 42.3702 3.22037 41.5124V36.8648C3.22037 36.007 3.83078 35.2625 4.67208 35.0942L13.1903 33.3905C13.7849 33.2715 14.2621 32.8289 14.4254 32.2453C14.9773 30.2735 15.7658 28.3705 16.769 26.5893C17.0667 26.061 17.0422 25.4102 16.7059 24.9055L11.8872 17.6775C11.4114 16.9637 11.5063 16.0056 12.1129 15.3988L15.3992 12.1125C16.0058 11.5059 16.9643 11.4113 17.6779 11.8868L24.9067 16.7059C25.4111 17.0424 26.0622 17.0667 26.5905 16.769C28.3717 15.7658 30.2747 14.9773 32.2465 14.4254C32.8305 14.2621 33.2729 13.7849 33.3917 13.1903L35.0954 4.67208C35.2635 3.83098 36.0082 3.22037 36.866 3.22037H41.5136C42.3714 3.22037 43.1159 3.83078 43.2843 4.67208L44.988 13.1903C45.1069 13.7849 45.5496 14.2621 46.1331 14.4254C48.105 14.9773 50.0079 15.7658 51.7891 16.769C52.3176 17.0667 52.9685 17.0422 53.4729 16.7059L60.7018 11.8868C61.4154 11.4111 62.3734 11.5061 62.9804 12.1125L66.2667 15.3988C66.8734 16.0054 66.968 16.9637 66.4924 17.6775L61.6733 24.9063C61.3369 25.4109 61.3124 26.0616 61.6102 26.5901C62.6135 28.3713 63.402 30.2743 63.9538 32.2461C64.1172 32.8301 64.5943 33.2725 65.189 33.3913L73.7072 35.095C74.5482 35.2631 75.1589 36.0078 75.1589 36.8656V41.5132C75.1589 42.371 74.5485 43.1155 73.7072 43.2839L65.189 44.9876C64.5943 45.1065 64.1172 45.5492 63.9538 46.1331C63.5536 47.5635 63.0254 48.9666 62.384 50.3035C61.9991 51.1054 62.3373 52.0674 63.1392 52.4521C63.941 52.8372 64.9033 52.4987 65.2878 51.6969C65.8667 50.4902 66.3638 49.2357 66.7704 47.9561L74.3389 46.4425C76.6795 45.9739 78.3788 43.9008 78.3788 41.513V36.8654C78.3788 34.4776 76.6795 32.4047 74.3379 31.9362L66.7696 30.4225C66.2731 28.8598 65.644 27.3406 64.8901 25.8865L69.1717 19.4639C70.4961 17.4771 70.2322 14.8095 68.5436 13.1209L65.2573 9.83463C63.5685 8.14606 60.901 7.88229 58.9144 9.2065L52.4918 13.4881C51.0377 12.7345 49.5184 12.1051 47.9557 11.6087L46.4421 4.04036C45.9741 1.69934 43.901 0 41.5132 0H36.8656C34.4778 0 32.4049 1.69934 31.9364 4.04095L30.4227 11.6093C28.86 12.1057 27.3408 12.7349 25.8867 13.4887L19.4645 9.20709C17.4779 7.88269 14.8101 8.14645 13.1215 9.83523L9.83523 13.1215C8.14685 14.8101 7.88269 17.4775 9.20709 19.4645L13.4887 25.8871C12.7351 27.3412 12.1057 28.8602 11.6093 30.4231L4.04075 31.9368C1.69934 32.4049 0 34.478 0 36.8658V41.5134C0 43.9012 1.69934 45.9741 4.04095 46.4427L11.6093 47.9563C12.1055 49.5188 12.7349 51.0381 13.4887 52.4923L9.20709 58.915C7.88269 60.9018 8.14665 63.5693 9.83523 65.2579L13.1215 68.5442C14.8101 70.2328 17.4777 70.4965 19.4645 69.1723L25.8871 64.8907C27.3412 65.6444 28.8602 66.2737 30.4231 66.7702L31.9368 74.3389C32.4049 76.6797 34.478 78.3792 36.8658 78.3792H41.5134C43.9012 78.3792 45.9741 76.6799 46.4427 74.3383L47.9563 66.77C49.1973 66.3757 50.4153 65.8962 51.5877 65.3396C52.3911 64.9579 52.7334 63.9972 52.3517 63.1936Z" fill="#F8991D"/>
<path d="M53.1394 48.1385C53.3744 48.2592 53.6255 48.3164 53.8729 48.3164C54.4578 48.3164 55.0222 47.9966 55.3073 47.4404C56.6062 44.9074 57.2929 42.0544 57.2929 39.1898C57.2929 29.2075 49.1717 21.0862 39.1893 21.0862C34.4403 21.0862 29.9527 22.9114 26.5528 26.2262C25.9159 26.847 25.903 27.8668 26.5237 28.5035C27.1445 29.1402 28.1641 29.1535 28.801 28.5326C31.5959 25.8081 35.285 24.3073 39.1889 24.3073C47.3951 24.3073 54.0715 30.9836 54.0715 39.19C54.0715 41.5794 53.5229 43.8609 52.4409 45.971C52.0353 46.7619 52.3479 47.7325 53.1394 48.1385Z" fill="#F8991D"/>
<path d="M24.114 32.2983C23.2727 32.0088 22.3567 32.4561 22.0673 33.2972C21.4164 35.1894 21.0863 37.172 21.0863 39.1895C21.0863 49.1719 29.2077 57.2931 39.1899 57.2931C43.0291 57.2931 46.6971 56.1065 49.7977 53.8611C50.5181 53.3394 50.6793 52.3323 50.1577 51.612C49.6361 50.8916 48.6289 50.7304 47.9085 51.252C45.3609 53.0965 42.3461 54.0717 39.1897 54.0717C30.9833 54.0717 24.3071 47.3953 24.3071 39.1891C24.3071 37.5288 24.578 35.8986 25.1127 34.3445C25.402 33.5036 24.9549 32.5874 24.114 32.2983Z" fill="#F8991D"/>
<path d="M98.9005 70.3871L94.2434 69.4558C93.9597 68.6117 93.618 67.7875 93.222 66.9908L95.8569 63.0387C96.8727 61.5147 96.6703 59.4687 95.3751 58.1738L93.2156 56.0143C91.9205 54.7193 89.8745 54.5167 88.3507 55.5326L84.3986 58.1674C83.6019 57.7714 82.7777 57.4297 81.9337 57.1462L81.0023 52.4891C80.6431 50.6931 79.0532 49.3896 77.2217 49.3896H74.1675C72.3363 49.3896 70.7461 50.6931 70.3869 52.4891L69.4556 57.1462C68.6115 57.4299 67.7873 57.7716 66.9907 58.1674L63.0386 55.5326C61.5145 54.5169 59.4686 54.7191 58.1736 56.0143L56.0141 58.1738C54.719 59.4689 54.5166 61.5149 55.5324 63.0387L58.1673 66.9908C57.6226 68.0861 57.1813 69.2332 56.8514 70.4128C56.6118 71.2694 57.112 72.158 57.9684 72.3978C58.8251 72.6375 59.7136 72.1374 59.9535 71.2808C60.3041 70.0273 60.8053 68.8181 61.4428 67.6863C61.7404 67.1578 61.7159 66.5069 61.3797 66.0025L58.2127 61.2521C58.0455 61.0013 58.0788 60.6646 58.292 60.4515L60.4515 58.2919C60.6647 58.079 61.0013 58.0459 61.2522 58.2126L66.0025 61.3796C66.507 61.7161 67.1578 61.7404 67.6863 61.4428C68.8183 60.8053 70.0273 60.304 71.2808 59.9534C71.8647 59.7901 72.3072 59.3129 72.4259 58.7183L73.5454 53.1208C73.6043 52.8254 73.8661 52.6108 74.1675 52.6108H77.2217C77.523 52.6108 77.7847 52.8254 77.8439 53.1208L78.9633 58.7187C79.0822 59.3133 79.5249 59.7905 80.1084 59.9538C81.3619 60.3044 82.5712 60.8057 83.7029 61.4432C84.2313 61.7408 84.8823 61.7163 85.3867 61.38L90.1371 58.213C90.3879 58.0459 90.7246 58.079 90.9377 58.2923L93.0973 60.4519C93.3102 60.665 93.3435 61.0017 93.1766 61.2525L90.0096 66.0029C89.6731 66.5075 89.6486 67.1582 89.9464 67.6867C90.5839 68.8187 91.0852 70.0277 91.4358 71.2812C91.5992 71.8651 92.0763 72.3076 92.671 72.4263L98.2684 73.5457C98.5638 73.6047 98.7784 73.8665 98.7784 74.1679V77.2221C98.7784 77.5233 98.5638 77.7851 98.2684 77.8443L92.6706 78.9637C92.0759 79.0826 91.5988 79.5253 91.4354 80.1088C91.0848 81.3623 90.5835 82.5715 89.946 83.7033C89.6484 84.2318 89.6729 84.8827 90.0092 85.3871L93.1762 90.1374C93.3433 90.3883 93.31 90.7249 93.0969 90.9381L90.9374 93.0976C90.7244 93.3108 90.3877 93.3439 90.1367 93.1769L85.3863 90.01C84.8819 89.6737 84.2308 89.6492 83.7025 89.9468C82.5706 90.5843 81.3615 91.0855 80.108 91.4362C79.5241 91.5995 79.0816 92.0766 78.9629 92.6713L77.8435 98.2688C77.7845 98.5642 77.5228 98.7788 77.2213 98.7788H74.1671C73.8659 98.7788 73.6041 98.5642 73.545 98.2688L72.4255 92.6709C72.3066 92.0762 71.8639 91.5991 71.2804 91.4358C70.0269 91.0851 68.8177 90.5839 67.6859 89.9464C67.1574 89.6488 66.5064 89.6733 66.0021 90.0096L61.2518 93.1765C61.0009 93.3437 60.6643 93.3106 60.4511 93.0972L58.2916 90.9377C58.0786 90.7245 58.0453 90.3879 58.2123 90.1371L61.3793 85.3867C61.7157 84.8821 61.7402 84.2314 61.4424 83.7029C60.8049 82.5709 60.3037 81.3619 59.9531 80.1084C59.7897 79.5245 59.3126 79.082 58.7179 78.9633L53.1205 77.8439C52.825 77.7849 52.6105 77.5231 52.6105 77.2217V74.1675C52.6105 73.8663 52.825 73.6045 53.1205 73.5453L53.4631 73.4768C54.3353 73.3023 54.9011 72.4538 54.7264 71.5816C54.5518 70.7094 53.7044 70.1447 52.831 70.3184L52.4883 70.3869C50.6928 70.7463 49.3893 72.3363 49.3893 74.1677V77.2219C49.3893 79.0531 50.6928 80.6433 52.4887 81.0025L57.1459 81.9338C57.4296 82.7779 57.7712 83.6021 58.1671 84.3988L55.5322 88.3509C54.5162 89.8749 54.7188 91.9209 56.0139 93.2158L58.1734 95.3753C59.4686 96.6704 61.5145 96.8728 63.0384 95.857L66.9905 93.2222C67.7871 93.6182 68.6113 93.9599 69.4554 94.2434L70.3867 98.9005C70.7463 100.696 72.3363 102 74.1677 102H77.2219C79.0532 102 80.6433 100.696 81.0025 98.9005L81.9339 94.2434C82.7779 93.9597 83.6021 93.618 84.3988 93.222L88.3509 95.8568C89.8749 96.8726 91.9209 96.6702 93.2158 95.3751L95.3753 93.2156C96.6705 91.9205 96.8729 89.8745 95.8571 88.3507L93.2222 84.3986C93.6182 83.6019 93.9599 82.7777 94.2434 81.9336L98.9005 81.0023C100.696 80.6431 102 79.0531 102 77.2217V74.1675C102 72.3363 100.696 70.7463 98.9005 70.3871Z" fill="#F8991D"/>
<path d="M75.6948 69.897C78.8918 69.897 81.4926 72.4978 81.4926 75.6948C81.4926 76.5843 82.2138 77.3053 83.1031 77.3053C83.9924 77.3053 84.7136 76.5841 84.7136 75.6948C84.7136 70.7217 80.6677 66.6758 75.6946 66.6758C70.7215 66.6758 66.6755 70.7217 66.6755 75.6948C66.6755 80.6679 70.7215 84.7138 75.6946 84.7138C77.7089 84.7138 79.6142 84.0642 81.2048 82.8354C81.9086 82.2915 82.0383 81.2801 81.4946 80.5761C80.9508 79.8722 79.9391 79.7423 79.2353 80.2862C78.2137 81.0753 76.9893 81.4927 75.6946 81.4927C72.4975 81.4927 69.8967 78.8919 69.8967 75.6948C69.8969 72.4976 72.4977 69.897 75.6948 69.897Z" fill="#F8991D"/>
<path d="M49.0017 39.1896C49.0017 33.7792 44.5997 29.3774 39.1896 29.3774C33.7792 29.3774 29.3774 33.7794 29.3774 39.1896C29.3774 44.5999 33.7792 49.0017 39.1896 49.0017C44.5999 49.0017 49.0017 44.5997 49.0017 39.1896ZM32.5984 39.1896C32.5984 35.5554 35.5554 32.5984 39.1896 32.5984C42.8237 32.5984 45.7807 35.5554 45.7807 39.1896C45.7807 42.8237 42.8239 45.7807 39.1896 45.7807C35.555 45.7807 32.5984 42.8237 32.5984 39.1896Z" fill="#F8991D"/>
</svg>
