<svg width="102" height="102" viewBox="0 0 102 102" fill="none" xmlns="http://www.w3.org/2000/svg">
<path d="M82.1417 90.6914H80.0709C79.8783 90.5449 79.6757 90.4094 79.4627 90.2865L62.3862 80.4274L65.2351 78.7827C65.9518 78.3689 66.1974 77.4523 65.7836 76.7355C65.3698 76.0186 64.4528 75.7734 63.7364 76.187L59.3889 78.697L53.9972 75.5842L68.3007 67.326L73.6925 70.439L69.7864 72.6942C69.0696 73.108 68.824 74.0246 69.2379 74.7413C69.6517 75.4583 70.5687 75.7035 71.285 75.2898L79.3664 70.624C79.3322 70.6122 79.2984 70.5995 79.2644 70.5875C80.1868 70.1043 80.9885 69.366 81.5466 68.3994C82.3071 67.0824 82.5089 65.5482 82.1155 64.0793C81.7218 62.6105 80.7797 61.383 79.4629 60.6224L62.3864 50.7633L77.9624 41.7704C79.4209 41.4147 80.7385 40.4902 81.5468 39.0904C82.3073 37.7734 82.5091 36.2392 82.1157 34.7703C81.722 33.3014 80.7799 32.0739 79.4631 31.3134L62.3868 21.4545L79.4631 11.5956C79.6171 11.5066 79.7632 11.4095 79.9055 11.3086H82.1421C85.2598 11.3086 87.7964 8.77211 87.7964 5.65431C87.7964 2.53652 85.2593 0 82.1417 0H41.1038C40.2759 0 39.6051 0.670796 39.6051 1.49865C39.6051 2.32651 40.2759 2.9973 41.1038 2.9973H82.1417C83.6067 2.9973 84.7987 4.18923 84.7987 5.65431C84.7987 7.11939 83.6067 8.31132 82.1417 8.31132H19.8583C18.3932 8.31132 17.2013 7.11939 17.2013 5.65431C17.2013 4.18923 18.3932 2.9973 19.8583 2.9973H34.0961C34.924 2.9973 35.5948 2.32651 35.5948 1.49865C35.5948 0.670796 34.924 0 34.0961 0H19.8583C16.7405 0 14.204 2.53652 14.204 5.65431C14.204 8.77211 16.7405 11.3086 19.8583 11.3086H22.0943C22.2368 11.4095 22.3832 11.5064 22.5373 11.5956L39.6135 21.4545L24.0398 30.446C22.5803 30.8011 21.2619 31.7266 20.4534 33.1272C19.6929 34.4442 19.4911 35.9784 19.8845 37.4473C20.2779 38.9162 21.2203 40.1439 22.5371 40.9042L39.6135 50.7633C39.6135 50.7633 22.7138 60.5837 22.7615 60.5883C21.8279 61.071 21.0167 61.8156 20.4532 62.7913C19.6927 64.1083 19.4909 65.6425 19.8843 67.1114C20.2779 68.5803 21.2201 69.8078 22.5369 70.5683L39.6133 80.4274L22.5369 90.2865C22.3245 90.4092 22.1229 90.5453 21.9307 90.6914H19.8583C16.7405 90.6914 14.204 93.2279 14.204 96.3457C14.204 99.4635 16.7405 102 19.8583 102H82.1417C85.2595 102 87.796 99.4635 87.796 96.3457C87.796 93.2279 85.2593 90.6914 82.1417 90.6914ZM50.9999 73.8533L36.6964 65.5952L50.9999 57.337L65.3034 65.5952L50.9999 73.8533ZM59.3889 49.0327L53.9972 45.9199L67.9932 37.8393L73.3847 40.9521L59.3889 49.0327ZM50.9999 44.1894L37.0039 36.1089L50.9999 28.0284L64.9959 36.1089L50.9999 44.1894ZM73.9648 11.3086L59.3889 19.724L53.9972 16.611L63.1813 11.3086H73.9648ZM57.1867 11.3086L50.9999 14.8806L44.8131 11.3086H57.1867ZM28.035 11.3086H38.8185L77.9638 33.9091C79.2511 34.6524 79.6939 36.3043 78.9505 37.5918C78.2072 38.879 76.5555 39.322 75.2678 38.5785L28.035 11.3086ZM42.6108 23.1849L48.0026 26.2979L34.0066 34.3785L28.6148 31.2657L42.6108 23.1849ZM24.036 38.3083C23.4123 37.9482 22.9661 37.367 22.7799 36.6714C22.5935 35.976 22.6892 35.2495 23.0492 34.6258C23.548 33.762 24.456 33.2786 25.3883 33.2786C25.8453 33.2786 26.3083 33.3947 26.7319 33.6393L77.9642 63.2181C79.2515 63.9614 79.6943 65.6133 78.9509 66.9008C78.2076 68.1878 76.5559 68.6304 75.2682 67.8875L24.036 38.3083ZM42.611 52.4938L48.0028 55.6066L33.6993 63.8647L28.3075 60.7517L42.611 52.4938ZM24.036 67.9726C22.7487 67.2293 22.3059 65.5774 23.0492 64.2899C23.548 63.4261 24.456 62.9426 25.3885 62.9426C25.8455 62.9426 26.3085 63.0588 26.7319 63.3032L74.1696 90.6914H63.3861L24.036 67.9726ZM57.3913 90.6914H44.6084L50.9999 87.0013L57.3913 90.6914ZM42.611 82.1579L48.0028 85.2709L38.614 90.6914H27.8305L42.611 82.1579ZM82.1417 99.0027H19.8583C18.3932 99.0027 17.2013 97.8108 17.2013 96.3457C17.2013 94.8806 18.3932 93.6887 19.8583 93.6887H82.1417C83.6067 93.6887 84.7987 94.8806 84.7987 96.3457C84.7987 97.8108 83.6067 99.0027 82.1417 99.0027Z" fill="#F8991D"/>
</svg>
