<svg width="100" height="100" viewBox="0 0 100 100" xmlns="http://www.w3.org/2000/svg">
<path d="M4.16667 10.4167C4.16667 4.6625 8.82917 0 14.5833 0C20.3375 0 25 4.6625 25 10.4167C25 16.1708 20.3375 20.8333 14.5833 20.8333C8.82917 20.8333 4.16667 16.1708 4.16667 10.4167ZM99.8917 75.1833C99.3708 72.9417 97.1417 71.5375 94.8917 72.0625L62.4125 79.5792L49.8958 24.0875C49.3875 21.8417 47.1625 20.4292 44.9125 20.9375C42.6667 21.4458 41.2583 23.675 41.7667 25.9167L46.2583 45.8333H35.9083L30.2 34.4208C27.2958 28.6083 21.4542 25 14.9583 25C6.7125 25 0 31.7083 0 40.0167L0.220833 55.7667C0.304167 61.5708 3.32083 66.8208 8.29583 69.8125L18.8125 76.1458C20.0583 76.8917 20.8292 78.2625 20.8292 79.7125V95.8333C20.8292 98.1375 22.6958 100 24.9958 100C27.2958 100 29.1625 98.1375 29.1625 95.8333V79.7125C29.1625 75.35 26.8417 71.2458 23.1042 69.0042L12.5875 62.675C10.1 61.1792 8.59167 58.55 8.55 55.65L8.32917 39.9542C8.32917 36.3 11.3 33.3292 14.9542 33.3292C15.5375 33.3292 16.1083 33.3875 16.6625 33.4958V54.1625C16.6625 56.4667 18.5292 58.3292 20.8292 58.3292C23.1292 58.3292 24.9958 56.4667 24.9958 54.1625V42.6458L28.45 49.5542C29.8708 52.3958 32.725 54.1583 35.9042 54.1583H48.1333L53.8375 79.4417C49.2458 80.5292 45.8292 84.65 45.8292 89.575C45.8292 95.3292 50.4917 99.9917 56.2458 99.9917C62 99.9917 66.6625 95.3292 66.6625 89.575C66.6625 88.7583 66.5667 87.9667 66.3875 87.2042L96.7667 80.175C99.0083 79.6542 100.404 77.4167 99.8875 75.175L99.8917 75.1833ZM8.33333 79.1667C6.03333 79.1667 4.16667 81.0292 4.16667 83.3333V95.8333C4.16667 98.1375 6.03333 100 8.33333 100C10.6333 100 12.5 98.1375 12.5 95.8333V83.3333C12.5 81.0292 10.6333 79.1667 8.33333 79.1667ZM62.7792 48.9542C61.4625 43.325 64.9583 37.6667 70.5792 36.3375L82.1417 33.5875C84.8833 32.9375 87.7042 33.3917 90.0958 34.875C92.4875 36.35 94.1583 38.675 94.8 41.4083L97.5833 53.2917C98.9 58.9208 95.4042 64.5792 89.7833 65.9083L78.2208 68.6583C77.4083 68.8542 76.5875 68.9458 75.775 68.9458C73.8458 68.9458 71.95 68.4125 70.2708 67.3708C67.8792 65.8958 66.2083 63.5708 65.5667 60.8333L62.7792 48.9542ZM70.8917 47.05L73.675 58.9292C73.8083 59.5 74.1542 59.9792 74.65 60.2833C75.1417 60.5875 75.725 60.675 76.2958 60.55L87.8583 57.8C89.0208 57.525 89.7458 56.35 89.4708 55.1917L86.6875 43.3083C86.5542 42.7417 86.2083 42.2625 85.7167 41.9583C85.2208 41.6542 84.6292 41.5667 84.0667 41.6917L72.5042 44.4417C71.3417 44.7167 70.6167 45.8917 70.8917 47.05Z"/>
</svg>
