<svg width="16" height="16" viewBox="0 0 16 16" xmlns="http://www.w3.org/2000/svg">
	<path fill-rule="evenodd" clip-rule="evenodd" d="M0.333496 1.99998C0.333496 1.63179 0.631973 1.33331 1.00016 1.33331H2.16683C2.47274 1.33331 2.7394 1.54151 2.81359 1.83829L3.18735 3.33331H14.6668C14.8721 3.33331 15.066 3.42789 15.1923 3.5897C15.3186 3.75152 15.3634 3.96251 15.3136 4.16167L13.6469 10.8283C13.5727 11.1251 13.3061 11.3333 13.0002 11.3333H4.3335C4.02758 11.3333 3.76093 11.1251 3.68673 10.8283L1.64631 2.66665H1.00016C0.631973 2.66665 0.333496 2.36817 0.333496 1.99998ZM4.3335 11.3333C3.41302 11.3333 2.66683 12.0795 2.66683 13C2.66683 13.9205 3.41302 14.6666 4.3335 14.6666C5.25397 14.6666 6.00016 13.9205 6.00016 13C6.00016 12.0795 5.25397 11.3333 4.3335 11.3333ZM13.0002 11.3333C12.0797 11.3333 11.3335 12.0795 11.3335 13C11.3335 13.9205 12.0797 14.6666 13.0002 14.6666C13.9206 14.6666 14.6668 13.9205 14.6668 13C14.6668 12.0795 13.9206 11.3333 13.0002 11.3333ZM3.52068 4.66665L4.85401 9.99998H12.4796L13.813 4.66665H3.52068ZM8.66683 5.33331C9.03502 5.33331 9.3335 5.63179 9.3335 5.99998V6.66665H10.0002C10.3684 6.66665 10.6668 6.96512 10.6668 7.33331C10.6668 7.7015 10.3684 7.99998 10.0002 7.99998H9.3335V8.66665C9.3335 9.03484 9.03502 9.33331 8.66683 9.33331C8.29864 9.33331 8.00016 9.03484 8.00016 8.66665V7.99998H7.3335C6.96531 7.99998 6.66683 7.7015 6.66683 7.33331C6.66683 6.96512 6.96531 6.66665 7.3335 6.66665H8.00016V5.99998C8.00016 5.63179 8.29864 5.33331 8.66683 5.33331ZM4.3335 12.6666C4.1494 12.6666 4.00016 12.8159 4.00016 13C4.00016 13.1841 4.1494 13.3333 4.3335 13.3333C4.51759 13.3333 4.66683 13.1841 4.66683 13C4.66683 12.8159 4.51759 12.6666 4.3335 12.6666ZM13.0002 12.6666C12.8161 12.6666 12.6668 12.8159 12.6668 13C12.6668 13.1841 12.8161 13.3333 13.0002 13.3333C13.1843 13.3333 13.3335 13.1841 13.3335 13C13.3335 12.8159 13.1843 12.6666 13.0002 12.6666Z"/>
</svg>
