<svg width="101" height="101" viewBox="0 0 101 101" fill="none" xmlns="http://www.w3.org/2000/svg">
<path d="M99.5205 50.5C99.5205 77.5733 77.5733 99.5205 50.5 99.5205C23.4267 99.5205 1.47949 77.5733 1.47949 50.5C1.47949 23.4267 23.4267 1.4795 50.5 1.4795C77.5733 1.4795 99.5205 23.4267 99.5205 50.5Z" stroke="#F8991D" stroke-width="3" stroke-miterlimit="10" stroke-linecap="round" stroke-linejoin="round"/>
<path d="M55.2439 85.2888V72.667C55.2439 68.0871 57.2536 63.8218 60.5065 60.5979C60.5371 60.5677 60.5675 60.5373 60.5979 60.5067C63.8216 57.2536 68.0869 55.2439 72.6668 55.2439H85.2888" stroke="#F8991D" stroke-width="3" stroke-miterlimit="10" stroke-linecap="round" stroke-linejoin="round"/>
<path d="M15.7112 55.2439H28.3331C32.913 55.2439 37.1783 57.2536 40.4022 60.5067C40.4324 60.5371 40.4629 60.5677 40.4933 60.5979C43.7464 63.8216 45.7562 68.0871 45.7562 72.6668V85.2888" stroke="#F8991D" stroke-width="3" stroke-miterlimit="10" stroke-linecap="round" stroke-linejoin="round"/>
<path d="M85.2888 45.7561H72.6679C68.1413 45.7561 63.8555 43.8541 60.7087 40.6C58.1263 37.9296 54.5098 36.2682 50.5 36.2682C46.4902 36.2682 42.8737 37.9296 40.2913 40.6C37.1445 43.8541 32.8588 45.7561 28.3321 45.7561H15.7112" stroke="#F8991D" stroke-width="3" stroke-miterlimit="10" stroke-linecap="round" stroke-linejoin="round"/>
<path d="M53.3753 43.1519C52.4821 42.802 51.5173 42.5933 50.5 42.5933C46.1333 42.5933 42.5934 46.1332 42.5934 50.4999C42.5934 54.8666 46.1333 58.4065 50.5 58.4065C54.8667 58.4065 58.4064 54.8666 58.4064 50.4999C58.4064 49.4826 58.1979 48.5178 57.8477 47.6245" stroke="#F8991D" stroke-width="3" stroke-miterlimit="10" stroke-linecap="round" stroke-linejoin="round"/>
<path d="M20.4191 24.8917C16.3359 29.6853 13.3588 35.4505 11.9322 41.8106C11.6613 43.0184 12.5609 44.1748 13.7987 44.1748C14.8549 44.1748 15.7112 45.0311 15.7112 46.0873V54.9128C15.7112 55.9689 14.8549 56.8253 13.7987 56.8253H13.7977C12.5573 56.8253 11.6617 57.9846 11.9334 59.1948C15.2669 74.0454 26.9547 85.733 41.8053 89.0667C43.0155 89.3382 44.1748 88.4426 44.1748 87.2024V87.2014C44.1748 86.145 45.0312 85.2887 46.0873 85.2887H54.9126C55.969 85.2887 56.8253 86.145 56.8253 87.2014V87.2024C56.8253 88.4426 57.9846 89.3382 59.1946 89.0667C65.5533 87.6393 71.3241 84.6713 76.1155 80.5883" stroke="#F8991D" stroke-width="3" stroke-miterlimit="10" stroke-linecap="round" stroke-linejoin="round"/>
<path d="M80.5882 76.1155C84.6712 71.3241 87.6393 65.5533 89.0667 59.1946C89.3383 57.9844 88.4427 56.8251 87.2023 56.8251H87.2013C86.145 56.8251 85.2889 55.9689 85.2889 54.9126V46.0873C85.2889 45.031 86.145 44.1748 87.2013 44.1748C88.4392 44.1748 89.3387 43.0185 89.0679 41.8104C85.1082 24.1585 69.3472 10.9673 50.5001 10.9673C40.722 10.9673 31.7934 14.539 24.8936 20.4211" stroke="#F8991D" stroke-width="3" stroke-miterlimit="10" stroke-linecap="round" stroke-linejoin="round"/>
</svg>
