<svg width="100" height="100" viewBox="0 0 100 100" xmlns="http://www.w3.org/2000/svg">
<path d="M96.3384 78.6625L64.3384 46.6583L58.4592 52.4833L37.5842 31.6083V14.2583L13.0384 0.104167L0.184245 12.9542L14.3426 37.5H31.6926L52.5384 58.3458L46.5759 64.25L78.6592 96.3375C81.0217 98.6958 84.1592 100 87.5009 100C90.8426 100 93.9801 98.7 96.3384 96.3375C101.213 91.4625 101.213 83.5375 96.3384 78.6625ZM29.2509 29.1667H19.1592L10.6009 14.3292L14.4134 10.5125L29.2551 19.075L29.2509 29.1667ZM90.4467 90.4458C88.8759 92.025 86.1301 92.025 84.5551 90.4458L58.3884 64.2833L64.3092 58.4208L90.4426 84.5542C92.0676 86.1792 92.0676 88.8208 90.4426 90.4458H90.4467ZM45.8342 28.5958V9.89167C51.5384 3.82083 59.6134 0 68.5842 0C73.5051 0 78.2426 1.13333 82.6717 3.37917L87.8009 5.97917L67.7217 26.0542C66.9342 26.8417 66.5009 27.8875 66.5009 29C66.5009 30.1125 66.9342 31.1583 67.7176 31.9417C69.2967 33.5208 72.0384 33.5167 73.6134 31.9417L93.7092 11.8458L96.3259 16.9042C98.6509 21.3917 99.8301 26.2167 99.8301 31.2458C99.8301 41.8708 94.4926 51.2583 86.3676 56.9042L80.3384 50.875C87.0092 46.8625 91.4967 39.575 91.4967 31.2417C91.4967 29.5833 91.3217 27.9542 90.9717 26.3625L79.5051 37.8292C74.6301 42.7 66.7009 42.7042 61.8259 37.8292C59.4676 35.475 58.1634 32.3333 58.1634 28.9917C58.1634 25.65 59.4634 22.5125 61.8259 20.1542L73.1884 8.79167C71.6801 8.48333 70.1467 8.325 68.5842 8.325C56.8467 8.325 47.1551 17.2 45.8342 28.5875V28.5958ZM38.2134 67.675L44.1051 73.5667L21.3342 96.3375C18.9759 98.6958 15.8342 100 12.4967 100C9.15925 100 6.01758 98.7 3.65508 96.3375C-1.21576 91.4625 -1.21576 83.5375 3.65508 78.6625L32.3592 49.9583L38.2509 55.85L9.54674 84.5542C7.92174 86.1792 7.92174 88.8208 9.54674 90.4458C11.1217 92.025 13.8676 92.025 15.4384 90.4458L38.2134 67.675Z"/>
</svg>
