<svg width="102" height="102" viewBox="0 0 102 102" fill="none" xmlns="http://www.w3.org/2000/svg">
<path d="M97.2188 58.9688C97.6414 58.9688 98.0468 58.8008 98.3457 58.502C98.6446 58.2031 98.8125 57.7977 98.8125 57.375V44.625C98.8125 44.2023 98.6446 43.7969 98.3457 43.498C98.0468 43.1992 97.6414 43.0312 97.2188 43.0312H88.4005C87.4318 38.4605 85.6289 34.1076 83.0822 30.1904L89.3106 23.9477C89.6089 23.6489 89.7764 23.2439 89.7764 22.8217C89.7764 22.3995 89.6089 21.9945 89.3106 21.6957L80.3059 12.691C80.0071 12.3927 79.6021 12.2252 79.1799 12.2252C78.7577 12.2252 78.3527 12.3927 78.0539 12.691L71.8096 18.9178C67.8924 16.3711 63.5395 14.5682 58.9688 13.5995V4.78125C58.9688 4.35856 58.8008 3.95318 58.502 3.6543C58.2031 3.35541 57.7977 3.1875 57.375 3.1875H44.625C44.2023 3.1875 43.7969 3.35541 43.498 3.6543C43.1992 3.95318 43.0312 4.35856 43.0312 4.78125V13.5995C38.4605 14.5682 34.1076 16.3711 30.1904 18.9178L23.9477 12.6894C23.6489 12.3911 23.2439 12.2236 22.8217 12.2236C22.3995 12.2236 21.9945 12.3911 21.6957 12.6894L12.691 21.6941C12.3927 21.9929 12.2252 22.3979 12.2252 22.8201C12.2252 23.2423 12.3927 23.6473 12.691 23.9461L18.9194 30.1888C16.372 34.1063 14.5685 38.4599 13.5995 43.0312H4.78125C4.35856 43.0312 3.95318 43.1992 3.6543 43.498C3.35541 43.7969 3.1875 44.2023 3.1875 44.625V57.375C3.1875 57.7977 3.35541 58.2031 3.6543 58.502C3.95318 58.8008 4.35856 58.9688 4.78125 58.9688H13.5995C14.5682 63.5395 16.3711 67.8924 18.9178 71.8096L12.6894 78.0523C12.3911 78.3511 12.2236 78.7561 12.2236 79.1783C12.2236 79.6005 12.3911 80.0055 12.6894 80.3043L21.6941 89.309C21.9929 89.6073 22.3979 89.7748 22.8201 89.7748C23.2423 89.7748 23.6473 89.6073 23.9461 89.309L30.1888 83.0806C34.1063 85.628 38.4599 87.4315 43.0312 88.4005V97.2188C43.0312 97.6414 43.1992 98.0468 43.498 98.3457C43.7969 98.6446 44.2023 98.8125 44.625 98.8125H57.375C57.7977 98.8125 58.2031 98.6446 58.502 98.3457C58.8008 98.0468 58.9688 97.6414 58.9688 97.2188V88.4005C63.5381 87.4279 67.8893 85.6224 71.8048 83.0742L84.8082 96.0776C86.3049 97.5612 88.3283 98.3916 90.4357 98.387C92.5431 98.3824 94.5629 97.5432 96.053 96.053C97.5432 94.5629 98.3824 92.5431 98.387 90.4357C98.3916 88.3283 97.5612 86.3049 96.0776 84.8082L83.0742 71.8048C85.6224 67.8893 87.4279 63.5381 88.4005 58.9688H97.2188ZM93.8241 93.8241C93.3801 94.2681 92.853 94.6204 92.2728 94.8607C91.6927 95.1011 91.0709 95.2247 90.4429 95.2247C89.815 95.2247 89.1932 95.1011 88.613 94.8607C88.0329 94.6204 87.5058 94.2681 87.0618 93.8241L56.5447 63.3085C55.8035 62.5683 54.923 61.9821 53.9542 61.5838C52.9853 61.1856 51.9471 60.9831 50.8996 60.988C50.5672 60.9879 50.2351 61.0076 49.9051 61.047C47.8374 61.2953 45.7403 61.033 43.7975 60.2828C41.8548 59.5327 40.1255 58.3177 38.7612 56.7442C37.3969 55.1708 36.4392 53.2868 35.9719 51.2573C35.5047 49.2279 35.5421 47.1148 36.0809 45.1031L43.1109 52.1348C43.4098 52.4337 43.8151 52.6016 44.2377 52.6017H51C51.4227 52.6017 51.8281 52.4338 52.127 52.1349C52.4258 51.836 52.5938 51.4307 52.5938 51.008V44.2377C52.5937 43.8151 52.4257 43.4098 52.1268 43.1109L45.1031 36.0809C47.1144 35.5433 49.2267 35.5069 51.2553 35.9748C53.2839 36.4426 55.1669 37.4005 56.7396 38.7646C58.3122 40.1288 59.5266 41.8575 60.2764 43.7996C61.0262 45.7418 61.2886 47.8381 61.0406 49.9051C60.8868 51.111 61.0107 52.336 61.4026 53.4867C61.7946 54.6374 62.4443 55.6834 63.3022 56.5447L93.8241 87.0618C94.2681 87.5058 94.6204 88.0329 94.8607 88.613C95.1011 89.1932 95.2247 89.815 95.2247 90.4429C95.2247 91.0709 95.1011 91.6927 94.8607 92.2728C94.6204 92.853 94.2681 93.3801 93.8241 93.8241ZM65.5621 54.2991C65.0465 53.778 64.657 53.146 64.4233 52.4512C64.1896 51.7565 64.1179 51.0175 64.2138 50.2908C64.5553 47.4579 64.1295 44.5853 62.9808 41.9733C61.8322 39.3613 60.0029 37.1059 57.6843 35.4429C55.3656 33.7798 52.6428 32.7703 49.8004 32.5197C46.9581 32.2692 44.1006 32.7868 41.5267 34.0186C41.2971 34.1288 41.0972 34.2926 40.9438 34.496C40.7904 34.6994 40.6881 34.9367 40.6453 35.1878C40.6025 35.439 40.6206 35.6968 40.698 35.9395C40.7754 36.1822 40.9098 36.4029 41.0901 36.5829L49.4062 44.8975V49.4062H44.8975L36.5829 41.0901C36.4029 40.9098 36.1822 40.7754 35.9395 40.698C35.6968 40.6206 35.439 40.6025 35.1878 40.6453C34.9367 40.6881 34.6994 40.7904 34.496 40.9438C34.2926 41.0972 34.1288 41.2971 34.0186 41.5267C32.7872 44.0998 32.2696 46.9564 32.5198 49.798C32.77 52.6395 33.7789 55.3617 35.4409 57.68C37.103 59.9983 39.3573 61.8276 41.9682 62.9767C44.579 64.1258 47.4506 64.5525 50.2828 64.2122C51.0096 64.1166 51.7487 64.1886 52.4434 64.4226C53.1381 64.6566 53.7701 65.0463 54.2911 65.5621L62.4893 73.7588C57.0734 76.4948 50.8596 77.2112 44.9631 75.7794C39.0666 74.3476 33.8734 70.8613 30.3153 65.9462C26.7572 61.031 25.0671 55.0088 25.5484 48.9601C26.0297 42.9113 28.6509 37.2321 32.9415 32.9415C37.2321 28.6509 42.9113 26.0297 48.9601 25.5484C55.0088 25.0671 61.031 26.7572 65.9462 30.3153C70.8613 33.8734 74.3476 39.0666 75.7794 44.9631C77.2112 50.8596 76.4948 57.0734 73.7588 62.4893L65.5621 54.2991ZM85.5127 57.1136C84.7441 61.5124 83.1348 65.7218 80.7728 69.5114L76.1127 64.8513C79.4562 58.7925 80.4998 51.7302 79.0514 44.9633C77.6031 38.1965 73.7602 32.1801 68.2296 28.0206C62.699 23.8612 55.8526 21.8385 48.9496 22.3245C42.0465 22.8104 35.551 25.7725 30.6578 30.6657C25.7645 35.559 22.8025 42.0545 22.3165 48.9575C21.8305 55.8606 23.8532 62.707 28.0127 68.2376C32.1721 73.7682 38.1885 77.611 44.9554 79.0594C51.7222 80.5077 58.7845 79.4642 64.8433 76.1207L69.5034 80.7808C65.7138 83.1428 61.5044 84.7521 57.1057 85.5206C56.7366 85.5839 56.4016 85.7751 56.1594 86.0607C55.9172 86.3463 55.7834 86.7081 55.7812 87.0825V95.625H46.2188V87.0825C46.2185 86.7067 46.0855 86.343 45.8431 86.0558C45.6008 85.7685 45.2648 85.5762 44.8943 85.5127C39.8668 84.6326 35.095 82.6551 30.9187 79.721C30.6118 79.5053 30.2387 79.4048 29.8649 79.4371C29.4912 79.4695 29.1408 79.6326 28.8756 79.8979L22.8321 85.9302L16.0778 79.1759L22.1101 73.1324C22.3753 72.8671 22.5385 72.5168 22.5708 72.143C22.6032 71.7693 22.5027 71.3961 22.287 71.0892C19.3518 66.9106 17.3742 62.136 16.4953 57.1057C16.4316 56.7339 16.238 56.3968 15.9491 56.1543C15.6602 55.9118 15.2947 55.7796 14.9175 55.7812H6.375V46.2188H14.9175C15.2933 46.2185 15.657 46.0855 15.9442 45.8431C16.2315 45.6008 16.4238 45.2648 16.4873 44.8943C17.3674 39.8668 19.3449 35.095 22.279 30.9187C22.4947 30.6118 22.5952 30.2387 22.5629 29.8649C22.5305 29.4912 22.3674 29.1408 22.1021 28.8756L16.0698 22.8321L22.8241 16.0778L28.8676 22.1101C29.1329 22.3753 29.4832 22.5385 29.857 22.5708C30.2307 22.6032 30.6039 22.5027 30.9108 22.287C35.0894 19.3518 39.864 17.3742 44.8943 16.4953C45.2661 16.4316 45.6032 16.238 45.8457 15.9491C46.0882 15.6602 46.2204 15.2947 46.2188 14.9175V6.375H55.7812V14.9175C55.7815 15.2933 55.9145 15.657 56.1569 15.9442C56.3992 16.2315 56.7352 16.4238 57.1057 16.4873C62.136 17.3663 66.9106 19.3438 71.0892 22.279C71.3961 22.4947 71.7693 22.5952 72.143 22.5629C72.5168 22.5305 72.8671 22.3674 73.1324 22.1021L79.1759 16.0698L85.9302 22.8241L79.8979 28.8676C79.6326 29.1329 79.4695 29.4832 79.4371 29.857C79.4048 30.2307 79.5053 30.6039 79.721 30.9108C82.6562 35.0894 84.6337 39.864 85.5127 44.8943C85.5762 45.2648 85.7685 45.6008 86.0558 45.8431C86.343 46.0855 86.7067 46.2185 87.0825 46.2188H95.625V55.7812H87.0825C86.7067 55.7815 86.343 55.9145 86.0558 56.1569C85.7685 56.3992 85.5762 56.7352 85.5127 57.1057V57.1136Z" fill="#F8991D"/>
<path d="M61.1426 58.8891C60.9956 58.7369 60.8198 58.6155 60.6253 58.532C60.4309 58.4485 60.2217 58.4045 60.0101 58.4026C59.7985 58.4008 59.5886 58.4411 59.3928 58.5213C59.1969 58.6014 59.019 58.7197 58.8693 58.8694C58.7197 59.019 58.6013 59.197 58.5212 59.3928C58.4411 59.5887 58.4007 59.7986 58.4026 60.0102C58.4044 60.2218 58.4484 60.4309 58.5319 60.6254C58.6154 60.8198 58.7369 60.9957 58.8891 61.1427L60.0159 62.2695C60.3164 62.5598 60.719 62.7204 61.1369 62.7168C61.5548 62.7132 61.9545 62.5456 62.25 62.2501C62.5455 61.9546 62.7131 61.5548 62.7167 61.137C62.7204 60.7191 62.5597 60.3165 62.2694 60.0159L61.1426 58.8891Z" fill="#F8991D"/>
<path d="M83.6814 85.935C83.982 86.2253 84.3846 86.386 84.8025 86.3823C85.2204 86.3787 85.6201 86.2111 85.9156 85.9156C86.2111 85.6201 86.3787 85.2204 86.3823 84.8025C86.386 84.3846 86.2253 83.982 85.935 83.6814L66.7781 64.523C66.4791 64.2239 66.0735 64.0559 65.6505 64.0559C65.2276 64.0559 64.822 64.2239 64.523 64.523C64.2239 64.822 64.0559 65.2276 64.0559 65.6505C64.0559 66.0735 64.2239 66.4791 64.523 66.7781L83.6814 85.935Z" fill="#F8991D"/>
<path d="M89.3169 91.5704C89.6175 91.8607 90.0201 92.0214 90.438 92.0178C90.8558 92.0141 91.2556 91.8465 91.5511 91.551C91.8466 91.2555 92.0142 90.8558 92.0178 90.4379C92.0215 90.02 91.8608 89.6175 91.5705 89.3169L90.4437 88.1885C90.1447 87.8894 89.7391 87.7214 89.3161 87.7214C88.8932 87.7214 88.4876 87.8894 88.1886 88.1885C87.8895 88.4875 87.7215 88.8931 87.7215 89.3161C87.7215 89.739 87.8895 90.1446 88.1886 90.4437L89.3169 91.5704Z" fill="#F8991D"/>
</svg>
